<?xml version="1.0" encoding="UTF-8"?>
<svg id="Layer_1" xmlns="http://www.w3.org/2000/svg" version="1.1" viewBox="0 0 1920 970.9">
  <!-- Generator: Adobe Illustrator 30.3.0, SVG Export Plug-In . SVG Version: 2.1.3 Build 157)  -->
  <defs>
    <style>
      .st0 {
        fill: #21242b;
      }

      .st1 {
        fill: #2c3039;
      }
    </style>
  </defs>
  <path class="st1" d="M1637.89,706.07c-70.08,2.7-140.66,8.23-210.13.93-173.02-18.2-311.23-111.55-437.88-200.22-126.66-88.67-265.88-181.52-439.17-198.25-80.23-7.75-161.39,1.75-241.96,7.28s-164.62,6.68-239.2-16.44c-25.24-7.82-49.1-19.08-69.54-32.86v704.4h1920v-216.28c-21.81-13.94-47.46-25.01-74.3-32.51-65.6-18.35-137.74-18.74-207.82-16.04Z"/>
  <path class="st0" d="M0,0v266.5c20.44,13.78,44.3,25.03,69.54,32.86,74.58,23.12,158.63,21.96,239.2,16.44s161.73-15.02,241.96-7.28c173.29,16.73,312.51,109.58,439.17,198.25,126.66,88.67,264.87,182.02,437.88,200.22,69.47,7.31,140.05,1.77,210.13-.93s142.22-2.3,207.82,16.04c26.84,7.51,52.48,18.58,74.3,32.51V0H0Z"/>
</svg>