<?xml version="1.0" encoding="UTF-8"?>
<svg id="Layer_1" xmlns="http://www.w3.org/2000/svg" version="1.1" viewBox="0 0 85 93.5">
  <!-- Generator: Adobe Illustrator 30.3.0, SVG Export Plug-In . SVG Version: 2.1.3 Build 157)  -->
  <defs>
    <style>
      .st0 {
        fill: #fff9ee;
      }

      .st1 {
        fill: #ff4848;
      }
    </style>
  </defs>
  <rect class="st0" x="-.72" y="14.87" width="23.99" height="7.9" transform="translate(-10 13.48) rotate(-45)"/>
  <polygon class="st1" points="38.31 52.84 29.83 44.36 24.14 50.04 38.31 64.21 60.86 41.66 55.17 35.98 38.31 52.84"/>
  <path class="st0" d="M67.89,24.65c-3.23-3.23-7.02-5.79-11.37-7.68-4.36-1.9-9.03-2.84-14.02-2.84s-9.66.95-14.02,2.84c-4.36,1.9-8.15,4.46-11.37,7.68-3.23,3.23-5.79,7.02-7.68,11.37-1.9,4.36-2.84,9.03-2.84,14.02s.95,9.66,2.84,14.02c1.9,4.36,4.46,8.15,7.68,11.37,3.23,3.23,7.02,5.79,11.37,7.68,4.36,1.9,9.03,2.84,14.02,2.84s9.66-.95,14.02-2.84c4.36-1.9,8.15-4.46,11.37-7.68,3.23-3.23,5.79-7.02,7.68-11.37,1.9-4.36,2.84-9.03,2.84-14.02s-.95-9.66-2.84-14.02c-1.9-4.36-4.46-8.15-7.68-11.37ZM62.3,69.85c-5.42,5.42-12.02,8.13-19.8,8.13s-14.38-2.71-19.8-8.13c-5.42-5.42-8.13-12.02-8.13-19.8s2.71-14.38,8.13-19.8c5.42-5.42,12.02-8.13,19.8-8.13s14.38,2.71,19.8,8.13c5.42,5.42,8.13,12.02,8.13,19.8s-2.71,14.38-8.13,19.8Z"/>
  <rect class="st0" x="69.78" y="6.82" width="7.9" height="23.99" transform="translate(8.29 57.64) rotate(-45)"/>
</svg>