<?xml version="1.0" encoding="UTF-8"?>
<svg id="Layer_1" xmlns="http://www.w3.org/2000/svg" version="1.1" viewBox="0 0 85 93.5">
  <!-- Generator: Adobe Illustrator 30.3.0, SVG Export Plug-In . SVG Version: 2.1.3 Build 157)  -->
  <defs>
    <style>
      .st0 {
        fill: #fff9ee;
      }

      .st1 {
        fill: #ff4848;
      }
    </style>
  </defs>
  <path class="st1" d="M46.3,42.95c-4.22-1.41-7.14-2.64-8.76-3.69-1.62-1.06-2.43-2.5-2.43-4.33s.65-3.27,1.95-4.33c1.3-1.06,3.18-1.58,5.65-1.58,2.25,0,4.01.55,5.28,1.64,1.27,1.09,2.18,2.45,2.74,4.06l6.75-2.74c-.77-2.46-2.2-4.61-4.27-6.44-2.08-1.83-4.38-2.85-6.91-3.06v-5.28h-7.39v5.28c-3.52.77-6.26,2.32-8.23,4.64-1.97,2.32-2.96,4.93-2.96,7.81,0,3.31.97,5.98,2.9,8.02,1.93,2.04,4.98,3.8,9.13,5.28,4.43,1.62,7.51,3.06,9.24,4.33,1.72,1.27,2.59,2.92,2.59,4.96,0,2.32-.83,4.03-2.48,5.12-1.65,1.09-3.64,1.64-5.96,1.64s-4.38-.72-6.17-2.16c-1.79-1.44-3.11-3.61-3.96-6.49l-6.97,2.74c.99,3.38,2.52,6.1,4.59,8.18,2.08,2.08,4.77,3.5,8.07,4.27v5.49h7.39v-5.28c3.52-.63,6.54-2.01,9.08-4.12s3.8-5.24,3.8-9.39c0-2.96-.84-5.66-2.53-8.13-1.69-2.46-5.07-4.61-10.13-6.44Z"/>
  <path class="st0" d="M81.39,30.29c-2.22-5.14-5.22-9.6-9.02-13.4-3.8-3.8-8.27-6.81-13.4-9.02-5.14-2.22-10.62-3.32-16.46-3.32s-11.33,1.11-16.46,3.32c-5.14,2.22-9.6,5.22-13.4,9.02-3.8,3.8-6.81,8.27-9.02,13.4C1.39,35.42.28,40.91.28,46.75s1.11,11.33,3.32,16.47c2.22,5.14,5.22,9.6,9.02,13.4,3.8,3.8,8.27,6.81,13.4,9.02,5.14,2.22,10.62,3.32,16.46,3.32s11.33-1.11,16.46-3.32c5.14-2.22,9.6-5.22,13.4-9.02,3.8-3.8,6.81-8.27,9.02-13.4,2.22-5.14,3.32-10.62,3.32-16.47s-1.11-11.33-3.32-16.46ZM66.46,70.71c-6.54,6.54-14.53,9.82-23.96,9.82s-17.41-3.27-23.96-9.82c-6.54-6.54-9.82-14.53-9.82-23.96s3.27-17.41,9.82-23.96c6.54-6.54,14.53-9.82,23.96-9.82s17.41,3.27,23.96,9.82c6.54,6.54,9.82,14.53,9.82,23.96s-3.27,17.41-9.82,23.96Z"/>
</svg>