<?xml version="1.0" encoding="UTF-8"?>
<svg id="Layer_1" xmlns="http://www.w3.org/2000/svg" version="1.1" viewBox="0 0 85 93.5">
  <!-- Generator: Adobe Illustrator 30.3.0, SVG Export Plug-In . SVG Version: 2.1.3 Build 157)  -->
  <defs>
    <style>
      .st0 {
        fill: #fff9ee;
      }

      .st1 {
        fill: #ff4848;
      }
    </style>
  </defs>
  <path class="st1" d="M29.75,46.75c-1.2,0-2.21.41-3.03,1.22-.81.81-1.22,1.82-1.22,3.03s.41,2.21,1.22,3.03c.81.82,1.82,1.22,3.03,1.22s2.21-.41,3.03-1.22c.81-.81,1.22-1.82,1.22-3.03s-.41-2.21-1.22-3.03c-.81-.81-1.82-1.22-3.03-1.22Z"/>
  <path class="st1" d="M50.2,37.4c5.42,3.4,11.35,5.14,17.8,5.21-.99-6.23-3.88-11.35-8.66-15.35-4.78-4-10.32-6-16.63-6-7.51,0-13.78,2.69-18.81,8.08-5.03,5.38-7.3,11.83-6.8,19.34,5.31-2.2,9.79-5.51,13.44-9.94,3.65-4.43,6.04-9.47,7.17-15.14,2.9,5.81,7.07,10.41,12.48,13.81Z"/>
  <path class="st1" d="M52.22,47.97c-.81.81-1.22,1.82-1.22,3.03s.41,2.21,1.22,3.03c.81.82,1.82,1.22,3.03,1.22s2.21-.41,3.03-1.22c.81-.81,1.22-1.82,1.22-3.03s-.41-2.21-1.22-3.03c-.81-.81-1.82-1.22-3.03-1.22s-2.21.41-3.03,1.22Z"/>
  <path class="st0" d="M83.88,50.58c-.74-1.28-1.79-2.23-3.13-2.87l-.32-5.53c-.64-4.82-2.05-9.28-4.25-13.39-2.2-4.11-4.99-7.67-8.39-10.68-3.4-3.01-7.26-5.37-11.58-7.07s-8.89-2.55-13.71-2.55-9.4.85-13.76,2.55c-4.36,1.7-8.22,4.07-11.58,7.12-3.36,3.05-6.16,6.62-8.39,10.73-2.23,4.11-3.63,8.57-4.2,13.39l-.32,5.63c-1.35.78-2.39,1.82-3.13,3.14-.74,1.31-1.12,2.71-1.12,4.2v8.5c0,2.34.83,4.34,2.5,6,1.66,1.66,3.67,2.5,6,2.5h4.25v-25.93c0-8.29,2.89-15.32,8.66-21.09,5.77-5.77,12.8-8.66,21.09-8.66s15.32,2.89,21.09,8.66c5.77,5.77,8.66,12.8,8.66,21.09v30.17h-34v8.5h34c2.34,0,4.34-.83,6-2.5,1.66-1.67,2.5-3.67,2.5-6v-5.21c1.35-.64,2.39-1.59,3.13-2.87.74-1.28,1.12-2.62,1.12-4.04v-9.78c0-1.42-.37-2.76-1.12-4.04Z"/>
</svg>