<?xml version="1.0" encoding="UTF-8"?>
<svg id="Layer_1" xmlns="http://www.w3.org/2000/svg" version="1.1" viewBox="0 0 40.34 40.34">
  <!-- Generator: Adobe Illustrator 30.3.0, SVG Export Plug-In . SVG Version: 2.1.3 Build 157)  -->
  <defs>
    <style>
      .st0 {
        fill: #fff9ee;
      }
    </style>
  </defs>
  <path class="st0" d="M40.36,20.17c0,11.15-9.04,20.18-20.18,20.18S-.01,31.32-.01,20.17,9.02-.01,20.17-.01s20.18,9.04,20.18,20.18ZM13.62,11.15c0-1.48-1.2-2.68-2.68-2.68s-2.68,1.2-2.68,2.68,1.2,2.68,2.68,2.68,2.68-1.2,2.68-2.68ZM21.82,14.47h-5.17v15.87h5.17v-9.41c0-.17,1.02-1.53,1.27-1.69,1.35-.81,3.9-.19,3.9,1.32v9.78h5.17v-11.26c0-.15-.75-1.72-.94-2.01-2.04-3.14-6.91-3.61-9.39-.75v-1.85ZM13.33,14.84h-4.8v15.5h4.8v-15.5Z"/>
</svg>