<?xml version="1.0" encoding="UTF-8"?>
<svg id="Layer_1" xmlns="http://www.w3.org/2000/svg" version="1.1" viewBox="0 0 85 93.5">
  <!-- Generator: Adobe Illustrator 30.3.0, SVG Export Plug-In . SVG Version: 2.1.3 Build 157)  -->
  <defs>
    <style>
      .st0 {
        fill: #fff9ee;
      }

      .st1 {
        fill: #ff4848;
      }
    </style>
  </defs>
  <path class="st0" d="M8.5,85c-2.34,0-4.34-.83-6-2.5C.83,80.84,0,78.84,0,76.5V17C0,14.66.83,12.66,2.5,11c1.66-1.66,3.67-2.5,6-2.5h17.85c.92-2.55,2.46-4.6,4.62-6.16,2.16-1.56,4.59-2.34,7.28-2.34s5.12.78,7.28,2.34c2.16,1.56,3.7,3.61,4.62,6.16h17.85c2.34,0,4.34.83,6,2.5s2.5,3.67,2.5,6v28.47c-1.35-.64-2.73-1.19-4.14-1.65-1.42-.46-2.87-.8-4.36-1.01v-25.82H8.5v59.5h25.71c.21,1.56.55,3.05,1.01,4.46s1.01,2.76,1.65,4.04H8.5ZM8.5,72.25v4.25V17v25.82-.32,29.75ZM17,68h17.32c.21-1.49.55-2.94,1.01-4.36s.97-2.8,1.54-4.14h-19.87v8.5ZM17,51h25.92c2.27-2.12,4.8-3.9,7.6-5.31s5.79-2.37,8.98-2.87v-.32H17v8.5ZM17,34h42.5v-8.5H17v8.5ZM38.25,13.81c.92,0,1.68-.3,2.28-.9s.9-1.36.9-2.28-.3-1.68-.9-2.28-1.36-.9-2.28-.9-1.68.3-2.28.9c-.6.6-.9,1.36-.9,2.28s.3,1.68.9,2.28c.6.6,1.36.9,2.28.9Z"/>
  <path class="st1" d="M78.78,57.22c-4.14-4.14-9.16-6.22-15.03-6.22s-10.89,2.07-15.03,6.22c-4.14,4.14-6.22,9.16-6.22,15.03s2.07,10.89,6.22,15.03c4.14,4.14,9.16,6.22,15.03,6.22s10.89-2.07,15.03-6.22c4.14-4.14,6.22-9.16,6.22-15.03s-2.07-10.89-6.22-15.03ZM76.5,74.37h-10.63v10.63h-4.25v-10.63h-10.62v-4.25h10.62v-10.63h4.25v10.63h10.63v4.25Z"/>
</svg>