<?xml version="1.0" encoding="UTF-8"?>
<svg id="Layer_1" xmlns="http://www.w3.org/2000/svg" version="1.1" viewBox="0 0 621.79 194.49">
  <!-- Generator: Adobe Illustrator 30.3.0, SVG Export Plug-In . SVG Version: 2.1.3 Build 157)  -->
  <defs>
    <style>
      .st0 {
        fill: #fff9ee;
      }

      .st1 {
        fill: #ff4848;
      }
    </style>
  </defs>
  <g>
    <path class="st1" d="M89.45,161.19c-8.12,0-15.45-1.91-21.97-5.75-6.52-3.83-11.67-9.15-15.45-15.96-3.78-6.81-5.66-14.56-5.66-23.25s1.89-16.56,5.66-23.25,8.92-11.95,15.45-15.79c6.52-3.83,13.84-5.75,21.97-5.75s15.39,1.92,21.79,5.75c6.41,3.83,11.47,9.1,15.19,15.79,3.72,6.69,5.58,14.44,5.58,23.25s-1.86,16.45-5.58,23.25c-3.72,6.81-8.78,12.13-15.19,15.96-6.41,3.83-13.67,5.75-21.79,5.75ZM89.45,157.93c7.55,0,14.33-1.77,20.34-5.32,6.01-3.54,10.73-8.47,14.16-14.76,3.43-6.29,5.15-13.5,5.15-21.62s-1.72-15.47-5.15-21.71c-3.43-6.23-8.15-11.1-14.16-14.59-6.01-3.49-12.79-5.23-20.34-5.23s-14.3,1.75-20.25,5.23c-5.95,3.49-10.67,8.35-14.16,14.59-3.49,6.24-5.23,13.47-5.23,21.71s1.74,15.33,5.23,21.62c3.49,6.29,8.21,11.21,14.16,14.76,5.95,3.55,12.7,5.32,20.25,5.32ZM129.1,160.68v-32.61l1.72-12.01-1.72-12.01V33.34h3.43v127.34h-3.43Z"/>
    <path class="st1" d="M212.67,161.19c-8.58,0-16.19-1.91-22.82-5.75-6.64-3.83-11.87-9.15-15.7-15.96-3.83-6.81-5.75-14.56-5.75-23.25s1.77-16.56,5.32-23.25c3.54-6.69,8.44-11.95,14.67-15.79,6.23-3.83,13.24-5.75,21.02-5.75s14.79,1.86,21.02,5.58c6.23,3.72,11.15,8.9,14.76,15.53,3.6,6.64,5.41,14.24,5.41,22.82v.86h-80.31v-3.26h78.43l-1.37,2.57c0-7.78-1.66-14.76-4.98-20.94-3.32-6.18-7.81-11.04-13.47-14.59-5.66-3.54-12.16-5.32-19.48-5.32s-13.67,1.77-19.39,5.32c-5.72,3.55-10.21,8.41-13.47,14.59-3.26,6.18-4.89,13.16-4.89,20.94v.69c0,8.12,1.77,15.33,5.32,21.62,3.54,6.29,8.41,11.21,14.59,14.76,6.18,3.55,13.21,5.32,21.11,5.32,5.95,0,11.58-1.14,16.9-3.43,5.32-2.29,9.75-5.72,13.3-10.3l2.4,2.4c-3.89,4.81-8.7,8.44-14.42,10.9-5.72,2.46-11.78,3.69-18.19,3.69Z"/>
    <path class="st1" d="M306.88,161.19c-7.21,0-13.96-1.14-20.25-3.43-6.29-2.29-11.1-5.21-14.42-8.75l2.06-2.75c3.2,3.09,7.66,5.81,13.39,8.15,5.72,2.35,12.13,3.52,19.22,3.52,10.52,0,18.08-1.83,22.65-5.49,4.57-3.66,6.86-8.41,6.86-14.24,0-4.23-1.09-7.58-3.26-10.04-2.17-2.46-5.06-4.35-8.67-5.66-3.6-1.31-7.58-2.37-11.93-3.17-4.35-.8-8.7-1.66-13.04-2.57-4.35-.91-8.32-2.2-11.93-3.86-3.6-1.66-6.49-3.95-8.67-6.86-2.17-2.92-3.26-6.83-3.26-11.76,0-4,1.09-7.72,3.26-11.15,2.17-3.43,5.58-6.23,10.21-8.41,4.63-2.17,10.61-3.26,17.93-3.26,5.49,0,10.92.83,16.3,2.49,5.38,1.66,9.72,3.86,13.04,6.61l-2.06,2.75c-3.55-2.86-7.72-5-12.53-6.44-4.81-1.43-9.73-2.15-14.76-2.15-9.73,0-16.79,1.89-21.19,5.66-4.41,3.78-6.61,8.41-6.61,13.9,0,4.35,1.09,7.81,3.26,10.38,2.17,2.57,5.06,4.55,8.67,5.92,3.6,1.37,7.58,2.46,11.93,3.26,4.35.8,8.67,1.66,12.96,2.57,4.29.92,8.24,2.17,11.84,3.78,3.6,1.6,6.49,3.81,8.67,6.61,2.17,2.8,3.26,6.61,3.26,11.41,0,4.46-1.2,8.44-3.6,11.93-2.4,3.49-6.04,6.21-10.9,8.15-4.86,1.95-11.01,2.92-18.45,2.92Z"/>
    <path class="st1" d="M374.5,47.41c-1.14,0-2.17-.46-3.09-1.37-.92-.91-1.37-1.94-1.37-3.09,0-1.26.46-2.32,1.37-3.17.92-.86,1.94-1.29,3.09-1.29,1.26,0,2.32.43,3.17,1.29.86.86,1.29,1.92,1.29,3.17,0,1.15-.43,2.17-1.29,3.09-.86.92-1.92,1.37-3.17,1.37ZM372.78,160.68v-88.72h3.43v88.72h-3.43Z"/>
    <path class="st1" d="M455.67,157.76c-8.24,0-15.65-1.86-22.22-5.58-6.58-3.72-11.79-8.84-15.62-15.36-3.83-6.52-5.75-13.96-5.75-22.31s1.92-15.93,5.75-22.4c3.83-6.46,9.04-11.52,15.62-15.19,6.58-3.66,13.99-5.49,22.22-5.49s15.76,1.83,22.22,5.49c6.46,3.66,11.55,8.73,15.27,15.19,3.72,6.46,5.58,13.93,5.58,22.4s-1.86,15.79-5.58,22.31c-3.72,6.52-8.81,11.64-15.27,15.36-6.46,3.72-13.87,5.58-22.22,5.58ZM455.67,154.5c7.78,0,14.67-1.69,20.68-5.06,6.01-3.37,10.75-8.09,14.24-14.16,3.49-6.06,5.23-12.98,5.23-20.77s-1.75-14.81-5.23-20.77c-3.49-5.95-8.24-10.61-14.24-13.99-6.01-3.37-12.9-5.06-20.68-5.06s-14.53,1.69-20.59,5.06c-6.07,3.38-10.84,8.04-14.33,13.99-3.49,5.95-5.23,12.87-5.23,20.77s1.74,14.7,5.23,20.77c3.49,6.07,8.26,10.78,14.33,14.16,6.06,3.38,12.93,5.06,20.59,5.06ZM458.25,194.49c-8.01,0-15.5-1.32-22.48-3.95-6.98-2.63-12.59-6.24-16.82-10.81l2.4-2.4c4.57,4.46,10.01,7.89,16.3,10.3,6.29,2.4,13.16,3.6,20.59,3.6,12.81,0,22.28-3.03,28.4-9.1,6.12-6.07,9.18-15.68,9.18-28.83v-28.49l1.72-10.3-1.72-10.3v-32.26h3.43v80.83c0,14.3-3.41,24.83-10.21,31.58-6.81,6.75-17.08,10.12-30.8,10.12Z"/>
    <path class="st1" d="M545.59,160.68v-88.72h3.43v25.23l-.34-.51c2.63-7.78,7.15-13.93,13.56-18.45,6.41-4.52,14.42-6.78,24.03-6.78,7.32,0,13.61,1.4,18.88,4.2,5.26,2.8,9.35,6.95,12.27,12.44,2.92,5.49,4.38,12.24,4.38,20.25v52.34h-3.43v-52.34c0-10.98-2.8-19.33-8.41-25.06-5.61-5.72-13.44-8.58-23.51-8.58-7.78,0-14.47,1.57-20.08,4.72-5.61,3.15-9.9,7.55-12.87,13.21-2.98,5.66-4.46,12.27-4.46,19.82v48.22h-3.43Z"/>
  </g>
  <g>
    <path class="st0" d="M18.49,65.36c-3.84,0-7.14-.71-9.9-2.14-2.76-1.42-4.88-3.53-6.37-6.32-1.48-2.79-2.22-6.22-2.22-10.29v-26.6h1.74v26.6c0,5.58,1.45,9.83,4.36,12.73,2.91,2.91,7,4.36,12.3,4.36,3.78,0,7.03-.8,9.77-2.4,2.73-1.6,4.82-3.85,6.28-6.76,1.45-2.91,2.18-6.25,2.18-10.03v-24.5h1.74v45.08h-1.74v-12.73l.17.26c-1.28,3.9-3.49,6.99-6.63,9.29-3.14,2.3-7.03,3.44-11.69,3.44Z"/>
    <path class="st0" d="M58.42,65.09V20.01h1.74v12.82l-.17-.26c1.34-3.95,3.63-7.08,6.89-9.37,3.26-2.3,7.33-3.44,12.21-3.44,3.72,0,6.92.71,9.59,2.14,2.67,1.43,4.75,3.53,6.23,6.32s2.22,6.22,2.22,10.29v26.6h-1.74v-26.6c0-5.58-1.42-9.82-4.27-12.73-2.85-2.91-6.83-4.36-11.95-4.36-3.95,0-7.35.8-10.2,2.4-2.85,1.6-5.03,3.84-6.54,6.71-1.51,2.88-2.27,6.23-2.27,10.07v24.5h-1.74Z"/>
    <path class="st0" d="M116.68,65.09V.39h1.74v64.7h-1.74Z"/>
    <path class="st0" d="M139.35,7.54c-.58,0-1.1-.23-1.57-.7-.47-.46-.7-.99-.7-1.57,0-.64.23-1.18.7-1.61.46-.44.99-.65,1.57-.65.64,0,1.18.22,1.61.65s.65.97.65,1.61c0,.58-.22,1.1-.65,1.57-.44.47-.97.7-1.61.7ZM138.48,65.09V20.01h1.74v45.08h-1.74Z"/>
    <path class="st0" d="M160.28,65.09V20.01h1.74v12.73l-.17-.26c1.28-3.89,3.52-6.99,6.71-9.29,3.2-2.3,7.15-3.44,11.86-3.44s8.49,1.18,11.51,3.53c3.02,2.35,4.91,5.86,5.67,10.51l-.26-.09c1.1-4.13,3.3-7.48,6.58-10.07,3.28-2.59,7.43-3.88,12.43-3.88,3.6,0,6.71.71,9.33,2.14,2.62,1.43,4.64,3.53,6.06,6.32,1.42,2.79,2.14,6.22,2.14,10.29v26.6h-1.74v-26.6c0-5.58-1.38-9.82-4.14-12.73-2.76-2.91-6.61-4.36-11.55-4.36-3.84,0-7.14.8-9.9,2.4-2.76,1.6-4.88,3.84-6.37,6.71-1.48,2.88-2.22,6.23-2.22,10.07v24.5h-1.74v-26.6c0-5.58-1.38-9.82-4.14-12.73-2.76-2.91-6.61-4.36-11.55-4.36-3.84,0-7.14.8-9.9,2.4-2.76,1.6-4.88,3.84-6.37,6.71-1.48,2.88-2.22,6.23-2.22,10.07v24.5h-1.74Z"/>
    <path class="st0" d="M254.28,7.54c-.58,0-1.1-.23-1.57-.7-.47-.46-.7-.99-.7-1.57,0-.64.23-1.18.7-1.61.46-.44.99-.65,1.57-.65.64,0,1.18.22,1.61.65s.65.97.65,1.61c0,.58-.22,1.1-.65,1.57-.44.47-.97.7-1.61.7ZM253.41,65.09V20.01h1.74v45.08h-1.74Z"/>
    <path class="st0" d="M265.44,21.67v-1.66h25.72v1.66h-25.72ZM285.06,65.36c-3.55,0-6.25-1.02-8.11-3.05-1.86-2.03-2.79-4.71-2.79-8.02V10.16h1.74v43.69c0,3.2.79,5.64,2.35,7.32,1.57,1.69,3.87,2.53,6.89,2.53s5.52-.93,7.5-2.79l1.22,1.22c-1.05,1.1-2.37,1.92-3.97,2.44-1.6.52-3.21.79-4.84.79Z"/>
    <path class="st0" d="M322.74,65.36c-4.36,0-8.23-.97-11.6-2.92-3.37-1.95-6.03-4.65-7.98-8.11-1.95-3.46-2.92-7.4-2.92-11.82s.9-8.42,2.7-11.82c1.8-3.4,4.29-6.07,7.46-8.02,3.17-1.95,6.73-2.92,10.68-2.92s7.51.95,10.68,2.83c3.17,1.89,5.67,4.52,7.5,7.89,1.83,3.37,2.75,7.24,2.75,11.6v.44h-40.81v-1.66h39.85l-.7,1.31c0-3.95-.84-7.5-2.53-10.64-1.69-3.14-3.97-5.61-6.85-7.41-2.88-1.8-6.18-2.7-9.9-2.7s-6.95.9-9.85,2.7c-2.91,1.8-5.19,4.27-6.85,7.41-1.66,3.14-2.49,6.69-2.49,10.64v.35c0,4.13.9,7.79,2.7,10.99,1.8,3.2,4.27,5.7,7.41,7.5,3.14,1.8,6.71,2.7,10.73,2.7,3.02,0,5.89-.58,8.59-1.74,2.7-1.16,4.96-2.91,6.76-5.23l1.22,1.22c-1.98,2.44-4.42,4.29-7.33,5.54-2.91,1.25-5.99,1.88-9.24,1.88Z"/>
    <path class="st0" d="M373.31,65.36c-4.13,0-7.85-.97-11.16-2.92-3.31-1.95-5.93-4.65-7.85-8.11-1.92-3.46-2.88-7.4-2.88-11.82s.96-8.42,2.88-11.82,4.53-6.07,7.85-8.02c3.31-1.95,7.03-2.92,11.16-2.92s7.82.97,11.07,2.92c3.26,1.95,5.83,4.62,7.72,8.02s2.83,7.34,2.83,11.82-.95,8.36-2.83,11.82c-1.89,3.46-4.46,6.16-7.72,8.11-3.26,1.95-6.95,2.92-11.07,2.92ZM373.31,63.7c3.84,0,7.28-.9,10.33-2.7,3.05-1.8,5.45-4.3,7.19-7.5,1.74-3.2,2.62-6.86,2.62-10.99s-.87-7.86-2.62-11.03c-1.74-3.17-4.14-5.64-7.19-7.41-3.05-1.77-6.5-2.66-10.33-2.66s-7.27.89-10.29,2.66c-3.02,1.77-5.42,4.24-7.19,7.41-1.77,3.17-2.66,6.85-2.66,11.03s.89,7.79,2.66,10.99c1.77,3.2,4.17,5.7,7.19,7.5,3.02,1.8,6.45,2.7,10.29,2.7ZM393.46,65.09v-16.57l.87-6.1-.87-6.1V.39h1.74v64.7h-1.74Z"/>
  </g>
</svg>