<?xml version="1.0" encoding="UTF-8"?>
<svg id="Layer_1" xmlns="http://www.w3.org/2000/svg" version="1.1" viewBox="0 0 85 93.5">
  <!-- Generator: Adobe Illustrator 30.3.0, SVG Export Plug-In . SVG Version: 2.1.3 Build 157)  -->
  <defs>
    <style>
      .st0 {
        fill: #fff9ee;
      }

      .st1 {
        fill: #ff4848;
      }
    </style>
  </defs>
  <path class="st0" d="M74.99,22.6l-6.17-6.17,6.17,6.17ZM59.94,31.48l-3.14-3.03,6.17,6.17-3.03-3.14ZM49,85.74c5.34,0,10.29-1.34,14.84-4.01,4.55-2.67,6.82-6.39,6.82-11.15,0-2.6-.69-4.84-2.06-6.71-1.37-1.88-3.21-3.5-5.52-4.87l-6.39,6.39c1.66.72,2.96,1.52,3.9,2.38.94.87,1.41,1.8,1.41,2.82,0,1.66-1.32,3.16-3.95,4.49-2.64,1.34-5.65,2-9.04,2-1.23,0-2.26.42-3.09,1.25-.83.83-1.25,1.86-1.25,3.09s.42,2.26,1.25,3.09c.83.83,1.86,1.25,3.09,1.25ZM8.17,52.6l6.5-6.5c-1.44-.58-2.58-1.17-3.41-1.79s-1.25-1.25-1.25-1.9c0-.87.65-1.73,1.95-2.6,1.3-.87,4.04-2.2,8.23-4.01,6.35-2.74,10.58-5.23,12.67-7.47,2.09-2.24,3.14-4.77,3.14-7.58,0-3.97-1.59-7.13-4.77-9.48-3.18-2.35-7.36-3.52-12.56-3.52-3.25,0-6.15.58-8.72,1.73-2.56,1.16-4.53,2.56-5.9,4.22-.79.94-1.12,1.99-.97,3.14s.69,2.09,1.62,2.82c.94.79,1.99,1.12,3.14.97,1.16-.14,2.13-.61,2.92-1.41,1.01-1.01,2.13-1.73,3.36-2.17,1.23-.43,2.74-.65,4.55-.65,2.96,0,5.14.43,6.55,1.3s2.11,1.88,2.11,3.03c0,1.01-.63,1.93-1.9,2.76-1.26.83-4.17,2.29-8.72,4.39-5.78,2.53-9.78,4.82-12.02,6.88s-3.36,4.6-3.36,7.64c0,2.31.61,4.28,1.84,5.9,1.23,1.62,2.89,3.05,4.98,4.28Z"/>
  <path class="st1" d="M83,19.19c-.43-1.05-1.08-1.97-1.95-2.76l-6.06-6.06c-.79-.87-1.71-1.52-2.76-1.95-1.05-.43-2.15-.65-3.3-.65-1.08,0-2.17.22-3.25.65s-2.06,1.08-2.92,1.95L5.68,67.33v18.41h18.41l56.97-57.07c.87-.87,1.52-1.84,1.95-2.92.43-1.08.65-2.17.65-3.25,0-1.16-.22-2.26-.65-3.3ZM20.41,77.07h-6.06v-6.06L56.8,28.45l3.14,3.03,3.03,3.14-42.56,42.45Z"/>
</svg>