<?xml version="1.0" encoding="UTF-8"?>
<svg id="Layer_1" xmlns="http://www.w3.org/2000/svg" version="1.1" viewBox="0 0 40.34 40.34">
  <!-- Generator: Adobe Illustrator 30.3.0, SVG Export Plug-In . SVG Version: 2.1.3 Build 157)  -->
  <defs>
    <style>
      .st0 {
        fill: #fff9ee;
      }
    </style>
  </defs>
  <path class="st0" d="M40.34,20.17c0,11.14-9.03,20.17-20.17,20.17S0,31.31,0,20.17,9.03,0,20.17,0s20.17,9.03,20.17,20.17ZM11.42,11.3c-1.7.34-2.66,1.74-2.86,3.41-.26,2.19-.3,9.32.03,11.43.25,1.56,1.6,2.62,3.11,2.8,3.55.42,13.44.42,16.99,0,2.04-.24,2.9-1.55,3.13-3.51.27-2.37.29-8.36,0-10.71-.28-2.33-2.05-3.31-4.24-3.51-3.05-.28-13.46-.44-16.17.1Z"/>
  <polygon class="st0" points="17.8 16.75 24.07 20.26 17.8 24.13 17.8 16.75"/>
</svg>