<?xml version="1.0" encoding="UTF-8"?>
<svg id="Layer_1" xmlns="http://www.w3.org/2000/svg" version="1.1" viewBox="0 0 40.34 40.34">
  <!-- Generator: Adobe Illustrator 30.3.0, SVG Export Plug-In . SVG Version: 2.1.3 Build 157)  -->
  <defs>
    <style>
      .st0 {
        fill: #fff9ee;
      }
    </style>
  </defs>
  <path class="st0" d="M40.34,20.17c0,11.14-9.03,20.16-20.16,20.16S0,31.31,0,20.17,9.03,0,20.17,0s20.16,9.03,20.16,20.16ZM7.06,33.36c.5.39,5.79-1.73,6.9-1.74.85,0,3.02,1.17,4.4,1.33,13.52,1.56,20.43-15.36,9.55-23.58C18.07,1.94,4.49,11.51,7.54,23.47c.27,1.08,1.3,2.7,1.32,3.42.03,1.06-2.07,6.26-1.8,6.47Z"/>
  <path class="st0" d="M10.01,30.41c.24-1.03,1.1-2.93,1.07-3.89-.03-.82-1.49-2.72-1.71-4.13-1.31-8.23,4.89-14.74,13.21-13.21,12.72,2.34,11.17,23.69-4.6,21.57-1.21-.16-3.01-1.34-3.65-1.35-.88-.02-3.75,1.44-4.32,1.01ZM17.45,17.54l1.06-.95-1.86-3.36c-6.31.34-2.01,5.92.36,8.52,1.71,1.87,9.58,8.64,9.98,2.54.08-1.17-2.31-2.59-3.21-2.68-.83-.08-1.01,1.48-2.32.88-.61-.28-4.46-4.21-4.01-4.94Z"/>
</svg>