<?xml version="1.0" encoding="UTF-8"?>
<svg id="Layer_1" xmlns="http://www.w3.org/2000/svg" version="1.1" viewBox="0 0 85 93.5">
  <!-- Generator: Adobe Illustrator 30.3.0, SVG Export Plug-In . SVG Version: 2.1.3 Build 157)  -->
  <defs>
    <style>
      .st0 {
        fill: #fff9ee;
      }

      .st1 {
        fill: #ff4848;
      }
    </style>
  </defs>
  <path class="st0" d="M26.73,70.4c-2.17,0-4.02-.77-5.57-2.32-1.54-1.54-2.32-3.4-2.32-5.57V15.21c0-2.17.77-4.02,2.32-5.57,1.54-1.54,3.4-2.32,5.57-2.32h47.31c2.17,0,4.02.77,5.57,2.32s2.32,3.4,2.32,5.57v47.31c0,2.17-.77,4.02-2.32,5.57-1.54,1.54-3.4,2.32-5.57,2.32H26.73ZM26.73,62.52h47.31V15.21H26.73v47.31ZM10.96,86.17c-2.17,0-4.02-.77-5.57-2.32s-2.32-3.4-2.32-5.57V23.1h7.88v55.19h55.19v7.88H10.96ZM26.73,15.21v47.31V15.21Z"/>
  <polygon class="st1" points="45.26 54.83 67.53 32.56 62.01 26.84 45.26 43.6 36.78 35.32 31.26 40.84 45.26 54.83"/>
</svg>