<?xml version="1.0" encoding="UTF-8"?>
<svg id="Layer_1" xmlns="http://www.w3.org/2000/svg" version="1.1" viewBox="0 0 40.34 40.34">
  <!-- Generator: Adobe Illustrator 30.3.0, SVG Export Plug-In . SVG Version: 2.1.3 Build 157)  -->
  <defs>
    <style>
      .st0 {
        fill: #fff9ee;
      }
    </style>
  </defs>
  <path class="st0" d="M40.18,19.93c0,11.14-9.03,20.17-20.17,20.17S-.16,31.07-.16,19.93,8.87-.24,20.01-.24s20.17,9.03,20.17,20.17ZM29.68,29.68c.6-.6,1.14-1.76,1.24-2.63.38-3.15.31-10.81,0-14.05-.24-2.56-2.14-3.96-4.63-4.23-2.51-.27-11.94-.31-14.04.35-1.89.6-2.95,1.95-3.13,3.88-.3,3.25-.37,10.89,0,14.05.2,1.67,1.28,3.26,2.95,3.69,1.95.51,12.65.46,14.97.18.87-.1,2.04-.65,2.63-1.24Z"/>
  <path class="st0" d="M11.83,27.85c-.46-.57-.44-1.22-.49-1.91-.19-2.21-.32-11.44.18-13.13.12-.41.44-.8.73-1.12h15.55c.28.32.61.71.73,1.12.42,1.41.42,11.7.19,13.51-.13,1.01-.86,1.92-1.84,2.21-1.4.42-11.32.41-13.13.18-.56-.07-1.57-.45-1.9-.86ZM26.72,14.46c0-.67-.55-1.22-1.22-1.22s-1.22.55-1.22,1.22.55,1.22,1.22,1.22,1.22-.55,1.22-1.22ZM25.57,19.89c0-3.07-2.49-5.56-5.56-5.56s-5.56,2.49-5.56,5.56,2.49,5.56,5.56,5.56,5.56-2.49,5.56-5.56Z"/>
  <path class="st0" d="M23.18,19.93c0-1.75-1.42-3.17-3.17-3.17s-3.17,1.42-3.17,3.17,1.42,3.17,3.17,3.17,3.17-1.42,3.17-3.17Z"/>
  <circle class="st0" cx="20.01" cy="19.93" r="3.17"/>
</svg>