<?xml version="1.0" encoding="UTF-8"?>
<svg id="Layer_1" xmlns="http://www.w3.org/2000/svg" version="1.1" viewBox="0 0 127.21 93.5">
  <!-- Generator: Adobe Illustrator 30.3.0, SVG Export Plug-In . SVG Version: 2.1.3 Build 157)  -->
  <defs>
    <style>
      .st0 {
        fill: #fff9ee;
      }

      .st1 {
        fill: #ff4848;
      }
    </style>
  </defs>
  <path class="st1" d="M63.61,46.75c4.51,0,8.28-1.55,11.33-4.64s4.57-6.85,4.57-11.26-1.52-8.28-4.57-11.33-6.82-4.57-11.33-4.57-8.17,1.52-11.26,4.57c-3.09,3.05-4.64,6.82-4.64,11.33s1.55,8.17,4.64,11.26c3.09,3.09,6.85,4.64,11.26,4.64ZM59.83,27.07c1.02-1.02,2.27-1.52,3.78-1.52s2.76.51,3.78,1.52c1.02,1.02,1.52,2.27,1.52,3.78s-.51,2.76-1.52,3.78c-1.02,1.02-2.27,1.52-3.78,1.52s-2.76-.51-3.78-1.52c-1.02-1.02-1.52-2.27-1.52-3.78s.51-2.76,1.52-3.78Z"/>
  <path class="st0" d="M28.75,33.9c-2.03-2.03-4.55-3.05-7.55-3.05s-5.41,1.02-7.49,3.05c-2.08,2.03-3.11,4.55-3.11,7.55s1.04,5.41,3.11,7.49c2.08,2.08,4.57,3.11,7.49,3.11s5.52-1.04,7.55-3.11c2.03-2.08,3.05-4.57,3.05-7.49s-1.02-5.52-3.05-7.55Z"/>
  <path class="st0" d="M21.2,57.35c-6.36,0-11.48,1.19-15.37,3.58-3.89,2.39-5.83,5.48-5.83,9.28v8.35h23.85v-8.61c0-2.21.31-4.33.93-6.36.62-2.03,1.55-3.98,2.78-5.83-.97-.18-1.99-.29-3.05-.33s-2.16-.07-3.31-.07Z"/>
  <path class="st0" d="M121.38,60.86c-3.89-2.34-9.01-3.51-15.37-3.51-1.06,0-2.1.02-3.11.07-1.02.04-2.01.15-2.98.33,1.15,1.77,2.01,3.67,2.58,5.7.57,2.03.86,4.2.86,6.49v8.61h23.85v-8.35c0-3.89-1.94-7-5.83-9.34Z"/>
  <path class="st1" d="M86.66,56.03c-2.83-1.77-6.21-3.09-10.14-3.98-3.93-.88-8.24-1.33-12.92-1.33s-8.86.44-12.79,1.33c-3.93.88-7.31,2.21-10.14,3.98-2.83,1.77-5.01,3.82-6.56,6.16-1.55,2.34-2.32,4.92-2.32,7.75v8.61h63.61v-8.61c0-2.83-.75-5.41-2.25-7.75-1.5-2.34-3.67-4.39-6.49-6.16ZM43.07,67.95c.8-1.77,3.2-3.31,7.22-4.64,4.02-1.33,8.46-1.99,13.32-1.99s9.3.66,13.32,1.99c4.02,1.33,6.47,2.87,7.35,4.64h-41.21Z"/>
  <path class="st0" d="M113.56,48.94c2.03-2.08,3.05-4.57,3.05-7.49s-1.02-5.52-3.05-7.55c-2.03-2.03-4.55-3.05-7.55-3.05s-5.41,1.02-7.49,3.05c-2.08,2.03-3.11,4.55-3.11,7.55s1.04,5.41,3.11,7.49c2.08,2.08,4.57,3.11,7.49,3.11s5.52-1.04,7.55-3.11Z"/>
</svg>