<?xml version="1.0" encoding="UTF-8"?>
<svg id="Layer_1" xmlns="http://www.w3.org/2000/svg" version="1.1" viewBox="0 0 304.47 101.2">
  <!-- Generator: Adobe Illustrator 30.3.0, SVG Export Plug-In . SVG Version: 2.1.3 Build 157)  -->
  <defs>
    <style>
      .st0 {
        fill: #fff;
      }

      .st1 {
        fill: none;
      }

      .st2 {
        fill: #fff9ee;
      }

      .st3 {
        fill: #294554;
      }

      .st4 {
        fill: #ff4848;
      }
    </style>
  </defs>
  <path class="st1" d="M140.42,27.65s-.09,0-.13,0c.04,0,.09,0,.13,0h0Z"/>
  <path class="st1" d="M159.75,20.33c-.21,0-.43-.02-.63-.03h0c.21.01.42.02.63.03Z"/>
  <path class="st1" d="M138.8,27.62s0,0,0,0c-.09,0-.17,0-.26,0,0,0,0,0,0,0,.09,0,.17,0,.25,0Z"/>
  <rect class="st1" x="133.37" y="27.38" width="0" height="0"/>
  <path class="st1" d="M162.89,20.1s0,0,0,0c-.3.05-.6.09-.9.13,0,0,0,0,0,0,.3-.03.6-.08.9-.13Z"/>
  <path class="st1" d="M168.67,12.45s-.07,0-.1.02c0,0,0,0,0,0,.03-.01.07-.01.1-.02Z"/>
  <path class="st1" d="M163.88,19.9s0,0,0,0c-.27.06-.54.12-.83.17,0,0,0,0,0,0,.28-.05.56-.11.83-.17Z"/>
  <path class="st1" d="M170.41,8.94c.11,0,.22,0,.33,0,0,0,0,0,0,0-.11,0-.21,0-.32,0Z"/>
  <path class="st1" d="M158.27,9.21s.07,0,.11,0c-.04,0-.07,0-.11,0h0Z"/>
  <path class="st1" d="M165.97,3.14h0s0,0,0,0c.69.54,1.3.91,2.04,1.4-.73-.49-1.35-.86-2.04-1.4,0,0,0,0,0,0Z"/>
  <path class="st1" d="M167.88,8.94s0,0,0,0c.35,0,.7,0,1.04,0,0,0,0,0,0,0-.34,0-.68,0-1.03,0Z"/>
  <path class="st1" d="M147.44,72.32c.31.05.63.09.94.12-.31-.03-.63-.07-.94-.12,0,0,0,0,0,0Z"/>
  <path class="st1" d="M151.45,72.42c.25-.03.49-.05.74-.09,0,0,0,0,0,0-.25.04-.49.06-.73.09Z"/>
  <path class="st1" d="M148.76,72.47h0c.31.02.62.04.93.04,0,0,0,0,0,0-.31,0-.62-.02-.92-.04Z"/>
  <path class="st1" d="M150.04,72.51c.09,0,.18,0,.27,0-.09,0-.18,0-.27,0h0Z"/>
  <path class="st1" d="M150.31,72.51c.15,0,.31-.02.46-.03,0,0,0,0,0,0-.15,0-.31.02-.46.03Z"/>
  <path class="st1" d="M164.83,19.63c-.12.04-.26.08-.39.11.13-.04.27-.07.39-.11,0,0,0,0,0,0Z"/>
  <path class="st1" d="M115.57,91.5c-.13-.24-.3-.43-.53-.58-.23-.14-.52-.22-.87-.22-.44,0-.81.11-1.11.33-.3.22-.52.52-.67.89-.12.3-.18.63-.21.97h3.69c0-.2-.01-.41-.04-.61-.04-.28-.13-.55-.26-.78Z"/>
  <path class="st1" d="M145.25,93.95c.54,0,.96-.16,1.24-.48s.43-.73.43-1.21-.14-.91-.43-1.22-.7-.47-1.24-.47-.94.16-1.24.47-.45.72-.45,1.22.15.89.45,1.21.71.48,1.24.48Z"/>
  <path class="st1" d="M169.2,12.54c-.05-.02-.1-.04-.15-.06,0,0,0,0,0,0,.05.02.1.03.15.06Z"/>
  <path class="st1" d="M175.76,32.24s0,0,0,0c-.07.04-.14.08-.21.12.05-.03.1-.06.15-.09.02-.01.04-.02.05-.03Z"/>
  <path class="st1" d="M135.1,33.95c.47.14.94.28,1.42.42-.47-.14-.94-.28-1.42-.42h0Z"/>
  <path class="st1" d="M166.44,31.5s.03,0,.04.01c-.01,0-.03,0-.04,0,0,0,0,0,0,0Z"/>
  <path class="st1" d="M167.42,31.73s0,0,0,0c.3.06.6.11.91.14,0,0,0,0,0,0-.3-.03-.6-.08-.9-.14Z"/>
  <path class="st1" d="M169.53,31.92s0,0,0,0c.15,0,.3-.01.45-.02,0,0,0,0,0,0-.15.01-.3.02-.45.02Z"/>
  <path class="st1" d="M157.5,27.64s.01-.02.02-.03c0,.01-.01.01-.02.03,0,0,0,0,0,0Z"/>
  <path class="st1" d="M175.22,32.56s-.09.06-.14.08c.03-.02.06-.03.09-.05.02-.01.04-.02.05-.03Z"/>
  <path class="st1" d="M165.36,31.17c.06.02.11.03.17.05-.06-.02-.11-.03-.17-.05,0,0,0,0,0,0Z"/>
  <path class="st1" d="M164.14,30.73s.04.02.06.02c0,0,0,0,0,0-.02,0-.04-.02-.06-.02Z"/>
  <path class="st1" d="M148.48,2.64c-.06-.01-.13-.02-.19-.03,0,0,0,0,0,0,.06,0,.12.01.19.03Z"/>
  <path class="st1" d="M148.19,2.61s-.02,0-.03,0c0,0,.02,0,.03,0h0Z"/>
  <path class="st1" d="M148.76,6.86s.05.05.09.08c-.03-.02-.06-.05-.09-.08,0,0,0,0,0,0Z"/>
  <path class="st1" d="M148.85,2.76s-.06-.02-.1-.04c.03.01.06.02.09.04,0,0,0,0,0,0Z"/>
  <path class="st1" d="M147.51,4.87s.02.07.03.1h0s-.02-.07-.03-.1Z"/>
  <path class="st1" d="M246.43,41.7h-6.02c-1.16,0-2.1.94-2.1,2.1v19.62c0,1.16.94,2.1,2.1,2.1h6.02c7.63,0,12.62-4.55,12.62-11.91s-4.99-11.91-12.62-11.91Z"/>
  <path class="st1" d="M147.97,6.02s0,0,0,0c.11.17.24.33.39.49,0,0,0,0,0,0-.15-.15-.27-.31-.39-.48Z"/>
  <polygon class="st1" points="154.98 3.81 154.97 3.81 154.98 3.81 154.98 3.81"/>
  <path class="st1" d="M147.66,5.37s0,0,0,0c.02.05.04.11.06.16,0,0,0,0,0,0-.02-.05-.04-.1-.06-.16Z"/>
  <rect class="st2" x="211.42" y="34.4" width="8.89" height="38.41" rx="2.1" ry="2.1"/>
  <path class="st2" d="M246.87,34.4h-15.35c-1.16,0-2.1.94-2.1,2.1v34.21c0,1.16.94,2.1,2.1,2.1h15.35c12.56,0,21.18-7.57,21.18-19.2s-8.61-19.2-21.18-19.2ZM246.43,65.51h-6.02c-1.16,0-2.1-.94-2.1-2.1v-19.62c0-1.16.94-2.1,2.1-2.1h6.02c7.63,0,12.62,4.55,12.62,11.91s-4.99,11.91-12.62,11.91Z"/>
  <path class="st2" d="M302.38,65.68h-16.71c-1.16,0-2.1-.94-2.1-2.1v-4.69c0-1.16.94-2.1,2.1-2.1h13.64c1.16,0,2.1-.94,2.1-2.1v-2.72c0-1.16-.94-2.1-2.1-2.1h-13.64c-1.16,0-2.1-.94-2.1-2.1v-4.14c0-1.16.94-2.1,2.1-2.1h15.99c1.16,0,2.1-.94,2.1-2.1v-2.94c0-1.16-.94-2.1-2.1-2.1h-24.83c-1.16,0-2.1.94-2.1,2.1v34.21c0,1.16.94,2.1,2.1,2.1h25.54c1.16,0,2.1-.94,2.1-2.1v-2.94c0-1.16-.94-2.1-2.1-2.1Z"/>
  <path class="st2" d="M32.12,62.73c-.8-.74-2.03-.73-2.84,0-2.33,2.1-5.11,3.17-8.31,3.17-7.19,0-12.29-5.05-12.29-12.29s5.1-12.29,12.29-12.29c3.2,0,5.98,1.07,8.31,3.14.81.72,2.03.72,2.83-.01l2.67-2.46c.89-.82.91-2.24.03-3.07-3.57-3.35-8.51-5.17-14.27-5.17C8.56,33.75-.33,42.03-.33,53.61s8.89,19.86,20.79,19.86c5.82,0,10.77-1.83,14.35-5.23.88-.83.85-2.24-.03-3.06l-2.66-2.46Z"/>
  <path class="st2" d="M62.94,35.65c-.34-.76-1.09-1.24-1.92-1.24h-6.06c-.83,0-1.58.49-1.92,1.24l-15.25,34.21c-.62,1.39.4,2.95,1.92,2.95h4.47c.85,0,1.61-.51,1.94-1.3l2.33-5.64c.32-.78,1.09-1.3,1.94-1.3h15.03c.85,0,1.61.51,1.94,1.3l2.33,5.64c.32.78,1.09,1.3,1.94,1.3h4.69c1.52,0,2.54-1.57,1.92-2.95l-15.3-34.21ZM60.89,57.83h-5.9c-1.5,0-2.51-1.52-1.94-2.9l2.95-7.12c.72-1.73,3.16-1.73,3.88,0l2.95,7.12c.57,1.38-.44,2.9-1.94,2.9Z"/>
  <path class="st2" d="M116.87,48.34c0-8.61-6.42-13.94-16.68-13.94h-14.53c-1.16,0-2.1.94-2.1,2.1v34.21c0,1.16.94,2.1,2.1,2.1h4.69c1.16,0,2.1-.94,2.1-2.1v-6.39c0-1.16.94-2.1,2.1-2.1h5.64c10.26,0,16.68-5.32,16.68-13.88ZM94.55,54.98c-1.16,0-2.1-.94-2.1-2.1v-9.14c0-1.16.94-2.1,2.1-2.1h5.14c5.43,0,8.17,2.47,8.17,6.69s-2.74,6.64-8.17,6.64h-5.14Z"/>
  <path class="st3" d="M151.13,40.41c-.08-.06-.16-.11-.24-.15.08.05.16.1.24.15Z"/>
  <path class="st3" d="M150.67,40.12s.07.04.11.07c-.03-.02-.06-.04-.08-.05,0,0-.02,0-.03-.01Z"/>
  <path class="st3" d="M148.74,39.07c.62.32,1.23.65,1.84,1,.01,0,.03.02.04.02-.01,0-.03-.02-.04-.02-.61-.35-1.22-.68-1.84-1Z"/>
  <path class="st3" d="M150.6,41.34s0,0,0,0c-.02,0-.03,0-.05-.02h0s.03,0,.05.02Z"/>
  <polygon class="st3" points="150.91 41.42 150.91 41.42 150.9 41.42 150.9 41.42 150.91 41.42"/>
  <path class="st3" d="M151.4,41.44s0,0,0,0c-.02,0-.04,0-.06,0,0,0,0,0,0,0,.02,0,.04,0,.05,0Z"/>
  <path class="st2" d="M139.4,72.84c1.16.02,2.11-.91,2.13-2.07l.14-10.92c0-.38.11-.75.31-1.08l3.71-5.98c.82-3.07,0-8.57-.57-11.16-.12-.56-.87-.69-1.18-.2l-4.39,7.09c-.83,1.35-2.8,1.32-3.6-.05l-6.46-11.06s-.03,0-.05,0c-1.54,0-2.81-.6-3.9-1.84-.12-.13-.21-.27-.28-.42-.3-.15-.66-.4-.92-.83-.01-.02-.03-.05-.04-.07l-2.35-.03c-1.63-.02-2.66,1.75-1.84,3.16l12.38,21.17c.19.33.29.7.29,1.09l-.14,11.03c-.02,1.16.91,2.11,2.07,2.13l4.69.06Z"/>
  <path class="st3" d="M151.23,41.46h0s-.03,0-.05,0c0,0,0,0,0,0,.02,0,.03,0,.05,0Z"/>
  <path class="st2" d="M135.11,86.27c-.3,0-.54.08-.71.24-.17.16-.26.38-.26.65s.09.51.26.67c.17.17.41.25.71.25s.53-.08.7-.25c.17-.17.26-.39.26-.67s-.09-.49-.26-.65c-.17-.16-.4-.24-.7-.24Z"/>
  <path class="st2" d="M222.74,86.27c-.3,0-.54.08-.71.24-.17.16-.26.38-.26.65s.09.51.26.67c.17.17.41.25.71.25s.53-.08.7-.25c.17-.17.26-.39.26-.67s-.09-.49-.26-.65c-.17-.16-.4-.24-.7-.24Z"/>
  <g>
    <path class="st2" d="M103.42,87.86c-.75-.41-1.64-.62-2.66-.62h-3.07v10.04h3.07c1.02,0,1.91-.21,2.66-.62.75-.42,1.34-1,1.76-1.75.42-.75.63-1.63.63-2.65s-.21-1.91-.63-2.66c-.42-.75-1.01-1.33-1.76-1.75ZM103.78,94.17c-.28.56-.67,1-1.19,1.32-.51.32-1.13.48-1.84.48h-1.58v-7.37h1.58c.71,0,1.33.16,1.84.47.51.32.91.75,1.19,1.3s.42,1.19.42,1.9-.14,1.34-.42,1.9Z"/>
    <path class="st2" d="M117.21,92.19c-.1-.51-.27-.97-.53-1.37-.26-.4-.6-.72-1.02-.96s-.93-.36-1.51-.36c-.66,0-1.25.16-1.77.48-.53.32-.94.78-1.25,1.38-.31.6-.46,1.31-.46,2.15,0,.79.15,1.48.46,2.08s.72,1.07,1.25,1.4c.53.34,1.11.5,1.77.5.56,0,1.07-.1,1.51-.3.44-.2.81-.49,1.09-.86.28-.37.47-.8.54-1.29h-1.53c-.07.41-.25.72-.53.92s-.65.31-1.08.31-.82-.11-1.11-.33c-.29-.22-.51-.52-.66-.89-.15-.37-.22-.8-.22-1.29h5.1c.06-.54.05-1.07-.05-1.58ZM112.18,92.9c.02-.35.08-.67.21-.97.15-.37.38-.67.67-.89.3-.22.67-.33,1.11-.33.35,0,.64.07.87.22.23.14.41.34.53.58s.21.5.26.78c.03.2.04.41.04.61h-3.69Z"/>
    <path class="st2" d="M126.73,93.24l-1.63-.58c-.78-.22-1.17-.56-1.17-1.01,0-.25.13-.48.39-.68.26-.2.62-.3,1.08-.3.49,0,.86.08,1.12.24.26.16.41.39.45.69h1.44c-.02-.6-.29-1.11-.81-1.51-.52-.4-1.25-.6-2.2-.6s-1.66.19-2.22.57c-.56.38-.84.88-.84,1.51,0,.49.17.91.5,1.26.33.35.81.63,1.43.84l1.55.53c.42.12.73.25.91.4.19.15.28.35.28.61,0,.21-.07.39-.22.55-.14.16-.34.29-.58.39-.24.09-.52.14-.82.14-.56,0-1.01-.1-1.34-.32-.33-.21-.5-.53-.52-.97h-1.41c.01.5.15.93.41,1.3.27.37.65.66,1.16.87.5.21,1.12.31,1.86.31.63,0,1.17-.11,1.64-.33.46-.22.83-.5,1.08-.85.26-.35.39-.71.39-1.1,0-.48-.17-.88-.5-1.2s-.82-.57-1.43-.77Z"/>
    <rect class="st2" x="134.36" y="89.68" width="1.5" height="7.61"/>
    <path class="st2" d="M148.86,96.79c-.43-.3-1.03-.45-1.78-.45h-2.77c-.49,0-.83-.07-1.02-.22-.19-.15-.29-.34-.29-.56,0-.19.05-.36.15-.49.1-.13.23-.23.38-.3.07-.03.14-.05.21-.07.46.2.97.31,1.52.31s1.1-.11,1.57-.34.86-.55,1.14-.96c.29-.41.43-.9.43-1.45s-.14-1.04-.43-1.45c-.04-.06-.09-.11-.13-.17.02-.35.13-.61.36-.78.24-.18.6-.28,1.07-.28l.09-1.46c-.44,0-.82.09-1.16.28-.34.19-.6.45-.79.79-.14.25-.23.52-.26.83-.1-.07-.21-.13-.33-.18-.48-.23-1-.34-1.57-.34s-1.12.11-1.6.34c-.48.23-.86.55-1.15.96-.28.41-.43.9-.43,1.45s.14,1.03.43,1.45c.14.2.3.38.48.53-.11.03-.22.05-.32.09-.29.12-.53.29-.71.52-.18.23-.27.5-.27.82s.11.61.33.88c.16.19.37.36.62.49-.34.07-.64.19-.9.38-.41.3-.62.74-.62,1.3,0,.45.16.86.48,1.24.32.38.78.68,1.37.91.59.23,1.3.34,2.12.34.91,0,1.69-.15,2.35-.45s1.17-.69,1.53-1.16.54-.97.54-1.49c0-.57-.22-1.01-.65-1.31ZM144.01,91.04c.3-.31.71-.47,1.24-.47s.96.16,1.24.47.43.72.43,1.22-.14.89-.43,1.21-.7.48-1.24.48-.94-.16-1.24-.48-.45-.73-.45-1.21.15-.91.45-1.22ZM147.65,99.07c-.24.28-.58.5-1.02.67-.44.17-.95.26-1.54.26-.8,0-1.42-.13-1.85-.38-.43-.26-.65-.58-.65-.97s.15-.68.45-.9c.3-.22.72-.33,1.27-.33h2.77c.32,0,.55.08.71.22.16.15.23.33.23.55,0,.32-.12.61-.36.89Z"/>
    <path class="st2" d="M159.98,89.91c-.42-.27-.94-.41-1.55-.41s-1.16.16-1.61.49c-.36.27-.65.64-.88,1.11l-.17-1.4h-1.3v7.58h1.5v-3.5c0-.63.08-1.17.26-1.6.17-.44.41-.77.73-1,.31-.23.68-.34,1.1-.34.53,0,.95.17,1.27.51s.47.84.47,1.49v4.45h1.49v-4.45c0-.68-.11-1.27-.33-1.77-.22-.5-.54-.89-.97-1.16Z"/>
    <path class="st2" d="M179.1,91.88l-2.13-.78c-.45-.16-.78-.33-1-.53s-.32-.45-.32-.78c0-.39.17-.72.5-.98s.8-.39,1.4-.39,1.09.13,1.42.38c.33.25.53.59.6,1.02h1.47c-.08-.85-.42-1.52-1.01-2.02-.59-.49-1.42-.74-2.49-.74-1.12,0-2,.25-2.62.75-.62.5-.93,1.14-.93,1.94,0,.7.21,1.24.63,1.64.42.39,1.03.74,1.84,1.04l1.87.69c.48.16.84.36,1.08.6.24.23.35.54.35.93,0,.28-.09.54-.27.76-.18.22-.44.4-.77.53s-.71.2-1.14.2-.81-.07-1.17-.2c-.35-.13-.63-.34-.85-.62-.21-.28-.32-.64-.32-1.07h-1.47c.02.73.2,1.33.55,1.81.35.48.81.85,1.38,1.09s1.2.37,1.88.37c.81,0,1.51-.12,2.07-.37.57-.25,1-.59,1.29-1.03.29-.44.44-.94.44-1.51,0-.67-.21-1.23-.61-1.66-.41-.44-.98-.78-1.71-1.04Z"/>
    <path class="st2" d="M190.42,96.23c-.19.05-.39.07-.6.07-.67,0-1-.36-1-1.07v-4.5h2.25v-1.02h-2.25v-2.07h-1.49v2.07h-1.16v1.02h1.16v4.55c0,.5.1.91.3,1.24.2.33.48.57.82.74.35.16.74.24,1.17.24.29,0,.58-.04.85-.11.27-.08.55-.17.82-.29l-.21-1.06c-.25.09-.47.16-.66.2Z"/>
    <path class="st2" d="M201.5,93.35c0,.57-.09,1.06-.28,1.47-.19.42-.44.74-.77.96-.33.23-.71.34-1.14.34-.51,0-.91-.15-1.19-.44s-.42-.73-.42-1.3v-4.7h-1.5v4.83c0,.68.12,1.23.37,1.66.24.43.58.74,1.02.95.43.21.93.31,1.49.31s1.09-.16,1.53-.47c.37-.27.67-.65.9-1.12v1.45h1.51v-7.61h-1.51v3.67Z"/>
    <path class="st2" d="M214.14,90.74c-.21-.35-.47-.63-.79-.84-.42-.27-.9-.41-1.46-.41-.61,0-1.16.16-1.66.48s-.9.78-1.2,1.38-.45,1.3-.45,2.1.15,1.52.46,2.12c.31.6.72,1.07,1.24,1.4s1.09.5,1.71.5c.49,0,.94-.13,1.35-.4.36-.24.66-.59.89-1.03l.18,1.23h1.25v-10.78h-1.51v4.23ZM214.14,94c0,.44-.1.82-.29,1.14s-.44.57-.73.74c-.3.17-.61.26-.93.26-.39,0-.74-.11-1.06-.32-.32-.22-.57-.52-.76-.93-.19-.4-.28-.88-.28-1.42s.09-1.01.28-1.4c.19-.39.44-.69.76-.91.32-.21.67-.32,1.07-.32.34,0,.65.08.95.24.29.16.53.4.72.72.18.32.28.71.28,1.16v1.03Z"/>
    <rect class="st2" x="221.99" y="89.68" width="1.5" height="7.61"/>
    <path class="st2" d="M234.61,89.95c-.54-.3-1.15-.45-1.83-.45s-1.31.15-1.85.45c-.54.3-.97.74-1.29,1.34-.32.59-.47,1.33-.47,2.22s.16,1.61.47,2.2c.32.59.75,1.04,1.29,1.34.54.3,1.16.45,1.85.45s1.29-.15,1.83-.45.97-.75,1.28-1.34.47-1.33.47-2.2-.16-1.63-.47-2.22-.74-1.04-1.28-1.34ZM234.6,94.95c-.17.4-.42.71-.73.92s-.7.32-1.13.32c-.66,0-1.16-.24-1.51-.71s-.53-1.13-.53-1.98c0-.58.09-1.07.26-1.47.17-.4.41-.71.73-.92.32-.21.7-.32,1.14-.32.66,0,1.16.24,1.51.71.35.47.52,1.14.52,2,0,.56-.09,1.05-.26,1.45Z"/>
  </g>
  <path class="st2" d="M194.72,34.98c-3.07-1.17-5.83-1.69-8.26-1.69-5.65,0-9.49,2.85-11.12,7.12-5.07,13.33,17.56,16.66,15,23.38-.51,1.34-1.69,2.19-3.65,2.23-.02.17-.04.34-.07.51-.05.41-.11.81-.18,1.23-.04.27-.08.54-.13.82-.12.71-.25,1.42-.4,2.15-.07.37-.17.71-.28,1.05,1.39.1,2.83.22,4.28.83.13.06.27.12.41.18.06.03.13.06.19.09.07.04.15.07.22.11.02.01.05.03.07.04,3.98-.85,6.73-3.35,8.02-6.72,5.01-13.18-17.59-16.56-15.08-23.17.56-1.46,1.85-2.45,4.03-2.45,1.18,0,2.62.29,4.35.94,2.6.99,5.13,2.66,7.4,4.97.41.42.96.63,1.5.63s1.12-.22,1.53-.67l2.14-2.29c.75-.81.75-2.07,0-2.87-2.55-2.7-6.15-4.96-9.97-6.41Z"/>
  <path class="st3" d="M179.07,71.34s.08,0,.12,0c0,0,0,0,0,0-.04,0-.08,0-.11,0Z"/>
  <path class="st3" d="M172.55,67.64s0,0,0,0c.05.01.1.03.14.04,0,0,0,0,0,0-.05-.01-.09-.03-.14-.04Z"/>
  <path class="st3" d="M174.79,68.42s0,0,0,0c.11.05.22.09.33.14,0,0,0,0,0,0-.11-.05-.22-.09-.33-.14Z"/>
  <path class="st3" d="M180.24,71.31s0,0,0,0c.13,0,.26-.02.4-.02,0,0,0,0,0,0-.13,0-.26.02-.39.02Z"/>
  <path class="st3" d="M173.66,67.98s0,0,0,0c.11.04.23.08.34.12,0,0,0,0,0,0-.11-.04-.23-.08-.34-.12Z"/>
  <path d="M191.42,75.53c-.32-.4-.76-.74-1.24-1.02-.19-.11-.39-.21-.59-.31-.1-.05-.2-.09-.3-.13-.93-.39-1.9-.55-2.89-.64-.74-.07-1.48-.1-2.21-.18-.25-.02-.49-.05-.73-.09.06-.23.13-.46.21-.69.24-.69.52-1.37.66-2.09.75-3.69,1.18-7.27,1.15-10.9,0-.17,0-.34-.01-.51-.35-.25-.73-.51-1.12-.78.02.18.04.36.05.55.15,1.66-.02,3.37-.02,5.12,0,1.56-.11,2.89-.5,4.25-.23.81-.47,1.62-.66,2.48-.03.14-.07.28-.1.43-.41.06-.83.11-1.24.16,0,0,0,0,0,0-.12.01-.24.02-.36.04,0,0,0,0,0,0-.3.03-.6.05-.9.07-.13,0-.26.02-.4.02-.35.02-.7.03-1.05.03-.04,0-.08,0-.12,0-.03,0-.05,0-.08,0h0s-.03,0-.05,0c-.42,0-.85-.01-1.27-.04,0,0-.01,0-.02,0-.61-.77-.45-1.69-1.46-2.23,0,0,0,0,0,0-.35-.19-.71-.36-1.07-.52-.11-.05-.22-.09-.33-.14-.26-.11-.53-.22-.79-.31-.11-.04-.23-.08-.34-.12-.2-.07-.4-.13-.6-.19-.12-.04-.24-.08-.36-.11-.05-.01-.1-.03-.14-.04,0,0-.02,0-.03,0-.37-.1-.74-.19-1.12-.27-.01,0-.02,0-.04,0-.38-.08-.76-.14-1.14-.2-.12-.02-.23-.04-.35-.05-.31-.04-.61-.08-.92-.11-.08,0-.16-.02-.24-.03-.38-.03-.77-.06-1.15-.08-.11,0-.22,0-.32-.01-.29,0-.57-.02-.86-.02-.13,0-.26,0-.39,0-.32,0-.64,0-.96.02-.09,0-.17,0-.26,0-.39.02-.79.04-1.18.06-.12,0-.25.02-.37.03-.29.02-.58.05-.87.07-.13.01-.26.02-.39.04-.38.04-.75.08-1.12.12-.02,0-.03,0-.05,0-.45.05-.86.12-1.25.2-1.73.35-2.98.95-4.13,1.82-.91.69-1.75,1.54-2.72,2.55-.16.17-.33.35-.51.53-.25.04-.49.06-.74.09-.11.01-.23.03-.34.04,0,0,0,0,0,0-.11,0-.22.01-.33.02-.15,0-.31.02-.46.03,0,0,0,0,0,0-.09,0-.18,0-.27,0-.06,0-.12,0-.18,0-.06,0-.11,0-.17,0-.31,0-.62-.02-.93-.04-.07,0-.14,0-.21-.01,0,0,0,0-.01,0-.05,0-.1-.01-.16-.02-.31-.03-.63-.07-.94-.12-.09-.02-.19-.03-.29-.05,0,0,0,0,0,0-.23-.04-.46-.09-.7-.14-.06-.01-.11-.03-.17-.04-.11-.02-.21-.05-.32-.08-.38-.09-.75-.19-1.13-.31h0s0,0,0,0c0-.05,0-.11,0-.16-.03-.64-.09-1.27-.12-1.89-.05-.9-.05-1.8.15-2.71.26-1.17.58-2.34.93-3.52.98-3.33,2.22-6.7,3.09-10.08.26-1.01.48-2.01.65-3.02,0-.03.01-.05.01-.08.06-.34.11-.68.16-1.02.21-1.54.3-3.07.19-4.6-.06-.89-.33-1.65-.61-2.41-.19-.51-.4-1.03-.56-1.57-.01-.05-.03-.09-.04-.14.07.02.15.05.24.09.01,0,.03.01.04.02.08.04.17.08.26.12.02,0,.04.02.06.03.1.05.2.1.3.15.1.05.19.09.29.14.02,0,.03.01.05.02.1.05.2.09.3.14.02,0,.04.02.06.03.1.04.2.08.3.12.02,0,.03,0,.05.02.04.01.08.02.12.03.06.02.12.04.17.05,0,0,0,0,0,0,0,0,0,0,0,0,.09.02.18.03.26.03.02,0,.03,0,.05,0,.04,0,.08,0,.12-.01.02,0,.04,0,.06,0,.05-.01.11-.03.15-.05.04-.02.08-.05.11-.07.1-.08.11-.18.08-.28-.03-.08-.08-.16-.16-.25,0,0,0,0,0,0-.05-.05-.11-.11-.17-.16-.03-.02-.06-.05-.09-.07-.06-.05-.12-.09-.19-.14,0,0,0,0,0,0-.08-.06-.16-.11-.24-.15-.04-.02-.07-.04-.11-.06-.04-.02-.08-.05-.11-.07-.01,0-.03-.02-.04-.02,0,0-.01,0-.02-.01-.01,0-.03-.02-.04-.02-.61-.35-1.22-.68-1.84-1-1.44-.74-2.92-1.4-4.42-2.01-.66-.27-1.32-.52-1.99-.77-1.91-.7-3.85-1.33-5.82-1.92-.47-.14-.94-.28-1.42-.42h0s0,0,0,0c.11-2.5-.55-4.39-1.73-6.56h0,0s0,0,0,0c.09,0,.18,0,.27.01,1.28.06,2.95.14,4.08.19,0,0,0,0,0,0,.28.01.55.02.82.03.09,0,.17,0,.26,0,.18,0,.36,0,.53.01.1,0,.2,0,.3,0,.16,0,.32,0,.47,0,.06,0,.12,0,.17,0,.04,0,.09,0,.13,0,.15,0,.31,0,.46,0,.09,0,.18,0,.27,0,.34,0,.68,0,1.03,0,.07,0,.13,0,.2,0,.36,0,.71,0,1.08-.02.77-.01,1.35.02,2.08-.19-.18-4.38.42-8.61,1.17-12.92.05-.05.1-.1.15-.16,1.23-.18,2.46-.37,3.68-.56s2.46-.38,3.68-.57c.03.17.06.34.08.51,0,.07.02.13.02.2,0,.07.02.14.03.21,0,.04,0,.07.01.11.02.17.04.34.05.5s.04.33.06.5c.09.67.22,1.32.53,1.98.1.23.18.44.25.64.03.09.06.18.09.27.04.14.08.27.13.4.04.13.09.25.15.36.04.08.08.15.13.22.01.02.02.04.04.05.05.07.11.14.17.2.06.05.12.11.19.16.02.02.05.03.07.05.05.03.11.07.17.1.03.02.06.03.09.05.06.03.13.06.21.09.03.01.06.03.1.04.11.04.23.08.36.12,0,0,0,0,0,0,.25.07.52.13.8.17.09.02.18.03.27.04.2.03.4.05.6.07.1,0,.21.02.31.03.21.01.42.02.63.03.1,0,.19,0,.29,0,.29,0,.57,0,.86-.02.06,0,.12,0,.17,0,.31-.02.61-.04.92-.07,0,0,0,0,0,0,0,0,0,0,0,0,.3-.03.6-.08.9-.13.03,0,.05,0,.08-.01.03,0,.06,0,.09-.01.28-.05.56-.11.83-.17.02,0,.04-.01.06-.02.03,0,.06-.02.09-.02.14-.04.27-.08.41-.12.13-.04.27-.07.39-.11.1-.03.19-.07.27-.11s.15-.07.21-.11c.18-.12.28-.25.36-.42.04-.08.07-.18.11-.28.04-.1.08-.21.12-.34.08-.2.15-.41.21-.63.07-.22.13-.45.19-.69.12-.47.23-.96.36-1.44.25-.96.56-1.88,1.08-2.49.1-.12.2-.22.29-.31,0,0,.01-.01.02-.02.09-.08.17-.14.24-.2,0,0,.02-.01.02-.02,0,0,.01,0,.02-.01.07-.04.13-.07.2-.1,0,0,0,0,0,0,0,0,.02,0,.03-.01.03-.01.07-.01.1-.02.03,0,.07-.02.1-.02,0,0,0,0,0,0,0,0,.01,0,.02,0,0,0,0,0,.01,0h0c.07,0,.15.01.23.04,0,0,0,0,0,0,0,0,.02,0,.03,0,.05.02.1.04.15.06.03.01.06.03.09.04,0,0,.01,0,.02.01.09.05.18.1.28.16,0,0,.01,0,.02,0,.1.06.21.13.33.21.17.11.35.22.52.32.44.28.88.56,1.32.84.04.03.09.06.13.08.22.14.43.29.65.44.15.1.3.2.45.31.05.04.11.07.17.11.21.15.41.31.62.47.13.1.27.2.4.3.06.05.12.09.18.14.29.24.58.49.86.75.18.17.36.34.53.51.09.09.18.17.26.26.15.16.3.33.44.5.67.79,1.25,1.66,1.73,2.65.12.24.22.49.33.75s.19.51.27.76c.38,1.2.5,2.34.36,3.39-.08.63-.25,1.23-.51,1.8-.66,1.44-1.87,2.67-3.62,3.66.18-.62.33-1.22.43-1.83s.15-1.22.14-1.84c0-.23-.02-.47-.05-.7-.02-.19-.04-.37-.07-.56,0,0,0,0,0,0,0-.05-.02-.09-.03-.14,0-.01,0-.02,0-.03-.01-.04-.03-.08-.05-.11,0,0,0,0,0-.01-.02-.03-.04-.05-.07-.07,0,0-.01,0-.02-.01-.03-.02-.06-.03-.1-.03,0,0-.02,0-.02,0-.04,0-.09.01-.14.04,0,0,0,0,0,0-.02.04-.03.09-.05.13-.26.66-.37,1.43-.5,2.18-.23,1.33-.52,2.62-1.88,3.23-.26.11-.51.21-.77.29-.08.03-.16.04-.25.07-.17.05-.35.1-.52.14-.1.02-.2.04-.3.05,0,0,0,0-.01,0-.15.03-.3.05-.45.07,0,0,0,0,0,0-.11.01-.21.02-.32.03-.15.01-.3.02-.45.02-.05,0-.1,0-.15,0-.04,0-.09,0-.13,0,0,0,0,0,0,0-.27,0-.53-.02-.8-.04,0,0,0,0,0,0-.04,0-.08,0-.12,0-.3-.03-.6-.08-.91-.14-.08-.02-.16-.03-.24-.05,0,0,0,0,0,0-.23-.05-.46-.11-.69-.17-.01,0-.03,0-.04-.01-.06-.02-.13-.03-.19-.05,0,0,0,0,0,0-.24-.07-.48-.14-.72-.22-.06-.02-.11-.03-.17-.05-.07-.02-.14-.05-.21-.07,0,0,0,0,0,0-.24-.08-.48-.17-.72-.26,0,0,0,0,0,0-.07-.03-.15-.06-.22-.08-.02,0-.04-.02-.06-.02-.25-.1-.5-.19-.75-.29,0,0-.02,0-.03-.01-.01,0-.02,0-.03-.01-.07-.03-.14-.06-.22-.09-.28-.11-.56-.23-.84-.34-.3-.12-.6-.24-.9-.36,0,0-.02,0-.03-.01-1.41-.55-2.19-1.49-3.51-1.97-.05-.02-.09-.04-.13-.06-.01,0-.02-.01-.04-.02-.03-.01-.05-.02-.07-.03-.01,0-.03,0-.04,0,0,0-.01,0-.02,0-.01,0-.02.03-.03.05,0,.01-.01.01-.02.03-.09.31.07.62.31.9.08.09.17.18.26.26.39.34.87.61,1.08.73.72.42,1.43.82,2.15,1.2.05.03.11.06.16.08,0,0,0,0,.01,0,.38.19.75.38,1.13.56.2.09.4.18.6.26.18.08.36.16.54.24.09.04.19.07.28.11.37.15.74.29,1.12.43.17.06.35.12.52.18.32.11.65.21.97.3.49.14.98.27,1.48.37.24.05.47.09.71.14.2.03.39.07.59.1.44.06.88.12,1.33.16.42.03.85.06,1.28.07.13,0,.26-.01.38-.03.08,0,.17,0,.26-.02.12-.02.23-.05.35-.08.07-.02.15-.03.22-.05.12-.04.23-.08.35-.13.06-.02.13-.04.19-.07.12-.05.24-.11.35-.17.05-.03.11-.05.16-.08.12-.07.25-.14.37-.21.04-.03.09-.05.13-.07.1-.06.2-.12.29-.18.05-.03.09-.06.14-.08.11-.07.22-.13.33-.19.07-.04.14-.08.21-.12.16-.09.32-.18.49-.26.1-.05.2-.1.3-.16.97-.53,1.61-1.16,2.15-1.9.18-.25.35-.52.51-.8.03-.05.05-.09.08-.14.16-.27.31-.56.47-.86.07-.13.13-.25.2-.38.29,0,.57.01.86.02,2,.05,3.91.13,6.03.13,0,0,.02,0,.02,0,.07,0,.14,0,.22-.01.05,0,.1,0,.15-.01.07,0,.13-.01.21-.02.07,0,.14-.01.21-.02.04,0,.09,0,.13,0,.07,0,.13,0,.2,0,.03,0,.05,0,.08,0,.02,0,.05,0,.07,0,.04,0,.08,0,.12,0,.06,0,.11,0,.17.02.04,0,.07,0,.11.02.06.01.12.03.17.04.03,0,.06.02.09.03.08.03.16.07.23.12,0,0,0,0,0,0,.03.02.06.06.1.1.01.01.02.03.03.04.03.04.06.08.08.12,0,.01.01.02.02.03,0,0,0,.01.01.02.04.06.07.12.1.18.03.06.06.12.08.16.15.4.27.79.37,1.17.05.19.09.38.13.58.1.52.16,1.03.18,1.56,1.65.3,3.37.78,5.15,1.45.71.27,1.4.57,2.09.89.34-.25.76-.35.95-.93.22-.71.1-1.77-.25-2.5.45,0,.89-.02,1.33-.03,1.32-.04,2.62-.12,3.95-.36.46-.61.84-1.18.85-1.67,0-.06,0-.12-.02-.18-.07-.35-.37-.66-1.03-.91-.11-.04-.23-.08-.36-.12-.26-.07-.51-.14-.77-.2-.08-.02-.17-.04-.25-.05-.18-.04-.36-.08-.53-.11-.1-.02-.2-.03-.29-.05-.17-.03-.34-.06-.51-.08-.1-.01-.2-.03-.3-.04-.18-.02-.36-.04-.54-.06-.09,0-.18-.02-.26-.03-.24-.02-.48-.04-.72-.06-.03,0-.06,0-.09,0-.27-.02-.54-.03-.82-.04-.09,0-.17,0-.26,0-.19,0-.38-.01-.57-.01-.1,0-.21,0-.31,0-.18,0-.35,0-.53,0-.08,0-.17,0-.25,0-.64,0-1.28,0-1.93.02-.65,0-1.31.02-1.96.02-.01,0-.03,0-.04,0,0,0-.01,0-.02,0-.26,0-.51,0-.77,0-3.52-.05-7.31-.17-10.88-.28.1-2.53-.18-4.83-1.02-7.21.08-.1.17-.18.24-.25.19-.17.35-.27.48-.56.03-.06.05-.12.07-.2.28-.9.5-1.89.66-2.91.11-.68.18-1.37.23-2.05.02-.34.04-.68.05-1.01.01-.33.01-.66.01-.98s-.01-.63-.03-.93c-.01-.24-.04-.43-.09-.58-.03-.1-.07-.19-.11-.26-.02-.04-.05-.07-.07-.1-.08-.09-.17-.15-.27-.19-.24-.1-.54-.12-.89-.17-.66-.1-1.31-.16-1.95-.2-.64-.04-1.28-.05-1.91-.06-.63-.01-1.27-.02-1.9-.04-.64-.02-1.28-.06-1.93-.13-.92-1.14-1.88-2.24-2.81-3.39.08-.16.15-.32.21-.48s.12-.33.17-.51c.07-.26.12-.52.14-.77,0-.09.01-.17.01-.26,0-.09,0-.17,0-.25,0-.08-.02-.17-.03-.25-.04-.25-.12-.49-.23-.71-.12-.23-.28-.44-.48-.63,0,0,0,0,0,0-.12-.11-.24-.21-.35-.29-.03-.03-.07-.05-.1-.07-.08-.06-.17-.1-.25-.15-.03-.02-.07-.04-.1-.05-.1-.04-.19-.08-.28-.1,0,0-.02,0-.03,0-.1-.02-.2-.04-.29-.04-.03,0-.05,0-.08,0-.07,0-.14.01-.21.03-.03,0-.06.01-.08.02-.08.02-.16.05-.23.09,0,0-.02,0-.03.01-.08.05-.16.1-.24.16-.02.02-.04.04-.07.06-.06.05-.11.1-.16.16-.02.02-.04.05-.06.07-.06.08-.13.16-.19.25,0,0,0,.01-.01.02-.06.1-.12.2-.18.31-.02.03-.03.07-.05.1-.04.08-.08.17-.12.26-.02.04-.03.07-.05.11-.05.12-.1.24-.15.37-.39-.09-.77-.16-1.15-.23-.1-.02-.2-.03-.3-.05-.32-.05-.65-.1-.97-.14-.06,0-.11-.02-.17-.02-.37-.04-.73-.07-1.09-.09-.09,0-.18,0-.27-.01-.3-.01-.59-.02-.88-.02-.08,0-.16,0-.24,0-.32,0-.65,0-.97.02-.04,0-.08,0-.13,0-.28.01-.56.03-.84.06-.1,0-.21.02-.31.03-.23.02-.45.05-.68.08-.11.01-.21.03-.32.04-.25.04-.51.08-.76.12-.07.01-.14.02-.21.03-.32.06-.64.12-.97.19-.08.02-.17.04-.25.06-.24.05-.49.11-.74.17-.11.03-.22.05-.33.08-.23.06-.47.12-.71.19-.1.03-.2.05-.3.08-.33.09-.67.19-1.01.29-.61-.4-1.03-1.07-1.68-1.43-.08-.04-.16-.09-.24-.13-.02-.01-.05-.03-.07-.04-.05-.03-.11-.06-.16-.09-.03-.02-.06-.03-.09-.04-.05-.02-.1-.05-.15-.07-.03-.01-.06-.03-.1-.04-.05-.02-.09-.04-.14-.06-.03-.01-.07-.03-.1-.04-.05-.02-.09-.03-.14-.05-.03-.01-.07-.02-.1-.03-.04-.01-.09-.03-.13-.04-.03,0-.07-.02-.1-.02-.04,0-.09-.02-.13-.02-.03,0-.06-.01-.1-.01-.05,0-.09,0-.14,0-.03,0-.06,0-.09,0-.03,0-.05,0-.08,0-.04,0-.08,0-.12.01-.03,0-.05,0-.08.01-.04,0-.08.02-.12.03-.03,0-.06.02-.08.03-.04.01-.08.03-.12.04-.03.01-.05.02-.08.04-.04.02-.08.04-.11.06-.03.02-.05.03-.08.05-.04.03-.08.06-.12.09-.02.02-.05.04-.07.06-.04.04-.08.08-.13.12-.02.02-.04.04-.06.06-.06.07-.12.14-.18.22-.68.91-.8,1.84-.54,2.74.06.2.13.4.22.59.05.1.1.19.15.29.21.38.49.76.81,1.11,0,.06.01.12.02.18s.01.11,0,.17c-.4,1.49-.82,2.99-1.16,4.49-.17.16-.33.24-.48.31-.1.05-.2.09-.29.16-.14.09-.29.22-.44.46-.22.34-.52,1.35-.59,1.84-.07.5.02.85.44,1.06.02.01.05.02.08.02,0,0,.01,0,.02,0,.05,0,.11-.01.16-.03.06-.01.11-.03.16-.03,0,0,0,0,0,0,0,0,0,0,0,0,.03,0,.05,0,.06.02,0,0,0,0,.01.01.01.02.02.05.01.1h0c-.07.44-.13.89-.2,1.33-.13.88-.25,1.77-.35,2.65-.25,2.21-.4,4.42-.31,6.67-.41,0-.8,0-1.2,0-.09,0-.18,0-.27,0-.24,0-.47,0-.7,0-.31,0-.62,0-.92,0-.23,0-.46,0-.69,0-.3,0-.6-.01-.89-.02-.23,0-.46-.01-.69-.02-.3,0-.59-.02-.89-.03-.23,0-.45-.02-.68-.02-.3-.01-.61-.03-.91-.04-.22-.01-.44-.02-.66-.03-.32-.02-.65-.04-.97-.06-.21-.01-.43-.02-.64-.04-.36-.02-.73-.05-1.1-.08-.19-.01-.37-.03-.56-.04-.56-.04-1.14-.09-1.73-.14,0,0,0,0,0,0-.18-.02-.37-.03-.57-.05-.08,0-.16-.02-.23-.02-.17-.02-.35-.03-.53-.05-.14-.01-.29-.03-.44-.04-.09,0-.18-.02-.26-.03-.14-.01-.27-.03-.41-.04-.09,0-.19-.02-.28-.03-.13-.01-.27-.02-.41-.03-.1,0-.2-.02-.3-.02-.13,0-.27-.02-.41-.03-.1,0-.2-.01-.31-.02-.14,0-.27-.01-.41-.02-.1,0-.21,0-.31-.01-.14,0-.28,0-.42,0-.1,0-.21,0-.31,0-.09,0-.17,0-.26,0-.13,0-.26,0-.39,0-.09,0-.18,0-.27.01-.13,0-.25.01-.38.02-.09,0-.18.01-.27.02-.12.01-.24.03-.37.04-.09.01-.17.02-.26.03-.12.02-.24.04-.36.06-.08.02-.17.03-.25.05-.12.03-.24.05-.36.08-.07.02-.15.04-.22.06-.13.04-.25.08-.37.12-.06.02-.12.04-.18.06-.18.07-.35.14-.52.22-.12.06-.23.12-.33.18-1.06.68-.63,1.48.16,2.35.43.48,1.44.63,2.08.71,1.06.14,2.1.08,3.16.17.05.09.1.17.15.26-.13.13-.25.25-.36.38-.74.9-.76,1.84-.09,2.92.21.34.68.31.89.51.16.15.1.3.11.42,0,.04.01.08.04.11.1.11.2.21.3.31.03.03.06.06.09.09.07.06.14.12.21.18.04.03.07.06.11.08.07.05.13.1.2.14.03.02.07.04.1.06.08.05.16.09.24.13.02,0,.04.02.06.03.1.05.21.09.31.12.03,0,.06.02.08.02.08.02.15.04.23.06.04,0,.08.01.11.02.07.01.14.02.22.03.04,0,.08,0,.12.01.08,0,.16,0,.24.01.03,0,.06,0,.09,0,.14,0,.27,0,.42-.02.03,0,.07,0,.1,0,.13-.01.27-.03.4-.05.01,0,.03,0,.04,0,.15-.02.3-.05.46-.08.04,0,.08-.02.12-.02.16-.03.31-.07.48-.1,0,0,0,0,0,0,.08-.02.16-.05.24-.08.09-.04.18-.08.26-.12.28-.14.58-.3.94-.33h0c.06,0,.11,0,.18,0,.04,0,.09,0,.14,0,.06,0,.13,0,.2.01.08,0,.17.02.26.03.07,0,.14.02.22.03.09.01.19.03.28.05.07.01.15.03.22.04.1.02.2.04.3.07.07.02.15.03.22.05.1.02.2.05.3.08.07.02.14.03.21.05.1.03.2.05.3.08.06.02.12.03.18.05.11.03.21.06.31.09.04.01.08.02.12.03.12.04.24.07.34.1.46.13.91.27,1.35.4,3.09.94,5.83,1.91,8.77,3.22,1.52,3.91,1.68,7.26,1.13,10.66-.12.75-.28,1.51-.46,2.27-.09.38-.19.77-.29,1.15-.31,1.16-.68,2.35-1.08,3.59-.13.41-.27.83-.4,1.26-.37,1.14-.69,2.23-.96,3.32-.19.72-.35,1.44-.5,2.17-.23,1.09-.42,2.19-.58,3.33-.26,1.79,0,3.42.28,5.11.09.56.18,1.13.25,1.72h0c-.57.04-1.25.11-1.95.22-.17.03-.35.06-.53.09-.21.04-.43.09-.64.15-.31.08-.62.17-.91.28-.65.25-1.24.57-1.69,1.01s-.74.99-.8,1.69c-.07.8.07,1.38.37,1.8.89,1.27,3.16,1.13,4.95,1.23.16,0,.33.02.5.03.05,0,.11,0,.17,0,.12,0,.24,0,.36.01.07,0,.15,0,.22,0,.11,0,.23,0,.34,0,.08,0,.16,0,.24,0,.11,0,.23,0,.34,0,.07,0,.15,0,.22,0,.21,0,.43,0,.65,0,.03,0,.06,0,.09,0,.24,0,.49-.02.73-.03.06,0,.13,0,.19-.01.2-.01.4-.02.6-.04.05,0,.11,0,.16-.01.24-.02.48-.05.71-.07.05,0,.11-.01.16-.02.19-.03.38-.05.56-.08.06,0,.12-.02.17-.03.22-.04.44-.08.65-.14.03,0,.06-.02.09-.03.18-.04.35-.09.51-.15.05-.02.1-.03.15-.05.19-.07.37-.13.53-.21,2.93-1.39.9-3.71,1.71-5.64,1.73-4.13,4.38-5.08,8.34-5.67.37-.05.75-.1,1.13-.15.09-.01.19-.02.28-.03.39-.04.78-.09,1.17-.12.02,0,.05,0,.07,0,.37-.03.74-.05,1.12-.07.1,0,.19,0,.29-.01.4-.02.79-.03,1.19-.03.01,0,.02,0,.03,0,.06,0,.11,0,.17,0,.27,0,.53,0,.8.02.11,0,.22.01.34.02.23.01.45.03.67.05.12,0,.23.02.35.03.23.02.46.05.69.08.1.01.19.02.29.04.32.05.64.11.95.17.04,0,.08.02.12.03.27.06.53.13.79.2.1.03.19.06.29.09.2.06.4.13.6.2.1.04.2.08.3.12.2.08.39.17.58.26.09.04.17.08.26.12.27.14.53.28.78.45,3.1,2.02.8,4.23,1.29,6.86.34,1.79,1.18,2.12,2.86,2.34,2.65.35,5.17.36,7.87.46.18,0,.38.01.58.02.02,0,.04,0,.06,0,.21,0,.42.01.64.01.02,0,.03,0,.05,0,.16,0,.32,0,.48-.01.04,0,.08,0,.12,0,.15,0,.3-.02.45-.03.02,0,.04,0,.05,0,.16-.02.32-.04.47-.07.04,0,.08-.02.11-.02.15-.03.29-.07.43-.11.01,0,.02,0,.03,0,.14-.05.28-.11.41-.17.03-.02.07-.03.1-.05.13-.07.25-.14.36-.23,0,0,.01,0,.02-.01.11-.09.22-.19.31-.3.02-.03.05-.06.07-.09.09-.12.17-.25.24-.39.34-.72.31-1.36.06-1.9-.08-.18-.19-.35-.32-.51ZM174.16,11.09c0-.27.23-.47.5-.46l1.89.07c.42.02.62.52.33.82l-1.97,2.04c-.31.32-.84.09-.83-.35l.08-2.11ZM161.69,12.3l-3.27,3.91c-.51.61-1.5.27-1.53-.52l-.13-3.79c-.02-.48.36-.88.83-.89l3.4-.12c.75-.03,1.17.85.69,1.42ZM166.82,2s.02-.02.04-.02c.03-.01.05-.02.07-.02.02,0,.03-.01.05-.01.01,0,.03,0,.04,0,.05.01.08.03.13.05.25.08.45.18.62.3.02.02.06.03.08.05.15.13.26.28.34.45.08.16.14.34.15.53.01.23-.03.47-.11.71,0,.02-.02.05-.02.07-.05.14-.11.29-.19.43-.73-.49-1.35-.86-2.04-1.4,0,0,0,0,0,0-.01,0-.02-.01-.03-.02.11-.26.55-.93.88-1.12ZM148.39,8.18c.08-.01.15-.02.22-.02,0,0,.02,0,.02,0,.11,0,.22.01.32.03.08,0,.17.02.26.02.07,0,.13,0,.2,0,.32-.02.74-.14,1.12-.22.13-.03.25-.05.37-.07-.05-.07-.11-.11-.17-.14-.06-.03-.13-.05-.2-.06-.14-.02-.29-.03-.43-.08-.12-.05-.22-.1-.33-.16-.15-.07-.29-.14-.43-.22-.1-.06-.19-.11-.28-.17-.04-.03-.08-.05-.12-.08-.04-.03-.08-.05-.12-.08-.03-.02-.06-.05-.09-.08-.14-.11-.28-.23-.4-.35-.15-.15-.28-.31-.39-.49-.1-.15-.18-.32-.25-.49-.02-.05-.04-.1-.06-.16-.05-.13-.09-.26-.12-.4,0-.04-.02-.07-.03-.1,0-.02,0-.05,0-.07-.03-.19-.06-.39-.06-.61,0-.24,0-.48.04-.74,0,0,0,0,0,0,.01-.1.03-.18.06-.26,0-.02.01-.04.02-.06.03-.07.05-.14.09-.19,0,0,0,0,0-.01.04-.06.08-.1.13-.15.01-.01.02-.02.04-.03.04-.03.09-.06.14-.08,0,0,0,0,0,0,0,0,0,0,0,0,.06-.02.11-.03.18-.04,0,0,.01,0,.02,0,0,0,.02,0,.03,0,.02,0,.04,0,.05,0,.02,0,.03,0,.05,0,.06,0,.12.01.19.03,0,0,0,0,0,0,0,0,0,0,0,0,.03,0,.05.01.08.02,0,0,0,0,0,0,.06.02.12.04.18.07.03.01.06.02.1.04.19.1.37.2.54.32.22.15.43.31.61.48.11.1.21.21.32.32.4.44.74.93,1.09,1.44.23.34.46.68.71,1.02.02.03.04.06.07.08.05.05.1.09.16.11.03.01.07.02.11.02,0-.58-.07-1.96-.07-1.96h0s0,0,0,0c0,0,1.68-.63,2.6-.79,0,0,0,0,0,0,0,0,0,0,0,0,2.18-.39,5.74-.88,7.98-.42,3.88.79,5.01,2.89,7.79,5.53h0c-.11,0-.22,0-.33,0-.28,0-.55.02-.83.02-.02,0-.04,0-.07,0-.2,0-.41,0-.61,0-.35,0-.69,0-1.04,0-.33,0-.67,0-1.02.02-.4.01-.79.02-1.19.03-.1,0-.19,0-.29,0-2.33.05-4.66.05-7,.2-.04,0-.07,0-.11,0-.46.03-.93.07-1.39.11-.04,0-.09,0-.13.01-.49.05-.98.1-1.48.17,0,0-.02,0-.03,0-.29.04-.59.09-.88.15-.29.06-.58.13-.87.2-.41.1-.82.22-1.22.34-.66.2-1.31.42-1.96.64-.24.08-.49.16-.73.24-.73.24-1.47.47-2.21.65.31-1.18.69-2.37,1.04-3.55Z"/>
  <path class="st0" d="M159.54,67.43c-1.73.35-2.98.95-4.13,1.82,1.14-.87,2.4-1.47,4.13-1.82Z"/>
  <path class="st0" d="M164.83,19.63c.1-.03.19-.07.27-.11-.08.04-.17.07-.27.11,0,0,0,0,0,0,0,0,0,0,0,0Z"/>
  <polygon class="st0" points="161.99 20.23 161.99 20.23 161.99 20.23 161.99 20.23"/>
  <path class="st0" d="M162.97,20.09s-.05,0-.08.01c0,0,0,0,0,0,.03,0,.05,0,.08-.01Z"/>
  <path class="st0" d="M161.07,20.31c-.06,0-.12,0-.17,0,.02,0,.05,0,.07,0,.03,0,.07,0,.1,0Z"/>
  <path class="st0" d="M166.31,17.06c-.06.24-.12.47-.19.69-.07.22-.14.43-.21.63-.05.12-.09.24-.12.34.04-.1.08-.21.12-.34.15-.4.28-.85.4-1.32Z"/>
  <path class="st0" d="M163.94,19.89s-.04.01-.06.02c0,0,0,0,0,0,.02,0,.04-.01.06-.02Z"/>
  <path class="st0" d="M159.11,20.3c-.11,0-.21-.02-.31-.03.1,0,.21.02.31.03h0Z"/>
  <path class="st0" d="M138.54,27.61c-.27,0-.54-.02-.82-.03.28.01.55.02.82.03,0,0,0,0,0,0Z"/>
  <path class="st0" d="M140.88,27.65c-.15,0-.31,0-.46,0h0c.15,0,.31,0,.46,0Z"/>
  <path class="st0" d="M133.64,27.4c-.09,0-.18,0-.27-.01h0c.09,0,.18,0,.27.01Z"/>
  <path class="st0" d="M160.03,20.33c-.1,0-.19,0-.29,0,.07,0,.13,0,.2,0,.03,0,.06,0,.09,0Z"/>
  <path class="st0" d="M146.71,14.52c-.76,4.3-1.36,8.54-1.17,12.92-.73.21-1.31.17-2.08.19.77-.01,1.35.02,2.08-.19-.18-4.38.42-8.61,1.17-12.92Z"/>
  <path class="st0" d="M168.8,12.43h0s0,0-.01,0c0,0-.01,0-.02,0,0,0,0,0,0,0,0,0,.02,0,.03,0Z"/>
  <path class="st0" d="M156.14,19.54c-.07-.05-.13-.1-.19-.16-.07-.06-.12-.13-.17-.2.1.13.21.25.37.36Z"/>
  <path class="st0" d="M156.21,19.59c.05.03.11.07.17.1-.06-.03-.12-.07-.17-.1Z"/>
  <path class="st0" d="M155.61,18.92c.04.08.08.15.13.22-.05-.07-.09-.14-.13-.22Z"/>
  <path class="st0" d="M156.47,19.74c.06.03.13.06.21.09-.07-.03-.14-.06-.21-.09Z"/>
  <path class="st0" d="M157.14,19.98s0,0,0,0c-.13-.04-.25-.08-.36-.12.11.04.23.08.36.12,0,0,0,0,0,0Z"/>
  <path class="st0" d="M168.57,12.47s0,0,0,0c0,0-.02,0-.03.01,0,0,0,0,0,0,0,0,.02,0,.03-.01Z"/>
  <path class="st0" d="M175.7,32.27c-.05.03-.1.06-.15.09-.11.06-.22.13-.33.19-.02.01-.04.02-.05.03.18-.11.36-.22.53-.32Z"/>
  <path class="st0" d="M176.25,31.98c.1-.05.2-.1.3-.16-.1.05-.19.1-.3.16-.16.08-.33.17-.49.26,0,0,0,0,0,0,.16-.09.33-.18.49-.26Z"/>
  <path class="st0" d="M161.48,30.82c.38.19.75.38,1.13.56-.38-.18-.76-.36-1.13-.56Z"/>
  <path class="st0" d="M164.03,31.99c.37.15.74.29,1.12.43-.37-.13-.75-.28-1.12-.43Z"/>
  <path class="st0" d="M168.12,33.27c.24.05.47.09.71.14-.24-.04-.48-.09-.71-.14Z"/>
  <path class="st0" d="M165.67,32.6c.32.11.65.21.97.3-.32-.09-.65-.19-.97-.3Z"/>
  <path class="st0" d="M169.42,33.51c.44.07.88.12,1.33.16-.45-.04-.89-.09-1.33-.16Z"/>
  <path class="st0" d="M163.21,31.64c.18.08.36.16.54.24-.18-.08-.36-.16-.54-.24Z"/>
  <path class="st0" d="M179.95,27.75c.29,0,.57.01.86.02-.29,0-.57-.02-.86-.02-.07.13-.13.26-.2.38,0-.01.01-.02.02-.04.06-.11.12-.23.18-.34Z"/>
  <path class="st0" d="M179.2,29.13s.05-.09.08-.14c-.03.05-.05.09-.08.14Z"/>
  <path class="st0" d="M174.97,25.85c-.26.66-.37,1.43-.5,2.18.13-.75.24-1.51.5-2.18Z"/>
  <path class="st0" d="M157.5,27.64c-.09.31.07.62.31.9-.25-.28-.4-.59-.31-.9,0,0,0,0,0,0,0,0,0,0,0,0Z"/>
  <path class="st0" d="M189.13,28.15s.02.03.03.04c-.01-.02-.02-.03-.03-.04Z"/>
  <path class="st0" d="M189.27,28.35s-.01-.02-.02-.03c.01.02.02.03.03.05,0,0,0-.01-.01-.02Z"/>
  <path class="st0" d="M189.03,28.05s0,0,0,0c-.07-.05-.15-.09-.23-.12.08.03.16.07.23.12,0,0,0,0,0,0Z"/>
  <path class="st0" d="M166.25,31.45s0,0,0,0c.06.02.13.03.19.05,0,0,0,0,0,0-.06-.02-.13-.03-.19-.05Z"/>
  <path class="st0" d="M179.14,25.56c.14-1.05.02-2.18-.36-3.39.38,1.2.5,2.34.36,3.39Z"/>
  <path class="st0" d="M169.24,31.92s0,0,0,0c.04,0,.09,0,.13,0,.05,0,.1,0,.15,0,0,0,0,0,0,0-.09,0-.19,0-.28,0Z"/>
  <path class="st0" d="M169.97,31.9s0,0,0,0c.11,0,.21-.01.32-.03,0,0,0,0,0,0-.11.01-.21.02-.32.03Z"/>
  <path class="st0" d="M174.38,15.99c-.06-.05-.12-.09-.18-.14.36.29.71.58,1.04.89-.28-.26-.56-.51-.86-.75Z"/>
  <path class="st0" d="M173.18,15.08c-.05-.04-.11-.07-.17-.11.27.19.53.39.78.59-.21-.16-.41-.32-.62-.47Z"/>
  <path class="st0" d="M171.91,14.21s-.09-.06-.13-.08c.26.17.52.35.78.53-.22-.15-.43-.3-.65-.44Z"/>
  <path class="st0" d="M164.2,30.76s0,0,0,0c.07.03.15.06.22.08,0,0,0,0,0,0-.08-.03-.15-.06-.23-.08Z"/>
  <path class="st0" d="M169.05,12.48s0,0,0,0c0,0-.02,0-.03,0,0,0,0,0,0,0,0,0,.02,0,.03,0Z"/>
  <path class="st0" d="M165.15,31.1s0,0,0,0c.07.02.14.05.21.07,0,0,0,0,0,0-.07-.02-.15-.05-.22-.08Z"/>
  <path class="st0" d="M168.32,31.87s0,0,0,0c.04,0,.08,0,.12,0,0,0,0,0,0,0-.04,0-.08,0-.12,0Z"/>
  <path class="st0" d="M167.18,31.68s0,0,0,0c.08.02.16.03.24.05,0,0,0,0,0,0-.08-.02-.16-.03-.24-.05Z"/>
  <polygon class="st0" points="154.98 3.81 154.97 3.81 154.97 3.81 154.97 3.81 154.98 3.81"/>
  <path class="st0" d="M168.19,4.1c-.05.14-.11.29-.19.43.08-.14.14-.29.19-.43Z"/>
  <path class="st0" d="M168.21,4.03c.08-.25.12-.49.11-.71-.01-.19-.07-.36-.15-.53.17.36.18.79.04,1.24Z"/>
  <path class="st0" d="M165.97,3.14c.69.54,1.3.91,2.04,1.4-.72-.48-1.36-.87-2.04-1.4,0,0,0,0,0,0Z"/>
  <path class="st0" d="M167.14,1.99s-.08-.03-.13-.05c-.01,0-.03,0-.04,0-.01,0-.03.01-.05.01.03,0,.06-.02.09,0,.05.01.08.03.13.05Z"/>
  <path class="st0" d="M147.36,11.73c.31-1.18.69-2.37,1.04-3.55-.34,1.18-.72,2.37-1.04,3.55Z"/>
  <path class="st0" d="M152.19,72.34s0,0,0,0c.17-.18.34-.36.51-.53-.16.17-.33.35-.51.53,0,0,0,0,0,0Z"/>
  <path class="st0" d="M149.69,72.51s0,0,0,0c.06,0,.11,0,.17,0,.06,0,.12,0,.18,0h0c-.12,0-.23,0-.35,0Z"/>
  <path class="st0" d="M168.92,8.95c.2,0,.4,0,.61,0,.02,0,.04,0,.07,0-.23,0-.45,0-.68,0,0,0,0,0,0,0Z"/>
  <path class="st0" d="M150.77,72.48s0,0,0,0c.11,0,.22-.01.33-.02,0,0,0,0,0,0-.11,0-.22.01-.34.02Z"/>
  <polygon class="st0" points="170.74 8.93 170.74 8.93 170.74 8.93 170.74 8.93"/>
  <path class="st0" d="M148.85,2.76c.19.1.37.2.54.32-.17-.11-.34-.22-.54-.32,0,0,0,0,0,0,0,0,0,0,0,0Z"/>
  <path class="st0" d="M149.37,7.26c-.1-.06-.19-.11-.28-.17.09.06.18.12.28.17Z"/>
  <path class="st0" d="M148.85,6.93s.08.05.12.08c-.07-.05-.14-.1-.2-.15.03.02.05.05.09.08Z"/>
  <path class="st0" d="M147.36,11.73c.74-.18,1.48-.4,2.21-.65-.73.24-1.47.47-2.21.65Z"/>
  <path class="st0" d="M183.89,68.11c.39-1.35.74-2.7.74-4.26,0-1.74-.07-3.44-.22-5.1.15,1.66.22,3.36.22,5.1,0,1.56-.35,2.91-.74,4.26Z"/>
  <path class="st0" d="M148.57,2.66s0,0,0,0c-.03,0-.05-.01-.08-.02,0,0,0,0,0,0,.03,0,.05.01.08.02Z"/>
  <path class="st0" d="M147.66,5.37c.02.05.04.11.06.16-.02-.05-.04-.1-.06-.16Z"/>
  <path class="st0" d="M147.51,4.8s0,.05,0,.07c0,.04.02.07.03.1-.01-.06-.03-.11-.04-.17Z"/>
  <path class="st0" d="M148.3,2.61s0,0,0,0c-.02,0-.03,0-.05,0-.02,0-.04,0-.05,0h0s.07,0,.1,0Z"/>
  <path class="st0" d="M178.28,22.35c.1.52-.09.93-.43,1.25.34-.31.54-.73.43-1.25-.06-.29-.19-.4-.37-.4.17,0,.31.12.37.4Z"/>
  <path class="st0" d="M166.85,8.96c-.4.01-.79.02-1.19.03.4,0,.79-.02,1.19-.03.35-.01.68-.02,1.02-.02,0,0,0,0,0,0-.34,0-.68,0-1.02.02Z"/>
  <path class="st0" d="M149.51,50.31s.01-.05.01-.08c0,.03-.01.05-.01.08Z"/>
  <polygon class="st0" points="152.37 4.6 152.37 4.6 152.37 4.6 152.37 4.6"/>
  <path class="st0" d="M144.83,71.71s0,0,0,0c0-.05,0-.11,0-.16,0,.05,0,.11,0,.16Z"/>
  <path class="st0" d="M144.84,66.94c.26-1.17.58-2.34.93-3.53-.35,1.18-.67,2.36-.93,3.52-.2.91-.2,1.81-.15,2.71-.05-.9-.05-1.8.15-2.71Z"/>
  <path class="st0" d="M147.16,72.27s0,0,0,0c.09.02.19.04.29.05,0,0,0,0,0,0-.1-.02-.19-.03-.29-.05Z"/>
  <path class="st0" d="M148.55,72.46c.07,0,.14,0,.21.01h0c-.07,0-.14,0-.21-.01Z"/>
  <path class="st0" d="M156.88,9.32s-.09,0-.13.01c.04,0,.09,0,.13-.01Z"/>
  <path class="st0" d="M154.36,9.66c.29-.06.59-.11.88-.15,0,0,.02,0,.03,0,0,0-.02,0-.03,0-.29.04-.59.09-.88.15Z"/>
  <polygon class="st0" points="150.92 41.42 150.91 41.42 150.91 41.42 150.92 41.42"/>
  <path class="st0" d="M150.9,41.42c-.06-.01-.11-.03-.17-.05.06.02.12.04.17.05,0,0,0,0,0,0Z"/>
  <path class="st0" d="M149.26,42.2c-.19-.51-.4-1.03-.56-1.57.16.54.36,1.05.56,1.57Z"/>
  <path class="st0" d="M151.55,41.38s.08-.05.11-.07c-.03.02-.06.05-.11.07-.05.02-.1.04-.15.05,0,0,0,0,0,0,.05-.01.11-.03.15-.05Z"/>
  <path class="st0" d="M181.89,71.17s0,0,0,0c.41-.05.82-.1,1.24-.16.03-.15.06-.29.1-.43-.03.14-.07.28-.1.43-.41.06-.83.11-1.24.16Z"/>
  <path class="st0" d="M179.19,71.34s0,0,0,0c.35,0,.7-.01,1.05-.03,0,0,0,0,0,0-.35.02-.7.03-1.05.03Z"/>
  <path class="st0" d="M172.69,67.68c.12.03.24.08.36.11-.12-.04-.25-.08-.37-.11,0,0,0,0,0,0Z"/>
  <path class="st0" d="M172.52,67.63s.02,0,.03,0c0,0,0,0,0,0,0,0-.02,0-.03,0Z"/>
  <path class="st0" d="M171.4,67.37s-.02,0-.04,0c.01,0,.02,0,.04,0Z"/>
  <path class="st0" d="M177.67,71.31c.43.02.85.04,1.27.04.02,0,.03,0,.05,0h0c-.44,0-.88-.01-1.32-.04Z"/>
  <path class="st0" d="M174,68.1s0,0,0,0c.27.1.53.2.79.31,0,0,0,0,0,0-.26-.11-.53-.22-.8-.31Z"/>
  <path class="st0" d="M180.63,71.28s0,0,0,0c.3-.02.6-.04.9-.07,0,0,0,0,0,0-.3.03-.6.05-.9.07Z"/>
  <path class="st0" d="M188.06,27.82s-.05,0-.08,0c.05,0,.1,0,.15,0-.02,0-.05,0-.07,0Z"/>
  <path class="st0" d="M176.02,17.52c-.08-.09-.17-.18-.26-.26.24.25.47.5.7.76-.14-.17-.29-.34-.44-.5Z"/>
  <path class="st0" d="M187.44,27.86c-.07,0-.14.01-.21.02.03,0,.06,0,.09,0,.04,0,.08,0,.12-.01Z"/>
  <path class="st0" d="M152.44,6.56h0s-.08,0-.11-.02c0,0,0,0,0,0,.03.01.07.02.11.02Z"/>
  <path class="st0" d="M150.92,7.91c-.11.02-.24.04-.37.07.13-.03.25-.05.37-.07h0Z"/>
  <path class="st0" d="M154.32,13.94c0,.07.02.14.03.21,0-.07-.02-.14-.03-.21Z"/>
  <path class="st0" d="M150.54,13.8c-1.23.19-2.46.38-3.68.56,2.45-.37,4.92-.75,7.36-1.14-1.22.19-2.45.39-3.68.57Z"/>
  <path class="st0" d="M149.22,8.21c-.09,0-.18,0-.26-.02.06,0,.11.01.18.02.02,0,.06,0,.08,0Z"/>
  <path class="st0" d="M148.62,8.16c-.07,0-.14,0-.22.02.09-.01.17-.02.25-.02,0,0-.01,0-.02,0Z"/>
  <path class="st4" d="M189.84,29.88c-.1-.39-.23-.77-.37-1.17-.02-.04-.04-.1-.08-.16-.03-.06-.07-.12-.1-.18-.01-.02-.02-.03-.03-.05-.03-.04-.06-.08-.08-.12-.01-.02-.02-.03-.03-.04-.04-.05-.07-.08-.1-.1,0,0,0,0,0,0-.07-.05-.15-.09-.23-.12-.03-.01-.06-.02-.09-.03-.06-.02-.11-.03-.17-.04-.04,0-.07-.01-.11-.02-.06,0-.11-.01-.17-.02-.04,0-.08,0-.12,0-.05,0-.1,0-.15,0-.07,0-.13,0-.2,0-.04,0-.09,0-.13,0-.07,0-.14.01-.21.02-.04,0-.08,0-.12.01-.03,0-.06,0-.09,0-.05,0-.1.01-.15.01-.08,0-.15.01-.22.01,0,0-.02,0-.02,0-2.12,0-4.03-.08-6.03-.13-.29,0-.57-.02-.86-.02-.06.12-.12.23-.18.34,0,.01-.01.02-.02.04-.16.3-.31.58-.47.86-.03.05-.05.09-.08.14-.16.28-.33.55-.51.8-.53.74-1.18,1.37-2.15,1.9-.1.05-.19.11-.3.16-.17.08-.33.17-.49.26-.02.01-.04.02-.05.03-.18.1-.36.21-.53.32-.03.02-.06.03-.09.05-.1.06-.19.12-.29.18-.04.03-.09.05-.13.07-.12.07-.24.14-.37.21-.05.03-.11.05-.16.08-.12.06-.23.12-.35.17-.06.03-.13.05-.19.07-.11.04-.23.09-.35.13-.07.02-.15.03-.22.05-.12.03-.23.06-.35.08-.08.01-.17.01-.26.02-.13.01-.25.03-.38.03-.43,0-.86-.03-1.28-.07-.45-.04-.89-.09-1.33-.16-.2-.03-.39-.07-.59-.1-.24-.04-.48-.09-.71-.14-.5-.11-.99-.23-1.48-.37-.33-.09-.65-.19-.97-.3-.17-.06-.35-.12-.52-.18-.37-.13-.75-.28-1.12-.43-.09-.04-.19-.07-.28-.11-.18-.08-.36-.16-.54-.24-.2-.09-.4-.17-.6-.26-.38-.18-.76-.36-1.13-.56,0,0,0,0-.01,0-.05-.03-.11-.06-.16-.08-.72-.37-1.44-.77-2.15-1.2-.2-.12-.68-.39-1.08-.73-.09-.08-.18-.17-.26-.26-.25-.28-.4-.59-.31-.9,0,0,0,0,0,0,0-.02.01-.02.02-.03,0-.02.02-.04.03-.05,0,0,.01,0,.02,0,.01,0,.03,0,.04,0,.02,0,.05.01.07.03.01,0,.02,0,.04.02.04.02.08.04.13.06,1.32.48,2.1,1.42,3.51,1.97,0,0,.02,0,.03.01.3.12.6.24.9.36.28.11.56.23.84.34.07.03.14.06.22.09.01,0,.02,0,.03.01,0,0,.02,0,.03.01.25.1.5.2.75.29.02,0,.04.02.06.02.08.03.15.06.23.08.24.09.48.17.72.26.07.03.15.05.22.08.06.02.11.03.17.05.24.08.48.15.72.22.06.02.13.03.19.05.01,0,.03,0,.04,0,.23.06.46.12.69.17.08.02.16.04.24.05.3.06.6.11.9.14.04,0,.08,0,.12,0,.27.03.53.04.8.04.09,0,.19,0,.28,0,.15,0,.3-.01.45-.02.11,0,.21-.01.32-.03.15-.02.3-.04.45-.07,0,0,0,0,.01,0,.1-.02.2-.03.3-.05.17-.04.35-.09.52-.14.08-.02.16-.04.25-.07.26-.08.51-.18.77-.29,1.36-.61,1.66-1.9,1.88-3.23.13-.75.24-1.51.5-2.18.02-.04.03-.09.05-.13,0,0,0,0,0,0,.05-.03.1-.04.14-.04,0,0,.02,0,.02,0,.04,0,.07.01.1.03,0,0,.01,0,.02.01.02.02.05.04.07.07,0,0,0,0,0,.01.02.03.04.07.05.11,0,0,0,.02,0,.03.01.04.02.09.03.14,0,0,0,0,0,0,.03.19.06.38.07.56.02.24.04.47.05.7.01.62-.04,1.23-.14,1.84s-.25,1.21-.43,1.83c1.75-.99,2.96-2.22,3.62-3.66.26-.57.43-1.17.51-1.8.14-1.05.02-2.18-.36-3.39-.08-.25-.17-.5-.27-.76s-.21-.51-.33-.75c-.48-.99-1.06-1.87-1.73-2.65-.22-.26-.46-.52-.7-.76-.17-.18-.35-.35-.53-.51-.33-.31-.68-.6-1.04-.89-.13-.1-.27-.2-.4-.3-.26-.2-.52-.4-.78-.59-.15-.1-.3-.21-.45-.31-.26-.18-.51-.35-.78-.53-.43-.28-.87-.56-1.32-.84-.17-.11-.35-.22-.52-.32-.12-.07-.23-.14-.33-.21,0,0-.01,0-.02,0-.1-.06-.19-.11-.28-.16,0,0-.01,0-.02-.01-.03-.02-.06-.03-.09-.04-.05-.02-.1-.04-.15-.06,0,0-.02,0-.03,0-.08-.02-.15-.04-.23-.04,0,0-.02,0-.03,0-.03,0-.07.01-.1.02s-.07,0-.1.02c0,0-.02,0-.03.01-.06.02-.13.05-.2.1,0,0-.01,0-.02.01,0,0-.02.01-.02.02-.08.05-.16.12-.24.2,0,0-.01.01-.02.02-.09.09-.18.19-.29.31-.52.61-.82,1.53-1.08,2.49-.13.48-.24.97-.36,1.44-.12.47-.25.92-.4,1.32-.05.12-.09.24-.12.34s-.07.19-.11.28c-.08.17-.18.3-.36.42-.06.04-.13.08-.21.11s-.17.07-.27.11c0,0,0,0,0,0-.12.04-.26.08-.39.11-.14.04-.27.08-.41.12-.03,0-.06.02-.09.02-.02,0-.04.01-.06.02-.27.06-.54.12-.83.17,0,0,0,0,0,0-.03,0-.06,0-.09.01-.03,0-.05,0-.08.01-.29.05-.59.09-.9.13,0,0,0,0,0,0,0,0,0,0,0,0-.3.03-.61.06-.92.07-.03,0-.07,0-.1,0-.02,0-.05,0-.07,0-.29.01-.58.02-.86.02-.03,0-.06,0-.09,0-.07,0-.13,0-.2,0-.21,0-.43-.02-.63-.03-.11,0-.21-.02-.31-.03-.21-.02-.41-.05-.6-.07-.09-.01-.18-.02-.27-.04-.28-.05-.54-.1-.8-.17,0,0,0,0,0,0-.13-.04-.25-.08-.36-.12-.03-.01-.07-.03-.1-.04-.07-.03-.14-.06-.21-.09-.03-.02-.06-.03-.09-.05-.06-.03-.12-.07-.17-.1-.02-.02-.05-.03-.07-.05-.15-.11-.27-.23-.37-.36-.01-.02-.03-.03-.04-.05-.05-.07-.09-.14-.13-.22-.06-.11-.1-.23-.15-.36-.04-.13-.08-.26-.13-.4-.03-.09-.06-.18-.09-.27-.07-.2-.14-.42-.25-.64-.3-.66-.44-1.32-.53-1.98-.02-.17-.04-.33-.06-.5s-.04-.34-.05-.5c0-.04,0-.07-.01-.11,0-.07-.02-.14-.03-.21,0-.07-.01-.13-.02-.2-.02-.17-.05-.34-.08-.51-2.44.39-4.91.77-7.36,1.14-.05.05-.1.1-.15.16-.76,4.3-1.36,8.54-1.17,12.92-.73.21-1.31.17-2.08.19-.37,0-.73.01-1.08.02-.07,0-.14,0-.2,0-.35,0-.69,0-1.03,0-.09,0-.18,0-.27,0-.15,0-.31,0-.46,0-.04,0-.09,0-.13,0-.06,0-.12,0-.17,0-.16,0-.31,0-.47,0-.1,0-.2,0-.3,0-.17,0-.35,0-.53-.01,0,0,0,0,0,0-.08,0-.17,0-.25,0-.27,0-.54-.02-.82-.03,0,0,0,0,0,0-1.13-.05-2.79-.12-4.08-.19-.09,0-.18,0-.27-.01h0c1.18,2.17,1.84,4.06,1.73,6.56h0c.47.14.94.28,1.42.42,1.97.59,3.91,1.22,5.82,1.92.67.25,1.33.5,1.99.77,1.5.61,2.97,1.26,4.42,2.01.62.32,1.23.65,1.84,1,.01,0,.03.02.04.02,0,0,.01,0,.02.01.01,0,.03.01.04.02,0,0,.02,0,.03.01.03.02.06.03.08.05.04.02.07.04.11.06.08.05.16.1.24.15,0,0,0,0,0,0,.06.04.13.09.19.14.03.02.06.05.09.07.06.05.12.11.17.16,0,0,0,0,0,0,.08.08.13.17.16.25.03.1.02.2-.08.28-.03.02-.06.05-.11.07-.05.02-.1.04-.15.05-.02,0-.04,0-.05,0,0,0,0,0,0,0-.04,0-.08.01-.12.01h0s-.03,0-.05,0c0,0,0,0,0,0-.08,0-.17-.01-.26-.03,0,0,0,0,0,0,0,0,0,0,0,0-.06-.01-.12-.03-.17-.05-.04-.01-.08-.02-.12-.03,0,0,0,0,0,0-.02,0-.03,0-.05-.01h0c-.1-.03-.2-.07-.3-.12-.02,0-.04-.02-.06-.03-.1-.04-.2-.09-.3-.14-.02,0-.03-.01-.05-.02-.1-.05-.2-.09-.29-.14-.1-.05-.2-.1-.3-.15-.02,0-.04-.02-.06-.03-.09-.04-.18-.08-.26-.12-.01,0-.03-.01-.04-.02-.08-.04-.17-.07-.24-.09.01.05.03.09.04.14.16.54.36,1.05.56,1.57.29.76.55,1.53.61,2.41.11,1.53.02,3.07-.19,4.6-.05.34-.1.68-.16,1.02,0,.03-.01.05-.01.08-.17,1.01-.4,2.01-.65,3.02-.87,3.38-2.1,6.75-3.09,10.08-.35,1.18-.67,2.36-.93,3.53-.2.91-.2,1.81-.15,2.71.04.63.09,1.26.12,1.89,0,.05,0,.11,0,.16h0c.38.12.76.22,1.13.31.11.03.21.05.32.08.06.01.11.03.17.04.23.05.47.1.7.14.1.02.19.04.29.05.31.05.63.09.94.12.05,0,.1.01.16.02,0,0,0,0,.01,0,.07,0,.14,0,.21.01.31.02.62.04.92.04.12,0,.23,0,.35,0,.09,0,.18,0,.27,0,0,0,0,0,0,0,.15,0,.31-.02.46-.03.11,0,.22-.01.34-.02.11,0,.23-.03.34-.04.24-.03.49-.05.73-.09,0,0,0,0,0,0,.17-.18.34-.36.51-.53.97-1.02,1.81-1.86,2.72-2.55,1.14-.87,2.4-1.47,4.13-1.82.39-.08.81-.15,1.25-.2.02,0,.03,0,.05,0,.37-.04.75-.08,1.12-.12.13-.01.26-.02.39-.04.29-.03.58-.05.87-.07.12,0,.25-.02.37-.03.39-.03.79-.05,1.18-.06.09,0,.17,0,.26,0,.32-.01.64-.02.96-.02.13,0,.26,0,.39,0,.29,0,.57,0,.86.02.11,0,.22,0,.32.01.38.02.77.04,1.15.08.08,0,.16.02.24.03.31.03.61.07.92.11.12.02.23.03.35.05.38.06.76.12,1.14.2.01,0,.02,0,.04,0,.37.08.75.17,1.12.27,0,0,.02,0,.03,0,.05.01.09.03.14.04.12.03.25.08.37.11.2.06.4.12.6.19,0,0,0,0,0,0,.11.04.23.08.34.12.27.1.53.2.8.31.11.05.22.09.33.14,0,0,0,0,0,0,.36.16.71.33,1.07.52,0,0,0,0,0,0,1.01.54.85,1.46,1.46,2.23,0,0,.01,0,.02,0,.44.03.88.04,1.32.04.03,0,.05,0,.08,0,.04,0,.08,0,.11,0,.35,0,.7-.01,1.05-.03.13,0,.26-.02.39-.02.3-.02.6-.04.9-.07.12-.01.24-.02.36-.04.41-.05.82-.1,1.24-.16.03-.15.06-.29.1-.43.19-.86.43-1.67.66-2.48.39-1.36.73-2.7.74-4.26,0-1.74-.07-3.44-.22-5.1-.02-.18-.04-.36-.05-.55-.31-.21-.63-.43-.97-.66-5.48-3.68-12.97-8.72-9.55-17.72,1.97-5.18,6.57-8.16,12.62-8.16,1.18,0,2.42.12,3.69.35-.02-.53-.07-1.05-.18-1.56-.04-.19-.08-.38-.13-.58ZM176.24,23.72c.05-.16.12-.31.21-.46.07-.13.16-.26.24-.38.04-.06.08-.12.12-.17.19-.25.58-.63.92-.73.06-.02.12-.03.18-.03.17,0,.31.12.37.4.1.52-.09.93-.43,1.25-.44.4-1.11.64-1.69.72,0-.07,0-.15,0-.22.01-.13.04-.26.08-.39ZM172.51,22.28c.94.65.89,1.38,1.61,2.09-.87-.1-1.65,0-2.51-.17-.35-.07-.92-.56-1.04-.84-.78-1.81,1-1.73,1.94-1.08Z"/>
  <path class="st4" d="M150.3,10.84c.65-.22,1.31-.44,1.96-.64.41-.13.82-.24,1.22-.34.29-.07.58-.14.87-.2.29-.06.59-.11.88-.15,0,0,.02,0,.03,0,.49-.07.98-.12,1.48-.17.04,0,.09,0,.13-.01.46-.04.93-.08,1.39-.11h0s.07,0,.11,0c2.34-.15,4.67-.15,7-.2.1,0,.19,0,.29,0,.4,0,.79-.02,1.19-.03.35-.01.69-.02,1.02-.02.35,0,.69,0,1.03,0,.23,0,.45,0,.68,0,.27,0,.55,0,.83-.02.11,0,.21,0,.32,0,0,0,0,0,0,0-2.78-2.64-3.91-4.74-7.79-5.53-2.24-.46-5.79.03-7.98.42,0,0,0,0,0,0,0,0,0,0,0,0,0,0,0,0,0,0-.92.16-2.6.79-2.6.79h0s.07,1.38.07,1.96h0s-.08,0-.11-.02c0,0,0,0,0,0-.06-.02-.11-.06-.16-.11-.02-.03-.04-.05-.07-.08-.25-.34-.48-.69-.71-1.02-.34-.51-.68-1-1.09-1.44-.1-.11-.21-.22-.32-.32-.19-.17-.39-.33-.61-.48-.17-.11-.34-.22-.54-.32,0,0,0,0,0,0-.03-.02-.06-.02-.09-.04-.06-.02-.12-.05-.18-.07-.03,0-.05-.01-.08-.02,0,0,0,0,0,0-.06-.01-.13-.02-.19-.03-.04,0-.07,0-.1,0,0,0-.02,0-.03,0,0,0-.01,0-.02,0-.06,0-.12.02-.18.04,0,0,0,0,0,0,0,0,0,0,0,0-.05.02-.1.05-.14.08-.01,0-.02.02-.04.03-.05.04-.09.09-.13.15,0,0,0,0,0,.01-.03.06-.06.12-.09.19,0,.02-.01.04-.02.06-.02.08-.04.17-.06.26,0,0,0,0,0,0-.03.26-.04.51-.04.74,0,.21.03.41.06.61.01.06.02.11.04.17h0c.03.14.07.27.12.4,0,0,0,0,0,0,.02.05.04.11.06.16,0,0,0,0,0,0,.07.17.15.33.25.49,0,0,0,0,0,0,.11.17.24.33.39.48,0,0,0,0,0,0,.12.12.26.24.4.35,0,0,0,0,0,0,.07.05.13.1.2.15.04.03.08.05.12.08.09.06.18.12.28.17.14.08.28.15.43.22.11.05.21.11.33.16.14.06.29.06.43.08.07.01.14.03.2.06.06.03.12.07.17.14h0c-.11.02-.24.04-.37.07-.38.09-.8.2-1.12.22-.08,0-.14,0-.2,0-.03,0-.06,0-.08,0-.06,0-.12-.01-.18-.02-.11-.01-.21-.02-.32-.03-.08,0-.16,0-.25.02-.34,1.18-.72,2.37-1.04,3.55.74-.18,1.48-.4,2.21-.65.24-.08.49-.16.73-.24Z"/>
  <path class="st4" d="M165.97,3.14c.68.53,1.31.92,2.04,1.4.08-.14.14-.29.19-.43,0-.02.02-.05.02-.07.14-.45.13-.88-.04-1.24-.08-.16-.18-.32-.34-.45-.02-.02-.05-.03-.08-.05-.17-.12-.37-.22-.62-.3-.04-.01-.08-.03-.13-.05-.03,0-.06,0-.09,0-.02,0-.05,0-.07.02-.01,0-.02.01-.04.02-.33.19-.77.85-.88,1.12.01,0,.02.01.03.02h0Z"/>
  <path d="M171.61,24.19c.86.17,1.65.07,2.51.17-.72-.7-.68-1.43-1.61-2.09-.94-.65-2.72-.73-1.94,1.08.12.28.69.77,1.04.84Z"/>
  <path d="M177.84,23.6c.34-.31.54-.73.43-1.25-.06-.29-.19-.4-.37-.4-.06,0-.12,0-.18.03-.34.1-.74.48-.92.73-.04.05-.08.11-.12.17-.08.12-.16.24-.24.38-.08.15-.15.3-.21.46-.04.13-.07.26-.08.39,0,.07,0,.15,0,.22.58-.08,1.25-.32,1.69-.72Z"/>
  <path class="st2" d="M161,10.88l-3.4.12c-.48.02-.85.42-.83.89l.13,3.79c.03.79,1.02,1.13,1.53.52l3.27-3.91c.48-.57.05-1.45-.69-1.42Z"/>
  <path class="st2" d="M174.91,13.55l1.97-2.04c.29-.3.09-.8-.33-.82l-1.89-.07c-.27,0-.49.2-.5.46l-.08,2.11c-.02.44.52.67.83.35Z"/>
</svg>