<?xml version="1.0" encoding="UTF-8"?>
<svg id="Layer_1" xmlns="http://www.w3.org/2000/svg" version="1.1" viewBox="0 0 425.09 505.18">
  <!-- Generator: Adobe Illustrator 30.3.0, SVG Export Plug-In . SVG Version: 2.1.3 Build 157)  -->
  <defs>
    <style>
      .st0 {
        fill: #fff;
      }

      .st1 {
        stroke: #000;
      }

      .st1, .st2 {
        fill: none;
        stroke-linecap: round;
        stroke-linejoin: round;
      }

      .st2 {
        stroke: #fff;
      }

      .st3 {
        fill: #ff4848;
      }
    </style>
  </defs>
  <g>
    <path d="M323.86,153.05l22.04-4.65,13.65,39.48-162.32,74.51c-3.06,2.13-5.85,4.07-8.22,5.74-1.76-1.7-3.32-3.62-5.03-5.36,16.04-11.68,137.14-54.51,153.93-65.09,2.11-1.32,4.22-2.65,6.34-3.97l.05-.14c.52-1.16.89-2.33,1.06-3.53.14-1.03.15-2.09-.05-3.16-.11-.6-.22-1.21-.33-1.8-1.21-6.01-3.05-11.36-5.69-16.5-1.65-3.21-3.59-6.32-5.88-9.47-.34-.48-1.05-1.22-1.8-1.9s-1.53-1.28-1.98-1.43c-.26-.09-.53-.15-.8-.22-.09-.02-.18-.02-.27-.04-.19-.03-.37-.05-.55-.08-.12,0-.22-.01-.33-.02-.18,0-.35-.02-.52-.01-.11,0-.24,0-.35,0-.17,0-.35.02-.52.03-.12.01-.23.02-.35.04-.18.02-.36.05-.54.08-.11.02-.22.03-.34.05-.21.04-.41.08-.62.13l-.57-2.7Z"/>
    <path class="st3" d="M324.43,155.74c.21-.05.41-.09.62-.13.12-.02.23-.03.34-.05.18-.03.36-.06.54-.08.12-.01.23-.02.35-.04.17,0,.35-.02.52-.03.11,0,.24,0,.35,0,.17,0,.34,0,.52.01.11.01.21.01.33.02.18.02.37.04.55.08.09.02.18.02.27.04.27.06.53.12.8.22.46.15,1.24.76,1.98,1.43s1.46,1.42,1.8,1.9c2.29,3.15,4.24,6.27,5.88,9.47,2.64,5.14,4.48,10.49,5.69,16.5.11.59.23,1.19.33,1.8.19,1.08.18,2.13.05,3.16-.17,1.2-.54,2.37-1.06,3.53l-.05.14c-2.13,1.32-4.23,2.64-6.34,3.97-16.79,10.59-137.89,53.42-153.93,65.09,1.72,1.74,3.28,3.66,5.03,5.36,2.38-1.68,5.16-3.62,8.22-5.74l-25.08,18.27-27.88-88.84,26.02-5.49c-1.38.34-2.75.68-4.11,1,.41,1.94.49,3.96.59,5.93.01.39-.23-1.61-.21-1.22,13.88-3.51,135.06-29.47,149.45-33.43.03,0,.06-.03.1-.04.19-.05.39-.11.58-.18.1-.03.19-.06.29-.09.16-.06.31-.12.48-.17.11-.04.24-.09.36-.14.15-.05.31-.12.47-.17.2-.09.4-.16.61-.24.16-.06.32-.12.48-.18.22-.08.43-.17.65-.25l.34-.13c.22-.08.43-.16.66-.24l.31-.12c.27-.08.53-.18.8-.26.06-.03.12-.04.19-.06.33-.11.66-.21.99-.31h.03c.28-.09.55-.15.83-.22.09-.02.18-.04.26-.05Z"/>
    <path d="M155.83,189.27l168.03-36.23.57,2.7c-.08.01-.17.03-.26.05-.28.07-.55.13-.83.21h-.03c-.34.1-.66.2-.99.31-.07.02-.13.04-.19.06-.27.08-.53.18-.8.26l-.31.12c-.23.08-.44.16-.66.24l-.34.13c-.22.08-.43.17-.65.25-.16.06-.32.12-.48.18-.21.08-.4.15-.61.24-.16.06-.32.12-.47.17-.12.05-.24.1-.36.14-.17.06-.32.11-.48.17-.1.03-.19.06-.29.09-.2.08-.39.13-.58.18-.04.01-.07.03-.1.04-14.39,3.97-149.78,35.25-163.65,38.76-.01-.39-.03-.77-.04-1.16-.11-1.96-.18-3.99-.59-5.93,1.36-.33,2.73-.66,4.11-1Z"/>
    <path d="M310.82,152.94c.15-.03.29-.07.44-.11,9.81-2.44,19.54-4.91,28.93-7.38,1.6-.42,3.19-.85,4.78-1.29l.08-.02.15-.04c1.96-.54,3.92-1.1,5.88-1.66.07-.03.16-.06.25-.08,2.01-.58,4.02-1.17,6.03-1.75,1.99-.57,3.97-1.15,5.96-1.72.1-.04.2-.07.31-.1,1.96-.56,3.91-1.12,5.87-1.66l.23-.06c.85-.23,1.69-.47,2.53-.69l.58-.16c.65-.17,1.29-.35,1.94-.52.3-.07.59-.15.88-.22.56-.15,1.11-.29,1.67-.43.32-.08.63-.15.95-.23.55-.14,1.1-.27,1.65-.41l.9-.22c.61-.15,1.24-.29,1.85-.43.23-.05.46-.11.69-.16.85-.19,1.69-.38,2.53-.56.15-.03.28-.06.42-.09.71-.14,1.4-.29,2.1-.43.28-.06.56-.1.85-.16.57-.11,1.13-.22,1.71-.32l.92-.16c.55-.1,1.11-.19,1.66-.28.3-.05.61-.1.9-.15.61-.1,1.21-.18,1.8-.27.25-.03.5-.07.75-.1.84-.12,1.69-.23,2.53-.33.08,0,.16-.01.24-.03.76-.09,1.52-.16,2.28-.24.27-.02.55-.05.83-.07.57-.04,1.15-.1,1.72-.13.31-.02.62-.05.93-.07.54-.03,1.09-.06,1.64-.09.31-.01.63-.03.93-.04.58-.01,1.15-.03,1.73-.04.28-.01.55-.02.81-.02.85-.02,1.69-.02,2.53,0,1.04.01,1.97.08,2.84.17.42.05.81.1,1.18.16.33.05.63.11.93.18.33.07.65.15.95.25.27.07.51.16.75.25,0,0,.13.05.31.12,0,0,.34.14.66.29.28.14,3.68,2.45,4.27,6.51.73,5-3.36,8.53-3.61,8.74-10.38,5.02-20.8,8.12-31.65,11.38,3.39,3.9,5.97,10.16,5.79,14.88-.17,4.73-3.74,5.69-5.2,8.87-1.48,3.17.89,5.84-.73,8.44-.21.34-.42.66-.63.97-.07.1-.13.19-.2.29-.15.21-.29.42-.44.62-.08.12-.16.23-.26.35-.13.17-.26.35-.39.51-.09.12-.18.24-.28.35-.13.16-.25.32-.38.47-.1.12-.2.23-.3.34-.12.15-.24.29-.37.42-.1.11-.2.22-.3.32-.13.14-.25.27-.38.4-.1.1-.2.2-.31.3-.12.12-.25.25-.38.35-.11.1-.22.19-.32.3l-.38.32c-.11.09-.22.19-.33.27-.13.11-.25.21-.38.3l-.34.25c-.13.1-.26.19-.39.27-.11.08-.23.16-.34.23-.13.09-.27.17-.4.26-.12.06-.23.14-.35.2-.13.08-.28.16-.41.23l-.35.19c-.14.07-.27.14-.41.2-.12.06-.24.12-.36.17-.14.06-.29.12-.43.18-.12.05-.24.1-.36.15-.14.05-.29.1-.44.15-.11.04-.24.09-.36.13-.15.04-.31.1-.46.14-.13.03-.24.08-.35.11s-.23.05-.34.08c-.16.03-.3.07-.46.11-.12.03-.23.05-.35.08-.15.03-.3.06-.45.08-.12.02-.25.05-.37.06-.15.02-.3.05-.46.06-.12.02-.25.04-.37.05-.15.01-.3.03-.46.05-.12.01-.25.02-.38.03-.16,0-.31.01-.46.02l-.4.02c-.16,0-.32,0-.48,0-.13,0-.27,0-.4,0-.16,0-.32,0-.48-.01-.14,0-.28,0-.42,0-.16,0-.33-.01-.48-.02-.15-.01-.28-.01-.42-.03-.17,0-.34-.02-.51-.04-.14-.01-.28-.03-.43-.04-.17-.02-.34-.04-.51-.05-.14-.02-.28-.04-.43-.06-.17-.02-.36-.05-.54-.07-.14-.02-.28-.04-.42-.06-.19-.03-.37-.06-.57-.09-.14-.02-.27-.05-.41-.07-.2-.04-.4-.07-.6-.11l-.39-.08c-.23-.04-.46-.09-.69-.14-.11-.02-.22-.04-.33-.07-.34-.07-.69-.15-1.04-.24-3.26-.78-5.5-3.83-9.09-3.72-3.67,2.27-7.34,4.57-10.98,6.9-14.52,9.24-128.52,47.22-146.55,59.73l162.32-74.51-13.65-39.48-22.04,4.65-153.57,33.28,2.94-.72c7.13-1.74,122.33-28.88,129.57-30.67,2.67-.67,5.35-1.33,8.02-1.99Z"/>
  </g>
  <g>
    <path class="st0" d="M126.55,64.18c-.76.02-1.47.2-2.12.5-.49.23-.93.52-1.33.87-.26.23-.5.49-.71.77-.33.42-.59.89-.78,1.38-.13.34-.22.69-.28,1.05-.06.36-.09.73-.08,1.11l.84,24.09c.05,1.26.47,2.34,1.14,3.19.5.63,1.13,1.14,1.84,1.5.7.36,1.49.57,2.28.61,1.59.08,3.23-.52,4.44-1.97l20.79-24.84c.38-.46.67-.94.88-1.44,1.46-3.5-1.13-7.72-5.29-7.58l-21.62.76Z"/>
    <path class="st0" d="M232.05,80.33c.2.22.43.4.69.56.25.15.52.26.81.34.14.04.28.07.43.09.29.03.59.03.89-.03.15-.02.29-.06.44-.11.43-.15.85-.4,1.22-.78l6.26-6.48,6.27-6.48c.46-.47.72-1.03.82-1.59.02-.15.04-.29.04-.43.04-1.56-1.13-3.09-2.94-3.16l-6.02-.22-6.02-.23c-.42-.01-.82.06-1.19.2-.75.28-1.35.85-1.69,1.57-.17.35-.27.75-.29,1.18l-.5,13.4c-.01.35.03.68.12.98.13.46.36.86.66,1.19Z"/>
    <path d="M327.9,464.7c-11.85-4.97-24.68-3.92-37.04-5.76,1.57-5.89,4.33-11.57,5.57-17.64,10.32-50.93,3.38-111.05,3.38-111.05-6.65-37.89-19.49-65.36-26.48-80.07-5.06-10.62-9.86-19.26-13.45-25.4-.84-1.29-1.5-2.38-1.94-3.18-.92-1.65-1.78-3.34-2.66-5.01-.44-.86-1.02-1.75-1.35-2.69-1.54-2.43-2.97-5.06-4.53-7.53-.02-.02-.03-.05-.05-.07-.03-.05-.06-.1-.09-.15h0c-.25-.4-.51-.78-.77-1.16,0-.01-.02-.03-.03-.05-.09-.12-.16-.25-.25-.37-.24-.35-.5-.69-.75-1.03-.02-.02-.03-.04-.05-.06-.1-.13-.19-.27-.29-.4-.37-.47-.74-.92-1.13-1.36h0s-.01-.02-.02-.03c-.22-.24-.44-.48-.67-.72-.07-.07-.14-.14-.21-.22-.01-.02-.03-.04-.05-.06-.05-.06-.1-.13-.16-.2-.01-.01-.02-.03-.04-.04,0-.01-.01-.02-.01-.02l-.18-.24s-.02-.02-.03-.03c-.24-.33-.49-.68-.74-1.03-.03-.03-.05-.07-.08-.11-.04-.05-.08-.11-.12-.17-.07-.09-.14-.18-.21-.28-.02-.02-.04-.05-.06-.08-.03-.04-.06-.08-.09-.12.2-.14.4-.27.61-.41.02-.02.05-.03.07-.05.72-.48,1.44-.96,2.18-1.41,3.02-1.89,6.14-3.39,8.78-5.82,2.65-2.43,4.91-5.24,6.89-8.24,1.26-1.91,2.41-3.89,3.51-5.89.78-1.42,1.7-2.75,2.35-4.25.53-1.21.94-2.48,1.26-3.77.09-.36.17-.73.25-1.09.64-3.11.94-6.37.95-9.53,0-3.63-.11-7.26-.39-10.88-.56-7.14-1.77-14.23-3.65-21.14-.74-2.75-1.59-5.46-2.54-8.15,2.15-2.65,3.89-2.61,5.08-6.43,4.73-15.18,6.76-34.74,5.87-50.01-.24-4.29-1.38-6.13-3.14-7.03-.01-.01-.03-.02-.04-.02-.44-.22-.92-.38-1.43-.51-.16-.04-.31-.08-.47-.11-.09-.02-.19-.04-.28-.05-.45-.09-.92-.16-1.41-.22-.75-.1-1.54-.19-2.37-.31-2.26-.35-4.51-.61-6.73-.82-1.77-.17-3.53-.3-5.27-.41-.23-.01-.46-.03-.69-.04-3.93-.22-7.83-.31-11.72-.37-8.1-.14-16.16-.18-24.44-1.1-5.82-7.21-11.95-14.22-17.84-21.5,3.96-7.94,5.59-18.08-1.4-24.55-.28-.26-.56-.51-.84-.75-.08-.06-.15-.12-.22-.18-.28-.23-.55-.45-.82-.66-.02-.02-.04-.03-.06-.04-.26-.2-.51-.38-.76-.55-.07-.05-.14-.1-.21-.15-.26-.17-.53-.34-.78-.49-.04-.02-.07-.04-.1-.06-.23-.13-.46-.26-.69-.38-.07-.03-.14-.07-.2-.1-.25-.13-.5-.24-.74-.35-.04-.01-.08-.03-.12-.04-.22-.09-.43-.17-.64-.24-.06-.02-.13-.05-.19-.07-.24-.07-.48-.14-.71-.2-.04-.01-.08-.01-.12-.02-.2-.05-.4-.09-.61-.12-.05-.01-.11-.02-.17-.03-.22-.03-.45-.05-.67-.07h-.12c-.2-.01-.39-.01-.58,0h-.16c-.22.01-.43.03-.65.06-.03.01-.06.01-.1.02-.19.03-.38.06-.56.11-.05,0-.09.02-.14.03-.21.05-.42.11-.63.18-.02.01-.05.02-.07.03-.19.07-.37.14-.56.22-.04.02-.08.03-.12.05-.2.09-.4.19-.6.3,0,.01-.03.02-.05.03-.18.11-.36.22-.54.33-.04.02-.07.05-.11.07-.19.13-.38.27-.57.41l-.03.03c-.18.14-.35.29-.53.44-.03.03-.06.05-.1.08-.18.17-.36.34-.53.52-.01,0-.02.01-.03.02-.17.17-.33.35-.5.53-.03.04-.06.07-.09.11-.17.19-.34.39-.52.62-.16.2-.31.41-.47.62-.03.04-.06.09-.09.13-.16.22-.32.45-.48.7-.15.22-.3.46-.44.69-.03.05-.06.1-.09.15-.15.25-.29.5-.44.76-.14.26-.27.51-.41.77-.03.06-.06.12-.09.17-.13.27-.26.54-.4.82-.13.27-.25.55-.38.83-.02.06-.05.13-.08.19-.12.28-.25.57-.37.86-.11.29-.23.58-.34.88-.03.07-.06.14-.09.22-.11.29-.22.59-.33.9-1.22-.28-2.44-.54-3.66-.78-.32-.06-.64-.13-.96-.19-1.05-.2-2.09-.4-3.13-.57-.18-.03-.36-.07-.53-.1-1.19-.2-2.38-.38-3.56-.55-.29-.04-.58-.08-.87-.12-.97-.13-1.94-.26-2.91-.37-.25-.03-.5-.06-.75-.09-1.17-.13-2.33-.24-3.48-.34-.24-.02-.48-.04-.73-.06-.96-.07-1.91-.14-2.87-.2-.28-.01-.57-.03-.86-.05-1.14-.06-2.29-.11-3.43-.14-.15-.01-.31-.01-.46-.01-1.01-.03-2.01-.04-3.01-.04h-.96c-.77,0-1.54.01-2.31.03-.26,0-.53,0-.8.01-1.02.03-2.04.06-3.06.11-.22.01-.43.02-.64.04-.81.04-1.63.09-2.44.14-.34.02-.69.05-1.03.08-.71.05-1.41.11-2.12.17-.34.03-.68.06-1.02.09-.84.09-1.69.17-2.53.27-.18.02-.35.04-.53.06-1.01.11-2.01.24-3.02.38-.31.04-.62.09-.93.13-.72.1-1.45.21-2.17.32-.36.06-.72.11-1.07.17-.72.12-1.44.24-2.16.36-.32.06-.63.11-.94.17-1.02.18-2.03.37-3.04.57-.16.03-.32.06-.48.09-.87.18-1.74.36-2.62.54-.34.08-.69.15-1.03.23-.71.15-1.43.31-2.15.48-.35.08-.7.16-1.05.24-.81.19-1.62.39-2.44.58-.23.06-.45.12-.68.17-1.04.26-2.08.53-3.13.8-.27.07-.55.15-.82.22-.79.21-1.58.42-2.37.64-.36.1-.72.2-1.07.3-.76.21-1.51.43-2.27.64-.32.1-.65.19-.98.29-1.06.31-2.13.62-3.21.95-3.87-2.55-6.54-6.79-10.66-9.06-.26-.14-.51-.28-.77-.42-.06-.03-.11-.06-.17-.09-.2-.11-.39-.21-.59-.32-.08-.04-.17-.09-.25-.13-.17-.09-.34-.18-.51-.27-.09-.05-.19-.09-.28-.14-.16-.08-.32-.17-.48-.25-.1-.05-.2-.09-.3-.14-.15-.08-.31-.16-.46-.23-.1-.05-.2-.1-.3-.15-.16-.07-.31-.14-.47-.21-.1-.05-.19-.09-.29-.14-.16-.07-.31-.13-.47-.2-.1-.04-.19-.09-.29-.13-.16-.07-.32-.13-.48-.2-.09-.03-.18-.07-.27-.1-.18-.07-.36-.14-.53-.2-.08-.03-.15-.06-.22-.08-.5-.18-1-.34-1.49-.48-.06-.02-.12-.03-.18-.05-.19-.05-.37-.09-.55-.14-.09-.02-.18-.03-.26-.05-.16-.04-.32-.07-.47-.1-.1-.02-.2-.03-.29-.05-.15-.02-.3-.04-.44-.06-.1-.02-.2-.03-.3-.04-.14-.01-.28-.03-.42-.04-.11-.01-.21-.01-.31-.02-.14,0-.28-.01-.42-.01h-.33c-.09,0-.18,0-.27.01-.13,0-.26.01-.38.02-.09,0-.18.01-.27.02-.13.01-.26.03-.38.05-.09.01-.17.02-.26.03-.13.03-.27.05-.4.08-.08.02-.16.03-.24.05-.15.04-.3.08-.46.12-.05.02-.11.03-.17.05-.21.07-.42.14-.64.22-.2.08-.41.17-.61.27-.06.02-.12.06-.19.09-.14.07-.28.14-.43.22-.07.04-.15.09-.22.13-.13.08-.26.15-.39.24-.08.05-.16.1-.24.16-.12.08-.25.17-.37.26-.08.06-.16.12-.24.18-.12.1-.24.19-.36.29-.08.07-.17.14-.25.21-.12.11-.24.22-.35.33-.08.07-.16.15-.25.23-.12.12-.24.24-.36.37-.07.08-.15.16-.22.24-.14.15-.27.3-.4.45-.06.08-.12.15-.19.22-.19.24-.38.48-.57.74-7.67,10.29-4.1,21,4.07,30.04.02.79.29,1.49.1,2.2-2.53,9.47-5.22,19-7.39,28.5-.01.01-.03.02-.04.03-2.93,2.61-5.16,1.84-7.68,5.86-1.37,2.19-3.27,8.55-3.75,11.7-.47,3.14.13,5.37,2.82,6.7.07.04.15.06.23.08.03.01.06.01.09.01.06,0,.12.02.18.02.04,0,.09,0,.13-.01h.13s.1,0,.15-.02c.04-.01.08-.01.13-.02l.15-.03s.09-.02.14-.03.11-.02.17-.03c.05-.02.1-.03.15-.04.07-.02.15-.03.23-.05.04-.01.09-.02.13-.03.05,0,.1-.02.15-.03.04-.01.08-.02.13-.02.04-.01.08-.02.13-.02.04,0,.08,0,.11,0,.04-.01.08-.01.14-.01s.11,0,.17.01c.01,0,.02,0,.03,0,.04.01.09.02.13.04.01,0,.03.01.04.02.04.02.07.04.12.09.03.04.06.09.08.15.01.01.01.03.01.04.02.05.03.1.03.16v.07c0,.08,0,.17-.01.27-.01.11-4.56,34.71-5.48,57.05-.12,3-.24,7.39-.17,12.78-.21.38-.38.81-.49,1.3-5.93,27.02-12.74,53.74-20.48,80.28-3.88,13.34-4.32,27.35,2.39,39.9,6.09,11.4,16.54,20.53,26.12,29.38-4.1,50.11-6.59,71.27-8.16,78.2-.12.54-.97,4.21-1.95,9.23-1.07,5.5-1.93,10.8-2.75,16.53-2.17,15.17,1.55,28.47,3.39,43.31-3.47.27-7.56.64-11.78,1.31-.66.1-1.32.21-1.98.33-.17.03-.34.06-.51.09-.42.08-.84.16-1.25.24-.68.13-1.35.27-2.02.42-2.3.52-4.57,1.14-6.75,1.9-.28.09-.56.19-.83.29-1.3.48-2.56,1-3.77,1.59-.45.21-.88.43-1.31.66-.31.16-.6.32-.9.49-.16.1-.33.2-.5.3-.36.22-.72.44-1.07.67-.31.21-.6.42-.9.63-.74.54-1.44,1.1-2.1,1.71-.18.17-.36.34-.53.52-.36.35-.69.71-1.02,1.08-.16.18-.31.37-.47.57-1.98,2.49-3.29,5.49-3.63,9.09-.09.95-.12,1.85-.12,2.71v.02c.02,1.63.2,3.1.53,4.42.08.28.15.56.24.83.14.44.29.86.46,1.26,4.49,10.45,20.33,9.33,32.69,10.05h.01c.5.03,1.02.05,1.54.08.17,0,.35.02.52.03.36.02.72.03,1.09.05.21.01.43.02.64.03.34.01.68.03,1.03.04.23.01.47.02.7.03.34.01.69.02,1.03.03.24,0,.48.02.72.02.35.02.7.02,1.06.03.25.01.5.02.75.02.36.01.72.02,1.08.02.25.01.5.01.75.02.38,0,.77.01,1.17.01.23,0,.45.01.68.01.5,0,.99,0,1.49.01h.54c.49,0,.98-.01,1.48-.01h.45c.44-.01.89-.01,1.34-.02h.31c.54-.01,1.09-.03,1.64-.04.11,0,.23,0,.35-.01.44-.01.89-.02,1.33-.04.15,0,.29-.01.43-.01,1.11-.04,2.22-.09,3.33-.15.14-.01.27-.01.41-.02.45-.03.91-.05,1.36-.08.12,0,.23-.02.34-.02.56-.04,1.11-.08,1.66-.12.09-.01.18-.02.27-.02.47-.04.93-.08,1.39-.12.14-.01.28-.02.42-.04.51-.04,1.03-.09,1.53-.14.04,0,.07,0,.1,0,.55-.06,1.09-.12,1.62-.18.13-.02.26-.03.38-.05.43-.05.86-.1,1.29-.16.12-.02.24-.03.36-.05.53-.07,1.05-.14,1.57-.22.07-.01.13-.02.2-.03.45-.07.9-.14,1.35-.22.13-.02.26-.04.4-.07.44-.07.88-.15,1.31-.23.07-.01.14-.03.2-.04.5-.09.98-.19,1.47-.3.11-.02.23-.05.34-.07.38-.08.76-.17,1.14-.26.12-.02.24-.05.36-.08.46-.11.93-.23,1.38-.35.04-.01.08-.02.12-.03.41-.11.81-.23,1.21-.35.13-.03.25-.07.37-.1.35-.11.7-.22,1.05-.33.08-.03.17-.06.25-.09.42-.14.82-.28,1.22-.43.1-.03.19-.07.28-.1.31-.12.62-.25.92-.37.11-.05.22-.09.33-.13.38-.17.75-.33,1.11-.5.29-.14.57-.28.85-.42.61-.31,1.19-.64,1.73-.96.35-.21.69-.43,1.01-.64,13.25-8.94,2.51-22.41,7.27-33.78,8.74-20.88,21.23-28.96,38.64-33.27.72-.18,1.45-.35,2.18-.52,1.29-.28,2.59-.56,3.93-.81.92-.18,1.85-.35,2.8-.52.51-.08,1.02-.17,1.53-.26,1.27-.21,2.55-.41,3.87-.6,1.18-.18,2.38-.35,3.58-.51.29-.04.58-.08.87-.12,1.21-.16,2.42-.31,3.65-.46.07-.01.14-.02.21-.02,1.16-.14,2.33-.27,3.51-.39.29-.04.58-.07.88-.1,1.24-.12,2.48-.24,3.73-.35.12-.01.25-.02.37-.03,1.15-.09,2.3-.18,3.45-.26.29-.02.58-.04.87-.06,1.26-.08,2.51-.15,3.77-.21.17,0,.34,0,.52-.02,1.12-.05,2.24-.09,3.37-.12.29-.01.57-.02.86-.02,1.25-.03,2.51-.05,3.76-.05h.18c.71,0,1.41.01,2.11.01.17.01.35.01.52.01.78.01,1.56.03,2.34.06h.19c.82.03,1.64.06,2.45.1.18,0,.37.02.55.03.8.04,1.61.08,2.41.14.13.01.25.02.38.03.74.05,1.48.11,2.21.17.14.02.28.03.41.04.8.07,1.59.15,2.38.24.17.02.35.04.52.06.81.09,1.61.19,2.42.3h.05c.79.11,1.57.23,2.36.35.16.03.32.05.49.08.77.13,1.54.26,2.31.4.14.03.27.05.41.08.72.14,1.43.28,2.15.43.09.02.19.04.29.06.76.17,1.52.34,2.27.52.16.04.32.08.48.12.76.19,1.51.38,2.26.59.06.02.13.04.2.06.7.19,1.4.4,2.09.61.14.05.28.09.42.13.72.23,1.43.47,2.14.71.14.05.28.1.42.15.68.24,1.36.49,2.03.75.05.02.11.04.17.06.7.28,1.39.56,2.08.86.15.06.3.13.44.19.68.3,1.35.6,2.02.92.09.05.18.09.28.14.61.3,1.21.6,1.81.92.12.06.23.12.35.18.64.34,1.27.69,1.89,1.06.14.08.27.16.4.24.64.38,1.27.76,1.89,1.17h.01c19.7,12.82,5.07,26.89,8.19,43.57,2.14,11.39,7.52,13.48,18.14,14.87,16.82,2.21,32.86,2.31,50.01,2.95.14.01.29.01.44.02.17,0,.34.01.52.02.33.01.66.02,1,.04.1,0,.2,0,.3.01.24,0,.48.02.72.03.15,0,.3.01.45.01.2,0,.4.02.61.02.15.01.3.01.46.02.2,0,.41.01.61.02.16,0,.32,0,.48.01.21,0,.41.01.62.01.16,0,.33.01.5.01.2,0,.4.01.61.01h1.43c.25,0,.51,0,.76-.01h.33c.29-.01.58-.01.88-.02.05,0,.11,0,.17-.01.35-.01.7-.02,1.04-.04.09,0,.19-.01.28-.01.26,0,.52-.03.78-.05.11,0,.22-.01.33-.02.28-.02.56-.04.85-.06.07-.01.14-.02.21-.02.34-.03.69-.07,1.03-.11.09-.01.17-.02.26-.03.26-.03.52-.06.78-.1.11-.01.22-.03.32-.04.27-.04.54-.08.81-.13.07,0,.15-.02.23-.03.33-.06.67-.13,1-.19.07-.02.15-.04.22-.05.26-.06.52-.11.78-.17.1-.03.2-.05.3-.08.25-.06.5-.12.75-.19.08-.02.16-.05.24-.07.31-.09.63-.19.94-.29.06-.02.12-.04.19-.06.25-.09.49-.17.74-.27.09-.03.19-.07.28-.11.23-.08.45-.18.68-.27.07-.04.15-.07.23-.1.29-.13.58-.27.86-.42.05-.02.1-.05.14-.07.24-.12.47-.25.69-.38.09-.05.17-.1.25-.15.2-.12.4-.25.59-.37.08-.05.15-.1.22-.15.26-.18.51-.36.75-.55.03-.03.07-.05.1-.08.21-.17.41-.34.61-.52.08-.07.15-.13.22-.2.16-.15.32-.31.48-.48.07-.06.13-.13.19-.2.22-.22.42-.46.62-.7.02-.02.03-.05.05-.07.18-.22.35-.46.52-.7.05-.08.11-.16.16-.25.13-.19.25-.39.37-.6.05-.09.1-.17.15-.26.16-.28.31-.57.45-.88t.01-.01c5.69-12.26-5.07-20.31-15.11-24.53ZM231.77,64.76c.02-.43.12-.83.29-1.18.34-.72.94-1.29,1.69-1.57.37-.14.77-.21,1.19-.2l6.02.23,6.02.22c1.81.07,2.98,1.6,2.94,3.16,0,.14-.02.28-.04.43-.1.56-.36,1.12-.82,1.59l-6.27,6.48-6.26,6.48c-.37.38-.79.63-1.22.78-.15.05-.29.09-.44.11-.3.06-.6.06-.89.03-.15-.02-.29-.05-.43-.09-.29-.08-.56-.19-.81-.34-.26-.16-.49-.34-.69-.56-.3-.33-.53-.73-.66-1.19-.09-.3-.13-.63-.12-.98l.5-13.4ZM183.17,8.69c.16-.18.32-.35.48-.51.32-.32.64-.61.95-.84.47-.36.91-.59,1.31-.65,0,0,0-.01.02-.01.05,0,.09-.01.13-.01h.08c.08,0,.15.01.22.03h.02s.01,0,.02,0c.41.1.8.22,1.18.35,1.51.5,2.76,1.17,3.77,1.97.25.2.49.4.71.62.45.43.83.89,1.16,1.37h0c.07.1.12.2.18.29.23.38.44.78.6,1.19.01.01.01.02.02.03h0c.17.42.3.85.41,1.29h0c.16.71.24,1.43.24,2.18,0,1.67-.39,3.45-1.14,5.26h0s0,.02-.01.02h0c-.21.52-.45,1.03-.72,1.55-.05.1-.09.2-.15.3-.01-.01-.02-.01-.03-.02-.42-.28-.84-.56-1.25-.82-1.28-.85-2.5-1.64-3.7-2.43-.26-.17-.52-.34-.78-.52-.4-.26-.8-.52-1.2-.79-.07-.04-.13-.08-.19-.13-.46-.3-.92-.61-1.38-.94-.13-.08-.27-.18-.4-.27-.32-.23-.65-.46-.98-.7-.06-.04-.13-.09-.2-.14-.13-.1-.27-.2-.41-.31-.26-.18-.52-.37-.78-.57-.41-.3-.82-.61-1.24-.93-.13-.11-.26-.2-.39-.3-.06-.05-.12-.1-.19-.15.5-1.17,2.04-3.65,3.64-5.42ZM62.72,64.6c.09-.31.18-.63.27-.95.15-.52.3-1.04.45-1.56.38-1.31.76-2.62,1.15-3.93.15-.48.29-.95.43-1.43l.18-.6c.42-1.41.85-2.83,1.27-4.24.04-.13.08-.27.12-.4.52-1.75,1.04-3.49,1.55-5.23h.01c.28-.04.55-.07.81-.08.05-.01.09-.01.13-.01h.23c.08-.01.17-.02.24-.02.06,0,.12.01.18.01h.2c.21.01.41.03.61.04.02,0,.04,0,.06,0,.22.02.45.04.68.07.23.03.46.06.7.09h.06s.03.01.05.01c.12,0,.24.02.36.03.11.01.23.03.35.04.06,0,.11,0,.17,0,.21.01.43.02.66.03h.15c.15,0,.31-.01.46-.01.15-.01.3-.01.46-.02.62-.04,1.3-.13,2.01-.26.36-.07.72-.14,1.09-.22,1.85-.4,3.83-.93,5.57-1.26.26-.05.53-.1.77-.14-.08-.11-.16-.2-.24-.29l-.02-.02c-.12-.13-.26-.23-.4-.33,0-.01-.03-.03-.04-.04-.02-.01-.05-.02-.07-.04-.14-.08-.28-.16-.43-.23-.16-.07-.32-.13-.49-.17-.1-.03-.21-.06-.32-.08-.24-.05-.49-.09-.75-.12-.75-.1-1.54-.16-2.28-.46-.44-.18-.86-.37-1.28-.55-.39-.18-.75-.36-1.13-.54-.3-.14-.61-.28-.9-.43,0,0,0-.01-.02-.01-.17-.09-.34-.18-.51-.27-.17-.09-.35-.18-.52-.27-.23-.14-.46-.27-.69-.41-.12-.07-.23-.13-.35-.2-.14-.08-.29-.16-.43-.25-.08-.05-.15-.09-.22-.15-.21-.13-.42-.27-.63-.41-.08-.05-.17-.1-.25-.16-.09-.06-.19-.12-.28-.18-.06-.04-.11-.08-.16-.13-.15-.1-.29-.21-.44-.32-.26-.19-.51-.37-.76-.57-.11-.09-.24-.17-.35-.26-.15-.12-.29-.25-.43-.38-.24-.2-.47-.4-.69-.6-.14-.13-.29-.25-.43-.38-.13-.12-.24-.25-.37-.38-.09-.09-.18-.18-.26-.27-.14-.14-.29-.28-.42-.43-.16-.17-.3-.34-.45-.52-.08-.09-.15-.17-.23-.26-.04-.06-.1-.12-.14-.17-.06-.06-.1-.12-.15-.17-.14-.18-.28-.37-.41-.56-.07-.07-.12-.15-.18-.23-.12-.16-.22-.34-.34-.51-.22-.33-.44-.65-.63-.98-.16-.26-.3-.53-.44-.8-.14-.26-.28-.52-.41-.79-.04-.09-.1-.18-.14-.27-.09-.19-.15-.4-.23-.59-.12-.27-.23-.54-.33-.82-.06-.14-.12-.27-.17-.42-.07-.21-.13-.43-.2-.64-.03-.12-.07-.23-.11-.35-.02-.07-.04-.15-.06-.22-.03-.07-.05-.15-.07-.23-.08-.28-.14-.58-.2-.87-.02-.09-.05-.19-.07-.29-.02-.11-.05-.22-.07-.33-.05-.23-.07-.47-.11-.7-.05-.31-.1-.63-.14-.94-.02-.15-.05-.29-.06-.44-.03-.28-.05-.58-.07-.87,0-.1-.01-.19-.02-.29-.03-.59-.05-1.18-.05-1.79,0-1.27.08-2.58.24-3.95,0-.01,0-.01,0-.02h0c.04-.31.08-.6.14-.87.02-.08.03-.16.05-.24.06-.25.12-.49.19-.72.01-.02.02-.05.02-.07.08-.24.17-.46.27-.68.03-.06.05-.12.08-.18.09-.19.19-.36.29-.53.02-.02.03-.05.04-.07.12-.18.24-.34.37-.5.04-.04.08-.08.11-.12.12-.13.25-.25.37-.36.02-.02.04-.04.06-.06.15-.12.31-.23.46-.33.05-.02.09-.05.13-.07.15-.08.29-.15.44-.22.03,0,.05-.02.08-.03.17-.07.35-.12.53-.17.05-.01.1-.02.14-.03.17-.03.33-.06.5-.08h.02s.05-.01.07-.01c.16-.02.32-.02.49-.02h.12s.08,0,.13.01c.18,0,.36.02.55.04.02,0,.04.01.06.01h.02c.21.03.42.07.63.12.02,0,.03.01.05.01.03.01.07.02.1.02h.01s.1.03.15.05c.12.02.24.06.37.1.03.01.06.02.09.03h.01s.02.01.03.01h.01c.21.07.43.16.65.24h.01s0,.01.01.01c.05.02.09.04.14.06.23.09.45.19.67.3.02,0,.03.02.04.02.58.29,1.13.59,1.67.9.04.02.08.04.12.07.15.09.29.19.45.28.34.21.69.43,1.02.65.08.05.16.09.23.14.23.15.45.32.67.48.11.08.23.16.34.25.05.03.1.06.14.09.11.08.22.16.32.25.26.2.52.41.78.62.17.14.35.29.52.44.15.13.3.25.44.38,2.13,1.9,3.95,4.02,5.66,6.27,2.27,3,4.32,6.23,6.57,9.46.56.81,1.13,1.62,1.73,2.43.12.17.25.34.38.49.02.01.03.02.04.04.01.01.03.02.04.04.06.06.12.12.18.18.06.06.13.11.19.16.02.01.03.03.05.05,0,0,.02,0,.02.01.15.1.31.19.49.25.01.01.03.02.04.03.02,0,.05,0,.07.01.19.05.39.1.62.1h0c0-.61-.01-1.36-.03-2.18-.01-.55-.03-1.13-.05-1.72-.03-.9-.06-1.83-.1-2.73-.09-2.41-.2-4.62-.24-5.44,0-.05-.02-.1-.03-.15,0-.04.01-.07.01-.1v-.1h.01s.15-.06.42-.16c.14-.04.31-.11.5-.18.39-.14.89-.32,1.47-.52,3.2-1.13,8.94-3.07,13.03-3.94t.02-.01c.35-.07.69-.14,1.02-.2.02,0,.03-.01.05-.01s.04-.01.06-.01c2.6-.46,5.51-.94,8.6-1.4,4.13-.62,8.61-1.2,13.16-1.64,3.41-.32,6.87-.57,10.26-.7,6.78-.24,13.28,0,18.6,1.09,13.87,2.84,22.2,8.3,29.98,15.52.87.8,1.72,1.62,2.58,2.47.86.84,1.71,1.71,2.58,2.59.86.88,1.73,1.79,2.62,2.71.44.46.89.93,1.34,1.4,3.14,3.28,6.49,6.78,10.35,10.46-.94.04-1.88.07-2.81.1-.2,0-.41.01-.61.01-.44,0-.88.02-1.32.02-.45.01-.89.02-1.33.02h-.54c-.38.01-.75.01-1.13.01h-.63c-.42-.01-.85-.01-1.28-.01-1.13,0-2.26-.01-3.38-.03h-.63c-1.34,0-2.69-.02-4.04-.03h-.82c-.21,0-.41,0-.62.01-.3,0-.6,0-.9.01h-.26c-.38,0-.76,0-1.14,0-.49,0-.99.01-1.48.03-.59.01-1.18.03-1.77.05-2.81.1-5.63.18-8.44.24-1.85.05-3.7.09-5.55.12-7.41.14-14.81.23-22.22.42-5.56.15-11.12.35-16.68.69-.53.03-1.06.07-1.59.11-.8.05-1.6.1-2.4.16-.41.02-.81.05-1.22.08-.4.03-.79.06-1.19.1-.8.06-1.6.13-2.4.2-.8.07-1.6.14-2.41.22-.8.08-1.6.16-2.4.24-.67.07-1.34.14-2.01.22-.87.1-1.74.2-2.61.31-.87.11-1.73.22-2.6.34-.72.1-1.45.21-2.17.33-.87.14-1.74.29-2.6.46-.53.1-1.06.21-1.58.32-.26.06-.53.11-.79.17-.79.18-1.58.36-2.37.55-2.1.5-4.19,1.07-6.28,1.67-1.04.31-2.08.62-3.12.94-.75.23-1.5.47-2.25.71-.57.18-1.13.36-1.69.54-.57.18-1.14.37-1.7.56-.2.06-.4.12-.6.19-1.04.34-2.07.69-3.11,1.04-.95.31-1.9.63-2.85.95-.24.08-.47.16-.7.24-.76.25-1.51.5-2.26.75-.35.11-.7.23-1.04.34-.64.21-1.28.42-1.92.63-.38.12-.76.24-1.15.37-.32.1-.64.21-.97.31-.28.09-.57.17-.85.26-.39.12-.78.24-1.17.36-.62.19-1.23.38-1.85.56-.37.11-.75.22-1.13.33-.15.04-.3.09-.45.13-.51.15-1.03.29-1.54.43-.32.09-.65.18-.98.27-.98.26-1.97.51-2.96.75.37-1.41.76-2.82,1.16-4.23ZM153.46,71c-.21.5-.5.98-.88,1.44l-20.79,24.84c-1.21,1.45-2.85,2.05-4.44,1.97-.79-.04-1.58-.25-2.28-.61-.71-.36-1.34-.87-1.84-1.5-.67-.85-1.09-1.93-1.14-3.19l-.84-24.09c-.01-.38.02-.75.08-1.11.06-.36.15-.71.28-1.05.19-.49.45-.96.78-1.38.21-.28.45-.54.71-.77.4-.35.84-.64,1.33-.87.65-.3,1.36-.48,2.12-.5l21.62-.76c4.16-.14,6.75,4.08,5.29,7.58ZM288.74,445.3s-.02,0-.02.01c-.05.01-.09.02-.14.02-.13.02-.26.04-.39.05-.8.12-1.61.22-2.41.33-.12.02-.24.03-.36.05-.12.01-.25.03-.37.05-.03,0-.06,0-.09.01-.96.12-1.91.24-2.85.35-.03,0-.05,0-.08.01-.05,0-.1,0-.15,0-.04.01-.09.01-.13.02-.88.1-1.75.19-2.63.28-.23.02-.46.05-.69.07-.97.09-1.94.18-2.91.26-.14.01-.27.02-.39.03-.87.07-1.74.13-2.6.19h-.04c-.12.01-.25.02-.38.02-.09.01-.19.02-.29.02-.01,0-.01.01-.02.01-.96.05-1.92.11-2.87.15-.18,0-.34.01-.5.02h-.04c-.83.03-1.66.06-2.49.08h-.03c-.22,0-.43.01-.64.02-.97.02-1.93.03-2.9.03h-.47c-1.25-.01-2.49-.02-3.72-.06-.1,0-.19,0-.29-.01-.74-.02-1.48-.05-2.23-.08-.55-.03-1.11-.05-1.67-.08-3.9-4.9-2.89-10.76-9.3-14.19-.59-.32-1.19-.62-1.79-.93-.25-.13-.49-.26-.73-.38-.21-.1-.41-.2-.61-.3-.84-.42-1.69-.82-2.53-1.21,0,0-.02,0-.03-.02-.05-.02-.1-.04-.15-.06-.8-.37-1.6-.72-2.4-1.07-.22-.09-.42-.18-.63-.26-.85-.36-1.7-.71-2.55-1.04h-.01c-.05-.02-.1-.04-.15-.06s-.1-.04-.16-.06c-.77-.3-1.55-.59-2.33-.88-.07-.02-.14-.05-.22-.08-.13-.05-.27-.1-.41-.14-.86-.31-1.71-.61-2.57-.89-.08-.02-.16-.05-.24-.07-.06-.02-.12-.04-.19-.06-.76-.25-1.52-.49-2.28-.72-.13-.04-.25-.07-.37-.11-.09-.03-.17-.05-.26-.08-.86-.25-1.72-.5-2.58-.73-.18-.05-.36-.09-.53-.14-.76-.2-1.51-.39-2.25-.58-.21-.05-.41-.1-.62-.15-.87-.21-1.74-.41-2.61-.6-.07-.02-.13-.03-.2-.04-.01-.01-.02-.01-.03-.01-.12-.03-.24-.05-.35-.08-.76-.16-1.51-.31-2.26-.46-.07-.01-.13-.02-.2-.04-.03,0-.06-.01-.09-.01-.05,0-.11-.02-.16-.03-.05-.01-.09-.02-.14-.03-.88-.17-1.76-.33-2.64-.48-.05,0-.1-.02-.14-.02-.17-.03-.33-.06-.49-.08-.76-.13-1.52-.25-2.28-.36-.18-.03-.36-.06-.54-.09-.89-.12-1.79-.25-2.68-.36-.21-.02-.41-.05-.62-.07-.81-.1-1.62-.2-2.44-.28-.06-.01-.12-.02-.18-.02-.07-.01-.13-.02-.19-.02-.92-.1-1.85-.19-2.77-.27-.19-.01-.37-.03-.56-.04-.89-.08-1.77-.14-2.66-.2-.05-.01-.11-.01-.16-.01-.95-.07-1.91-.12-2.87-.17-.15-.01-.31-.01-.46-.02-1.94-.09-3.89-.15-5.83-.18h-.17c-.06-.01-.12-.01-.17-.01-1.19-.01-2.38-.02-3.57-.02-.52,0-1.04,0-1.55.02-.52.01-1.04.01-1.56.02-.5,0-.99.02-1.49.03-.81.02-1.62.04-2.42.07-.49.01-.98.03-1.47.05-1.17.04-2.34.1-3.5.16-.49.03-.98.06-1.46.09-.39.02-.78.05-1.17.07-.39.02-.78.05-1.17.07-.56.04-1.12.08-1.69.12-.76.06-1.52.12-2.29.18-.49.04-.99.07-1.48.12-1.15.09-2.29.2-3.43.31-.55.05-1.09.1-1.63.16-.37.04-.74.07-1.11.11s-.74.08-1.11.12c-.53.05-1.06.11-1.59.17-.49.05-.97.11-1.46.16-.49.06-.97.11-1.46.17-.22.02-.44.05-.67.07-2.51.3-4.87.66-7.11,1.09-.02,0-.03.01-.04.01-.72.14-1.41.28-2.09.43-.48.1-.96.22-1.43.33-.14.03-.28.06-.42.09-.07.02-.12.04-.17.05-.57.14-1.13.28-1.67.43-.61.17-1.2.33-1.78.51-.6.18-1.19.37-1.78.56-.35.12-.68.23-1.02.35-.33.12-.66.25-.99.37-.5.18-1,.37-1.48.56-.62.25-1.25.5-1.85.76-1.09.48-2.16.99-3.2,1.52-.5.26-.99.52-1.48.79-.07.04-.13.07-.2.11-.46.25-.91.51-1.36.78-.5.29-.99.59-1.47.9-.43.27-.85.55-1.27.82-1.02.68-2.01,1.39-3,2.12-5.64,4.23-10.88,9.46-16.84,15.69-.21.21-.42.43-.62.64-.22.23-.45.47-.67.7-.33.35-.67.71-1.01,1.07-.11.11-.21.22-.32.33-.44.47-.89.94-1.36,1.43-.81.13-1.6.24-2.4.34-.1.02-.21.04-.31.05-.19.02-.38.04-.57.07-.88.11-1.75.2-2.62.29-.14,0-.29.02-.44.04-.16,0-.32.02-.48.04-.44.04-.87.07-1.3.1-.2.01-.4.03-.6.04-.14.01-.28.02-.41.03-.86.05-1.72.09-2.57.12-.18.01-.37.01-.55.02-.87.02-1.73.04-2.59.04h-.09c-.84,0-1.68-.02-2.52-.04-.22-.01-.45-.02-.67-.02-.26-.01-.52-.03-.78-.04-.51-.02-1.02-.04-1.54-.07-.09,0-.19,0-.28-.02-.85-.05-1.7-.12-2.55-.2-.21-.02-.42-.04-.63-.06-.74-.07-1.46-.15-2.17-.23-.17-.02-.32-.04-.47-.06-.85-.1-1.69-.22-2.54-.35-.19-.03-.38-.06-.57-.09-.72-.11-1.43-.23-2.13-.35-.19-.03-.38-.07-.58-.1-.84-.16-1.69-.32-2.54-.5-.17-.03-.33-.07-.5-.1-.44-.09-.88-.2-1.33-.3-.03,0-.07-.01-.11-.02-.24-.05-.48-.1-.72-.16-.23-.05-.43-.1-.64-.15-.86-.2-1.71-.41-2.57-.63-.12-.03-.24-.06-.35-.09-.25-.07-.51-.14-.76-.21-.51-.13-1.01-.27-1.52-.41-.24-.07-.48-.13-.72-.2-.84-.24-1.67-.48-2.52-.74-.03-.01-.06-.02-.09-.03-.02-.35-.04-.7-.06-1.05-.21-4.1-.6-8.17-.82-12.22-.03-.54-.06-1.06-.08-1.59-.03-.77-.06-1.54-.07-2.31-.02-.58-.02-1.16-.02-1.74v-.73c0-.09,0-.19,0-.28,0-.44.01-.88.04-1.32-.01-.14,0-.28.01-.42v-.1c.04-.92.1-1.85.19-2.77.17-1.91.45-3.83.87-5.76.13-.61.27-1.21.4-1.79,1.95-8.68,3.48-13.94,5.45-20.55.92-3.07,2.26-8.06,4.75-32.48,1.09-10.68,2.3-24.14,3.35-39.98,9.21,8.8,18.46,17.55,27.76,26.24-3.03,4.27-6.32,8.37-9.86,12.25-3.9,4.27,2.44,10.65,6.36,6.36,19.69-21.53,40.6-54.72,43.96-83.67.26-2.2-.91-3.54-2.47-4.05-5.34-3.44-7.5-8.3-10.35-13.76-2.82-5.4-6.49-9.62-11.68-12.86-4.92-3.08-9.45,4.7-4.54,7.77,5.52,3.45,7.69,8.38,10.59,13.92,2.34,4.48,5.27,8.13,9.16,11.1-2.33,17.42-17.06,40.39-26.14,55.33-7.92-7.41-15.81-14.85-23.65-22.33-10.95-10.43-23.49-20.55-32.54-32.74-8.47-11.4-9.06-24.68-5.24-38,2.98-10.41,6.06-20.79,8.81-31.27,4.31-16.45,6.27-32.15,9.92-48.75.44-2.01.47-4.12.56-6.47-.05-2.13-.39-3.23-.39-5.36,0-24.19,3.44-47.8,7.64-71.76.32-.33.62-.67.94-1,15.26-2.29,30.58-4.66,45.78-7.06.32-.05.64-.1.96-.15-.41.06,1.98,14.68,2.26,16,1.33,6.19,3.05,12.59,5.98,18.23,2.69,5.19,6.94,8.1,12.67,9.3,6.19,1.3,12.54,1.72,18.86,1.59,8.13-.18,16.24-1.27,24.1-3.33,2.03-.53,4.58-1.15,6.48-2.43.06-.04.12-.08.18-.12.52-.35.98-.77,1.36-1.24.14-.16.26-.33.37-.51.14-.22.27-.45.39-.68.07-.12.13-.24.18-.37.14-.3.27-.62.4-.96.07-.2.15-.41.23-.63.15-.43.31-.89.49-1.38.09-.24.19-.5.29-.76.16-.41.31-.82.45-1.24.05-.14.1-.28.15-.42.09-.28.19-.57.29-.86.14-.43.28-.87.41-1.32.34-1.12.66-2.27.97-3.45.18-.71.37-1.42.55-2.15.12-.48.24-.96.36-1.45.32-1.29.64-2.6.96-3.91,1.77-7.08,3.78-14.1,7.56-18.56.06-.08.13-.15.19-.23.05-.06.11-.12.16-.18.05-.05.1-.12.15-.17.08-.1.16-.18.24-.27.04-.04.09-.09.13-.14.04-.04.08-.09.12-.13.08-.09.16-.17.24-.25.08-.08.16-.17.24-.25.08-.08.15-.15.22-.22.04-.04.08-.08.12-.11.04-.04.08-.08.12-.12.07-.07.15-.13.22-.2s.15-.14.23-.21c.07-.06.14-.11.21-.17.07-.07.15-.13.22-.19.07-.06.14-.11.21-.16s.14-.11.22-.16c.06-.05.13-.1.19-.14.08-.05.15-.1.22-.15.07-.04.13-.07.19-.11.07-.05.14-.09.22-.13.06-.03.12-.07.18-.1.07-.03.14-.07.21-.1.06-.03.12-.06.18-.09.07-.03.14-.05.21-.08.06-.02.12-.05.18-.07.07-.02.14-.04.2-.06s.12-.04.18-.05c.07-.02.14-.04.2-.05.06-.01.12-.03.17-.04.07-.01.14-.02.21-.03.06,0,.11-.01.17-.02.07,0,.14-.01.21-.01.05,0,.11-.01.16-.01h.04s.09.01.14.01c.07,0,.14,0,.21.01.03,0,.06,0,.09.01h.08c.08.01.15.02.22.03.04.01.07.01.1.02.03,0,.06.01.09.01.07.02.14.03.21.05.01,0,.03,0,.04.01.05.01.1.02.14.03.07.02.14.04.22.06.02.01.04.01.06.02,0,0,.02.01.03.01.03.01.06.02.09.03.08.02.15.05.22.07.03.01.07.03.1.04.03.01.06.02.09.03.04.02.07.03.11.04.03.02.07.04.11.05.06.03.13.05.19.08.08.04.15.07.23.11.06.02.13.05.19.09.08.03.16.07.24.11.06.04.13.07.19.1.08.04.17.09.25.14.07.03.13.06.19.1.09.05.18.1.28.15.05.04.11.07.17.1.1.06.21.12.31.18.05.04.1.06.15.1.12.07.24.14.36.21.04.03.08.05.12.08.15.09.31.18.46.28.01,0,.02,0,.03.02.52.32,1.06.66,1.65,1.02,3.13,1.95,6.24,3.88,9.31,5.85,2,1.28,3.98,2.58,5.93,3.89.59.4,1.18.81,1.77,1.21.65.45,1.3.89,1.94,1.34,1.37.96,2.72,1.95,4.06,2.95,1.2.89,2.38,1.8,3.54,2.73.56.44,1.12.88,1.66,1.33,1.75,1.43,3.46,2.9,5.12,4.43.03.03.07.06.1.09.05.04.09.08.13.12.57.53,1.13,1.06,1.69,1.6,7.16,6.95,13.27,14.98,17.74,24.85.48,1.07.96,2.16,1.4,3.27.19.46.35.92.52,1.38.26.7.51,1.39.75,2.08.01.02.01.04.02.06.3.89.58,1.77,1.61,5.54.12.49.23.98.33,1.46l.28,1.39s.01.06.02.07c.1.57.19,1.13.28,1.68.03.2.06.38.08.57.07.49.13.98.19,1.47.03.26.05.51.08.76.04.45.08.89.11,1.33.02.31.04.61.05.91.02.41.04.8.05,1.18.01.4.01.8.01,1.19v.9c-.02.69-.05,1.38-.1,2.06h0v.05c-.01.06-.01.13-.02.19-.01.08-.01.16-.02.24-.05.56-.1,1.1-.17,1.64-.02.19-.05.39-.08.58-.07.51-.15,1.02-.23,1.52-.04.19-.07.38-.11.56-.1.52-.21,1.03-.32,1.54h-.01c-.03.17-.07.33-.11.49-.14.56-.29,1.12-.45,1.68-.03.1-.06.2-.09.3-.41,1.36-.89,2.69-1.45,4-3.62,8.51-10.33,15.91-19.9,22.02-.31.2-.64.4-.96.6,0,0,0,.01-.02.01-.14.09-.28.18-.42.26-.14.08-.27.17-.41.25h0c-.5.31-1.01.6-1.52.9-.05.02-.09.05-.13.07-.02.01-.04.02-.06.03.19-.61.36-1.22.53-1.84.28-1.01.55-2.02.8-3.03.79-3.17,1.41-6.32,1.81-9.49.01-.11.02-.22.03-.33.33-2.7.49-5.41.45-8.17v-.05c-.02-.96-.06-1.92-.12-2.89-.13-1.82-.34-3.65-.66-5.53-.01-.07-.02-.14-.04-.22-.01-.07-.03-.14-.04-.22-.01-.03-.02-.07-.03-.1-.02-.1-.05-.19-.08-.28-.01-.05-.02-.09-.03-.14,0-.02-.02-.04-.03-.06-.04-.12-.08-.24-.13-.35-.01-.02-.02-.05-.03-.07-.05-.12-.11-.23-.17-.34-.02-.02-.03-.04-.05-.06-.02-.03-.04-.06-.06-.09-.04-.06-.09-.12-.13-.17l-.03-.03s-.08-.07-.12-.11c-.04-.03-.08-.07-.13-.1-.02-.02-.04-.03-.06-.04-.05-.03-.09-.06-.14-.08-.05-.02-.11-.04-.17-.06-.1-.03-.21-.05-.32-.05h-.18c-.06,0-.11.02-.17.03-.02,0-.03,0-.05.01-.01,0-.03,0-.04,0-.07.01-.13.03-.2.06-.01,0-.03.01-.04.01s-.02.01-.04.01c-.09.04-.19.08-.29.14-.14.3-.26.62-.38.93-.06.16-.12.31-.17.47-.09.24-.18.48-.26.72-.1.3-.19.59-.29.9-.01.04-.02.08-.04.13-.11.38-.22.77-.33,1.17-.07.25-.14.51-.2.77,0,.03-.02.06-.02.09-.09.37-.18.74-.26,1.11-.01.02-.01.04-.02.07,0,.01-.01.03-.01.04-.04.17-.07.33-.11.5-.03.16-.07.33-.1.5-.02.09-.04.18-.05.27-.03.14-.06.28-.09.43l-.03.15c-.02.1-.04.19-.06.28,0,.01,0,.02,0,.03-.01.09-.03.18-.04.27-.06.28-.11.56-.16.84-.02.13-.05.27-.07.4-.08.47-.16.93-.24,1.4,0,.02-.01.04-.01.06-.09.51-.17,1.02-.26,1.53-.01.07-.02.14-.03.21-.01.07-.02.13-.03.19-.01.04-.02.07-.02.1-.09.56-.19,1.12-.28,1.67-1.43,8.25-3.43,16.15-11.86,19.92-.83.37-1.67.71-2.5,1.03-.08.03-.16.06-.23.09-.33.12-.66.24-.99.36-.06.02-.11.04-.17.06-.05.02-.11.04-.17.06-.29.1-.59.2-.89.3-.12.04-.25.08-.37.12-.29.08-.57.17-.86.26-.13.03-.26.07-.39.11-.28.08-.56.16-.84.23-.05,0-.09.03-.13.04-.09.02-.18.04-.27.07-.29.07-.58.14-.87.21-.12.03-.23.06-.35.09-.35.07-.69.15-1.03.22-.06.01-.13.03-.19.04-.39.08-.78.15-1.16.22-.02,0-.05.01-.07.01-.09.02-.17.03-.26.04,0,.01,0,.01,0,.01-.3.05-.62.1-.94.15l-.42.06c-.27.04-.53.07-.8.11-.03,0-.07,0-.1,0-.04,0-.09.01-.13.01-.08.01-.16.02-.24.03-.26.03-.5.06-.74.08-.16.02-.33.03-.49.05h-.03c-.22.02-.45.04-.67.06h-.03s-.11.01-.16.01c-.11,0-.22.02-.33.03-.23.01-.45.02-.68.04h-.04c-.17.01-.33.02-.5.02h-.03c-.24.01-.48.02-.71.03-.16,0-.31.01-.47.01-.27.01-.54.01-.81.01-.11,0-.22.01-.33.01h-.05s-.02-.01-.03-.01c-.46,0-.92,0-1.38-.02h-.04c-.12,0-.24,0-.36-.01h-.06c-.37-.01-.75-.03-1.12-.05-.11,0-.22-.01-.33-.02-.46-.02-.93-.06-1.39-.09-.02,0-.03,0-.04,0-.05,0-.1-.01-.16-.01-.05,0-.1-.01-.15-.01-.38-.04-.75-.07-1.12-.11-.02,0-.04-.01-.06-.01-.13-.01-.25-.02-.38-.04-.46-.05-.93-.11-1.39-.17h-.04c-.07-.01-.13-.02-.2-.03-.4-.06-.8-.12-1.2-.18-.02,0-.04,0-.06-.01-.13-.02-.26-.04-.4-.06-.01,0-.03,0-.05-.01-.43-.07-.85-.14-1.28-.21-.04-.01-.07-.02-.11-.02-.48-.09-.95-.18-1.43-.28-.13-.02-.26-.05-.4-.08-.35-.07-.7-.15-1.06-.22-.01,0-.02,0-.03,0-.03-.01-.06-.01-.08-.02-.1-.02-.19-.04-.29-.06-.45-.1-.91-.21-1.36-.32-.02,0-.03,0-.04-.01-.07-.01-.13-.03-.19-.04-.07-.02-.13-.03-.19-.05-.35-.08-.69-.17-1.03-.26-.03,0-.06,0-.09-.02-.06-.02-.13-.03-.19-.05s-.12-.03-.18-.05c-.46-.12-.91-.24-1.36-.36-.01,0-.02,0-.03,0l-.21-.06s-.08-.03-.12-.04c-.04,0-.07-.01-.1-.02-.34-.1-.69-.2-1.03-.3-.14-.04-.27-.08-.41-.12-.02,0-.03-.01-.04-.01-.45-.13-.9-.27-1.35-.41-.02,0-.05-.01-.07-.02-.04-.01-.09-.03-.13-.04-.05-.02-.11-.03-.16-.05-.34-.11-.68-.21-1.02-.32-.01-.01-.03-.01-.05-.02-.07-.02-.14-.04-.21-.07-.07-.02-.14-.04-.22-.07-.41-.13-.82-.26-1.23-.4l-.18-.06s-.06-.02-.09-.03c-.43-.15-.87-.3-1.3-.45-.09-.03-.18-.06-.28-.1-.04-.01-.09-.03-.14-.05-.01,0-.02,0-.03-.01-.33-.11-.67-.23-1.01-.35-.02-.01-.04-.02-.06-.02-.11-.04-.22-.08-.34-.13-.01,0-.02,0-.03-.01-.44-.16-.88-.31-1.31-.48h-.02c-.07-.02-.13-.05-.19-.07-.06-.02-.13-.05-.19-.07-.02,0-.04-.02-.05-.02-.33-.12-.65-.24-.98-.37-.02,0-.03-.01-.05-.02-.14-.05-.27-.1-.4-.15-.01,0-.02,0-.03-.01-.44-.17-.88-.33-1.32-.5-.06-.02-.11-.04-.17-.07-.05-.02-.11-.04-.16-.06-.37-.14-.74-.28-1.1-.43-.06-.02-.11-.04-.17-.06-.08-.03-.17-.07-.26-.1-.43-.17-.86-.34-1.29-.51-.02-.01-.04-.02-.06-.03-.06-.02-.11-.04-.17-.06-.29-.12-.59-.23-.88-.35-.01-.01-.02-.01-.04-.02-.1-.04-.21-.08-.32-.13-.1-.03-.19-.07-.29-.11-.05-.02-.1-.04-.15-.06-.12-.05-.24-.1-.37-.15-.28-.11-.57-.23-.85-.34-.04-.02-.09-.04-.13-.06-.5-.2-1-.4-1.51-.6-.03-.02-.06-.03-.1-.05-1.17-.47-2.34-.94-3.5-1.42-.07-.02-.13-.05-.2-.08-.13-.05-.27-.1-.4-.16-.25-.1-.5-.2-.74-.3-.33-.13-.65-.26-.97-.39-.25-.1-.49-.19-.73-.29-.28-.11-.55-.22-.83-.33-.2-.08-.39-.16-.59-.23-.31-.13-.62-.25-.94-.37-.11-.05-.23-.1-.35-.14-8.95-3.51-13.92-9.48-22.3-12.53-.09-.03-.17-.07-.25-.1-.03-.01-.05-.02-.08-.03-.05-.03-.11-.05-.16-.07-.03-.02-.05-.03-.08-.04-.05-.03-.1-.05-.15-.08-.02-.01-.03-.01-.05-.02-.01-.01-.02-.01-.03-.02-.05-.02-.11-.05-.16-.08-.06-.03-.12-.06-.18-.08-.01-.01-.02-.02-.04-.02-.04-.02-.08-.04-.12-.05-.01-.01-.03-.02-.05-.02-.03-.01-.07-.02-.1-.03,0-.01-.03-.01-.05-.01-.01-.01-.03-.01-.04-.01-.02,0-.04-.01-.05-.01h-.04s-.09.01-.14.03c-.01,0-.02.01-.03.01-.03.02-.06.05-.11.09-.05.05-.08.11-.11.17-.01.02-.02.03-.03.05,0,.01,0,.03-.01.04-.03.08-.05.13-.07.21-.16.59-.19,1.18-.11,1.77h.01v.05c.04.27.11.54.19.8.01.03.02.06.03.08.09.27.19.52.32.78.02.03.03.06.05.09.12.26.27.51.43.75.02.04.04.07.06.1.16.25.34.49.53.74.02.02.04.05.06.07.2.25.41.5.64.74l.03.03c.23.25.47.49.72.73.15.15.3.29.45.43,2.55,2.29,5.74,4.08,7.08,4.87,4.84,2.87,9.7,5.57,14.58,8.08.04.02.07.04.1.05.12.06.23.12.35.18.7.36,1.41.72,2.12,1.07.02.01.03.02.05.02.2.11.41.2.61.3,1.22.6,2.43,1.19,3.65,1.76.17.08.34.17.51.25.13.06.25.11.37.17,1.07.49,2.13.98,3.2,1.45.61.28,1.22.53,1.83.8.61.26,1.21.53,1.82.79,1.06.44,2.13.88,3.19,1.3.5.2,1,.39,1.5.58.44.17.89.35,1.34.52.13.05.27.1.41.15.65.25,1.29.48,1.94.71h.01c.29.11.56.22.85.32.21.07.42.14.63.21.48.17.96.34,1.44.51.13.04.26.09.39.13.4.13.8.26,1.2.39.57.19,1.13.38,1.7.55,1.44.46,2.86.88,4.29,1.28.11.03.22.07.34.1.36.11.73.2,1.1.3h.01c.12.03.23.06.35.09.43.12.86.24,1.29.36h.02s.02.01.03.01c.1.03.2.05.3.07,4.22,1.07,8.52,1.65,12.73,2.63.04,0,.07.01.11.02.07.02.14.03.21.04,4.04.96,8.21,1.39,12.37,1.32,8.31-.13,16.61-2.27,23.93-6.23,1.02-.55,2-1.17,2.98-1.79-.01.04-.01.09-.02.14-.01.07-.01.14-.02.21-.01.06-.01.13-.02.2,0,.09.01.19.02.3,0,.02,0,.04.02.06,0,.04.01.09.02.14.02.13.04.25.07.4.02.06.04.13.05.19.01.03.03.07.04.11.02.06.03.13.05.2,0,.06.03.13.06.2.03.1.07.19.1.28.01.04.02.07.03.1.03.09.06.18.1.27.01.05.03.09.05.14.05.13.1.25.15.37.01.03.02.06.03.08.06.14.11.28.17.42.07.16.14.31.21.46,0,.02.01.04.02.06.07.14.13.28.19.42.09.19.17.36.26.54,0,0,0,.03.02.04.06.14.13.28.2.42.1.21.21.41.31.62.1.21.2.4.31.6,2.98,5.77,7.74,13.23,8.87,15.67,4.73,10.12,18.94,39.01,22.76,48.98.62,1.63,1.22,3.25,1.81,4.87.56,1.5,1.1,3,1.64,4.5.67,1.89,1.33,3.77,1.97,5.65,8.93,26.4,14.64,52.82,17.07,80.66.18,2.05.32,4.11.47,6.16.01.15.02.3.03.44.01.21.03.42.05.62.01.27.04.54.06.8v.05c.1,1.64.18,3.29.26,4.94.03.49.06.98.08,1.47v.08c.01.23.03.47.04.71.01.24.03.48.04.71v.13c.04.83.05,1.66.08,2.49.02.63.04,1.25.06,1.88.03.62.05,1.25.06,1.88,0,.56.04,1.11.05,1.67.03,1.56.05,3.12.05,4.69.02,1,.02,2.01.02,3.02v.4c0,.18-.01.36-.01.53-.01.18-.02.36-.02.53,0,.39-.01.79-.02,1.18,0,.44-.02.88-.05,1.31v.08c0,.11-.01.22-.03.32,0,.14-.01.28-.03.41v.05c-.03.26-.05.52-.07.78-.02.28-.04.56-.06.83-.03.33-.05.65-.09.97,0,.05,0,.11-.01.16-.04.38-.09.76-.14,1.14-.02.16-.04.31-.06.47-.04.3-.08.6-.12.91-.04.3-.08.6-.12.9-.07.41-.13.82-.21,1.23-.01.07-.02.14-.03.21-.02.06-.03.13-.04.19l-.15.87c-.05.28-.09.57-.15.85-.05.3-.12.6-.18.9-.11.53-.22,1.06-.34,1.58-.03.16-.06.32-.1.47-.02.12-.04.23-.07.34-.07.29-.13.58-.2.86-.16.66-.32,1.32-.48,1.98-.03.14-.07.27-.1.41-.15.6-.32,1.21-.48,1.81-.08.31-.16.63-.25.94-.02.08-.04.16-.06.24-.02.07-.04.15-.06.23-.1.36-.2.73-.31,1.1-.08.29-.17.59-.25.89-.06.23-.12.46-.19.68-.05.2-.11.39-.16.59-1.52,5.33-3.13,10.69-4.38,16.39-.16.72-.31,1.45-.46,2.18Z"/>
    <path class="st3" d="M293.74,426.14c.07-.22.13-.45.19-.68.08-.3.17-.6.25-.89.13-.44.25-.88.37-1.33.02-.08.04-.16.06-.24.09-.31.17-.63.25-.94.16-.6.33-1.21.48-1.81.03-.14.07-.27.1-.41.16-.66.32-1.32.48-1.98.09-.4.18-.8.27-1.2.04-.15.07-.31.1-.47.12-.52.23-1.05.34-1.58.06-.3.13-.6.18-.9.06-.28.1-.57.15-.85l.15-.87c.01-.06.02-.13.04-.19.01-.07.02-.14.03-.21.08-.41.14-.82.21-1.23.04-.3.08-.6.12-.9.04-.31.08-.61.12-.91.02-.16.04-.31.06-.47.06-.43.11-.86.15-1.3.04-.32.06-.64.09-.97.02-.27.04-.55.06-.83.02-.26.04-.52.07-.78v-.05c.02-.13.03-.27.03-.41.01-.13.02-.26.03-.4.03-.43.04-.87.05-1.31.01-.39.02-.79.02-1.18,0-.17.01-.35.02-.53,0-.17.01-.35.01-.53v-.4c0-1.01,0-2.02-.02-3.02-.02-2.76-.08-5.51-.16-8.24-.02-.63-.04-1.25-.06-1.88-.03-.83-.04-1.66-.08-2.49-.01-.28-.02-.56-.04-.84,0-.24-.03-.48-.04-.71v-.08c-.02-.49-.05-.98-.08-1.47-.08-1.65-.16-3.3-.26-4.94v-.05c-.02-.26-.05-.53-.06-.8-.02-.2-.04-.41-.05-.62-.01-.14-.02-.29-.03-.44-.15-2.05-.29-4.11-.47-6.16-2.43-27.84-8.14-54.26-17.07-80.66-.64-1.88-1.3-3.76-1.97-5.65-.54-1.5-1.08-3-1.64-4.5-.59-1.62-1.19-3.24-1.81-4.87-3.82-9.97-18.03-38.86-22.76-48.98-1.13-2.44-5.89-9.9-8.87-15.67-.11-.2-.21-.39-.31-.6-.1-.21-.21-.41-.31-.62-.07-.14-.14-.28-.2-.42-.01-.01-.02-.03-.02-.04-.09-.18-.17-.35-.26-.54-.06-.14-.12-.28-.19-.42-.01-.02-.02-.04-.02-.06-.07-.15-.14-.3-.21-.46-.06-.14-.11-.28-.17-.42-.01-.02-.02-.05-.03-.08-.05-.12-.1-.24-.15-.37-.02-.05-.04-.09-.05-.14-.04-.09-.07-.18-.1-.27-.01-.03-.02-.06-.03-.1-.03-.09-.07-.18-.1-.28-.03-.07-.05-.14-.06-.2-.03-.11-.06-.21-.09-.31-.01-.06-.03-.13-.05-.19-.03-.15-.05-.27-.07-.4-.01-.05-.02-.1-.02-.14-.01-.02-.01-.04-.02-.06-.01-.11-.02-.21-.02-.3,0-.07.01-.14.01-.2.01-.07.02-.14.03-.21.01-.05.01-.1.02-.14-.98.62-1.96,1.24-2.98,1.79-7.32,3.96-15.62,6.1-23.93,6.23-4.16.07-8.33-.36-12.37-1.32-.07-.01-.14-.02-.21-.04-.04-.01-.07-.02-.11-.02-4.21-.98-8.51-1.56-12.73-2.63-.1-.02-.2-.04-.3-.07t-.03-.01h-.02c-.43-.12-.86-.24-1.29-.36-.12-.03-.23-.06-.35-.09h-.01c-.37-.1-.74-.19-1.1-.3-.12-.03-.23-.07-.34-.1-1.43-.4-2.85-.82-4.29-1.28-.57-.17-1.13-.36-1.7-.55-.4-.13-.8-.26-1.2-.39-.13-.04-.26-.09-.39-.13-.48-.17-.96-.34-1.44-.51h0c-.21-.07-.42-.14-.63-.21-.29-.1-.56-.21-.85-.31h-.01c-.65-.24-1.29-.47-1.94-.72-.14-.05-.28-.1-.41-.15-.45-.17-.9-.35-1.34-.52-.5-.19-1-.38-1.5-.58-1.06-.42-2.13-.86-3.19-1.3-.61-.26-1.21-.53-1.82-.79-.61-.27-1.22-.52-1.83-.8-1.07-.47-2.13-.96-3.2-1.45-.12-.06-.24-.11-.37-.17-.17-.08-.34-.17-.51-.25-1.22-.57-2.43-1.16-3.65-1.76-.2-.1-.41-.19-.61-.3-.02,0-.03-.01-.05-.02-.71-.35-1.42-.71-2.12-1.07-.12-.06-.23-.12-.35-.18-.03-.01-.06-.03-.1-.05-4.88-2.51-9.74-5.21-14.58-8.08-1.34-.79-4.53-2.58-7.08-4.87-.15-.14-.3-.28-.45-.43-.25-.24-.49-.48-.72-.73l-.03-.03c-.23-.24-.44-.49-.64-.74-.02-.02-.04-.05-.06-.07-.19-.25-.37-.49-.53-.74-.02-.03-.04-.06-.06-.1-.16-.24-.31-.49-.43-.75-.02-.03-.03-.06-.05-.09-.13-.26-.23-.51-.32-.78,0-.02-.02-.05-.03-.08-.08-.26-.15-.53-.19-.8,0-.02,0-.04-.01-.05-.08-.59-.05-1.18.11-1.77.02-.08.04-.13.07-.21.01-.01.01-.03.01-.04.01-.02.02-.03.03-.05.03-.06.06-.12.11-.17.05-.04.08-.07.11-.09.01,0,.02-.01.03-.01.05-.02.09-.03.14-.03h.04s.03.01.05.01c.01,0,.03,0,.04.01.02,0,.04,0,.05.01.03.01.07.02.1.03.02,0,.04.01.05.02.04.01.08.03.12.05.02,0,.03.01.04.02.06.02.12.05.18.08.05.03.11.06.16.08.01.01.02.01.03.02.02.01.03.01.05.02.05.03.1.05.15.08.03,0,.05.02.08.04.05.02.11.04.16.07.03.01.05.02.08.03.08.03.16.07.25.1,8.38,3.05,13.35,9.02,22.3,12.53.12.04.24.09.35.14.32.12.63.24.94.37.2.07.39.15.59.23.28.11.55.22.83.33.24.1.48.19.73.29.32.13.64.26.97.39.24.1.49.2.74.3.13.06.27.11.4.16.07.03.13.06.2.08,1.16.48,2.33.95,3.5,1.42.04.02.07.03.1.05.51.2,1.01.4,1.51.6.04.02.09.04.13.06.28.11.57.23.85.34.13.05.25.1.37.15.05.02.1.04.15.06.1.04.19.08.29.11.11.05.22.09.32.13.02,0,.03,0,.04.02.29.12.59.23.88.35.06.02.11.04.17.06.02.01.04.02.06.03.43.17.86.34,1.29.51.09.03.18.07.26.1.06.02.11.04.17.06.36.15.73.29,1.1.43.05.02.11.04.16.06.06.03.11.05.17.07.44.17.88.33,1.32.5.01.01.02.01.03.01.13.05.26.1.4.15.02.01.03.02.05.02.33.13.65.25.98.37.01,0,.03.01.05.02.06.02.13.05.19.07.07.03.14.05.21.07.43.17.87.32,1.31.48,0,.01.02.01.03.01.12.05.23.09.34.13.02,0,.04,0,.06.02.34.12.68.24,1.01.35.01.01.02.01.03.01.05.02.1.04.14.05.1.04.19.07.28.1.43.15.87.3,1.3.45.03,0,.06.02.09.03l.18.06c.41.14.82.27,1.23.4.08.03.15.05.22.07.07.03.14.05.21.07.02.01.04.01.05.02.34.11.68.21,1.02.32.05.02.11.03.16.05.04,0,.09.03.13.04.02,0,.05.02.07.02.45.14.9.28,1.35.41.01,0,.02.01.04.01.14.04.27.08.41.12.34.1.69.2,1.03.3.03.01.06.02.1.02.04.01.08.03.12.04l.21.06s.02,0,.03,0c.45.12.9.24,1.36.36.06.02.12.03.18.05s.13.03.19.05c.03.01.06.01.09.02.34.09.68.18,1.03.26.06.02.12.03.19.05.06.01.12.03.19.04.01.01.02.01.04.01.45.11.91.22,1.36.32.1.02.19.04.29.06.02,0,.05,0,.08.02.01,0,.02,0,.03,0,.36.07.71.15,1.06.22.14.03.27.06.4.08.48.1.95.19,1.43.28.04,0,.07.01.11.02.43.07.85.14,1.28.21.02.01.04.01.05.01.14.02.27.04.4.06.02.01.04.01.06.01.4.06.8.12,1.2.18.07.01.13.02.2.03h.04c.46.06.93.12,1.39.17.13.02.25.03.38.04.02,0,.04.01.06.01.37.04.74.07,1.12.11.05,0,.1.01.15.01.06,0,.11.01.16.01.01,0,.02,0,.04,0,.46.03.93.07,1.39.09.11.01.22.02.33.02.37.02.75.04,1.12.05h.06c.12.01.24.01.36.01h.04c.46.02.92.02,1.38.02.14.01.27,0,.41,0,.27,0,.54,0,.81-.01.16,0,.31-.01.47-.01.23-.01.47-.02.71-.03h.03c.17,0,.33-.01.5-.02h.04c.23-.02.45-.03.68-.04.11-.01.22-.02.33-.03.05,0,.11-.01.16-.01h.03c.22-.02.45-.04.67-.06h.03c.16-.02.33-.03.49-.05.24-.02.48-.05.74-.08.08-.01.16-.02.24-.03.04,0,.09-.01.13-.01.04,0,.08-.02.12-.02-.01,0-.01.01-.02.01.27-.04.53-.07.8-.11l.42-.06c.32-.05.64-.1.94-.15,0,0,0,0,0-.01.09-.01.17-.02.26-.04.02,0,.05-.01.07-.01.38-.07.77-.14,1.16-.22.06-.01.13-.03.19-.04.34-.07.68-.15,1.03-.22.12-.03.23-.06.35-.09.29-.07.58-.14.87-.21.09-.03.18-.05.27-.07.04-.01.08-.03.13-.04.28-.07.56-.15.84-.23.13-.04.26-.08.39-.11.29-.09.57-.18.86-.26.12-.04.25-.08.37-.12.3-.1.6-.2.89-.3.06-.02.12-.04.17-.06.06-.02.11-.04.17-.06.33-.12.66-.24.99-.36.07-.03.15-.06.23-.09.83-.32,1.67-.66,2.5-1.03,8.43-3.77,10.43-11.67,11.86-19.92.09-.55.19-1.11.28-1.67,0-.03.01-.06.02-.1.01-.06.02-.12.03-.19,0-.07.02-.14.03-.21.09-.51.17-1.02.26-1.53,0-.02.01-.04.01-.06.08-.47.16-.93.24-1.4.02-.13.05-.27.07-.4.07-.37.13-.74.2-1.11,0-.01,0-.02,0-.03.02-.09.04-.18.06-.28l.03-.15c.07-.38.14-.75.22-1.11-.03.14-.06.27-.08.41.03-.17.07-.34.1-.5.04-.17.07-.33.11-.5,0-.01.01-.03.01-.04.01-.03.01-.05.02-.07.08-.37.17-.74.26-1.11,0-.03.01-.06.02-.09.06-.26.13-.52.2-.77.11-.4.22-.79.33-1.17.02-.05.03-.09.04-.13.1-.31.19-.6.29-.9.08-.24.17-.48.26-.72.05-.16.11-.31.17-.47.12-.31.24-.63.38-.93.1-.06.2-.1.29-.14.02,0,.03-.01.04-.01s.03-.01.04-.01c.07-.03.13-.05.2-.06,0,0,.03,0,.04,0,.02-.01.03-.01.05-.01.06,0,.11-.02.17-.03h.18c.11,0,.22.02.32.05.06.02.12.04.17.06.05.02.09.05.14.08.02.01.04.02.06.04.05.03.09.07.13.1.04.04.08.07.12.11l.03.03c.04.05.09.11.13.17.02.03.04.06.06.09.02.02.03.04.05.06.06.11.12.22.17.34.01.02.02.05.03.07.05.11.09.23.13.35.01.02.02.04.03.06.01.05.02.09.03.14.03.09.06.18.08.28,0,.03.02.07.03.1.01.08.03.15.04.22.02.08.03.15.04.22.32,1.88.53,3.71.66,5.53.06.97.1,1.93.12,2.89v.05c.04,2.76-.12,5.47-.45,8.17-.01.11-.02.22-.03.33-.4,3.17-1.02,6.32-1.81,9.49-.25,1.01-.52,2.02-.8,3.03-.17.62-.34,1.23-.53,1.84.02-.01.04-.02.06-.03.04-.02.08-.05.13-.07.51-.3,1.02-.59,1.52-.89h0c.14-.09.27-.18.41-.26.14-.08.28-.17.42-.26.01,0,.01-.01.02-.01.32-.2.65-.4.96-.6,9.57-6.11,16.28-13.51,19.9-22.02.56-1.31,1.04-2.64,1.45-4,.03-.1.06-.2.09-.3.16-.56.31-1.12.45-1.68.04-.16.08-.32.11-.48h.01c.11-.52.22-1.03.32-1.55.04-.18.07-.37.11-.56.08-.5.16-1.01.23-1.52.03-.19.06-.39.08-.58.07-.54.12-1.08.17-1.64,0,.01-.01.02-.01.02.01-.08.02-.17.03-.26.01-.06.01-.13.02-.19v-.04h0c.05-.69.08-1.38.1-2.07v-.9c0-.39,0-.79-.01-1.19-.01-.38-.03-.77-.05-1.18-.01-.3-.03-.6-.05-.91-.03-.44-.07-.88-.11-1.33-.03-.25-.05-.5-.08-.76-.06-.49-.12-.98-.19-1.47-.02-.19-.05-.37-.08-.57-.09-.55-.18-1.11-.28-1.68-.01-.01-.01-.03-.02-.07l-.28-1.39c-.1-.48-.21-.97-.33-1.46-1.03-3.77-1.31-4.65-1.61-5.54,0-.02,0-.04-.02-.06-.24-.69-.49-1.38-.75-2.08-.17-.46-.33-.92-.52-1.38-.44-1.11-.92-2.2-1.4-3.27-4.47-9.87-10.58-17.9-17.74-24.85-.56-.54-1.12-1.07-1.69-1.6-.04-.04-.08-.08-.13-.12-.03-.03-.07-.06-.1-.09-1.66-1.53-3.37-3-5.12-4.43-.54-.45-1.1-.89-1.66-1.33-1.16-.93-2.34-1.84-3.54-2.73-1.34-1-2.69-1.99-4.06-2.95-.64-.45-1.29-.89-1.94-1.34-.59-.4-1.18-.81-1.77-1.21-1.95-1.31-3.93-2.61-5.93-3.89-3.07-1.97-6.18-3.9-9.31-5.85-.59-.36-1.13-.7-1.65-1.02-.01-.01-.02-.02-.03-.02-.15-.1-.31-.19-.46-.28-.04-.03-.08-.05-.12-.08-.12-.07-.24-.14-.36-.21-.05-.04-.1-.06-.15-.1-.1-.06-.21-.12-.31-.18-.06-.03-.12-.06-.17-.1-.1-.05-.19-.1-.28-.15-.06-.04-.12-.07-.19-.1-.08-.05-.17-.1-.25-.14-.06-.03-.13-.06-.19-.1-.08-.04-.16-.08-.24-.11-.06-.04-.13-.07-.19-.09-.08-.04-.15-.07-.23-.11-.06-.03-.13-.05-.19-.08-.04-.01-.08-.03-.11-.05-.04-.01-.07-.02-.11-.04-.03,0-.06-.02-.09-.03-.03-.01-.07-.03-.1-.04-.07-.02-.14-.05-.22-.07-.03-.01-.06-.02-.09-.03-.01,0-.02-.01-.03-.01-.02-.01-.04-.01-.06-.02-.08-.02-.15-.04-.22-.06-.04-.01-.09-.02-.14-.03-.01-.01-.03-.01-.04-.01-.07-.02-.14-.03-.21-.05-.03,0-.06-.01-.09-.01-.03-.01-.06-.01-.1-.02-.07-.01-.14-.02-.22-.03h-.08s-.06-.01-.09-.01c-.07-.01-.14-.01-.21-.01-.05,0-.09-.01-.14-.01h-.04s-.11.01-.16.01c-.07,0-.14.01-.21.01-.06.01-.11.02-.17.02-.07.01-.14.02-.21.03-.05.01-.11.03-.17.04-.06,0-.13.03-.2.05-.06.01-.12.03-.18.05s-.13.04-.2.06c-.06.02-.12.05-.18.07-.07.03-.14.05-.21.08-.06.03-.12.06-.18.09-.07.03-.14.07-.21.1-.06.03-.12.07-.18.1-.08.04-.15.08-.22.13-.06.04-.12.07-.19.11-.07.05-.14.1-.22.15-.06.04-.13.09-.19.14-.08.05-.15.11-.22.16s-.14.1-.21.16c-.07.06-.15.12-.22.19-.07.06-.14.11-.21.17-.08.07-.16.14-.23.21s-.15.13-.22.2c-.04.04-.08.08-.12.12-.04.03-.08.07-.12.11-.07.07-.14.14-.22.22-.08.08-.16.17-.24.25-.08.08-.16.16-.24.25-.04.04-.08.09-.12.13-.04.05-.09.1-.13.14-.08.09-.16.17-.24.27-.05.05-.1.12-.15.17-.05.06-.11.12-.16.18-.06.08-.13.15-.19.23-3.78,4.46-5.79,11.48-7.56,18.56-.32,1.31-.64,2.62-.96,3.91-.12.49-.24.97-.36,1.45-.18.73-.37,1.44-.55,2.15-.31,1.18-.63,2.33-.97,3.45-.13.45-.27.89-.41,1.32-.1.29-.2.58-.29.86-.05.14-.1.28-.15.42-.14.42-.29.83-.45,1.24-.1.26-.2.52-.29.76-.18.49-.34.95-.49,1.38-.08.22-.16.43-.23.63-.13.34-.26.66-.4.96-.05.13-.11.25-.18.37-.12.23-.25.46-.39.68-.11.18-.23.35-.37.51-.38.47-.84.89-1.36,1.24-.06.04-.12.08-.18.12-1.9,1.28-4.45,1.9-6.48,2.43-7.86,2.06-15.97,3.15-24.1,3.33-6.32.13-12.67-.29-18.86-1.59-5.73-1.2-9.98-4.11-12.67-9.3-2.93-5.64-4.65-12.04-5.98-18.23-.28-1.32-2.67-15.94-2.26-16-.32.05-.64.1-.96.15-15.2,2.4-30.52,4.77-45.78,7.06-.32.33-.62.67-.94,1-4.2,23.96-7.64,47.57-7.64,71.76,0,2.13.34,3.23.39,5.36-.09,2.35-.12,4.46-.56,6.47-3.65,16.6-5.61,32.3-9.92,48.75-2.75,10.48-5.83,20.86-8.81,31.27-3.82,13.32-3.23,26.6,5.24,38,9.05,12.19,21.59,22.31,32.54,32.74,7.84,7.48,15.73,14.92,23.65,22.33,9.08-14.94,23.81-37.91,26.14-55.33-3.89-2.97-6.82-6.62-9.16-11.1-2.9-5.54-5.07-10.47-10.59-13.92-4.91-3.07-.38-10.85,4.54-7.77,5.19,3.24,8.86,7.46,11.68,12.86,2.85,5.46,5.01,10.32,10.35,13.76,1.56.51,2.73,1.85,2.47,4.05-3.36,28.95-24.27,62.14-43.96,83.67-3.92,4.29-10.26-2.09-6.36-6.36,3.54-3.88,6.83-7.98,9.86-12.25-9.3-8.69-18.55-17.44-27.76-26.24-1.05,15.84-2.26,29.3-3.35,39.98-2.49,24.42-3.83,29.41-4.75,32.48-1.97,6.61-3.5,11.87-5.45,20.55-.13.58-.27,1.18-.4,1.79-.42,1.93-.7,3.85-.87,5.76-.09.92-.15,1.85-.19,2.77v.1c-.01.14-.02.28-.01.42-.03.44-.04.88-.04,1.32,0,.34,0,.67,0,1.01,0,.58,0,1.16.02,1.74.01.77.04,1.54.07,2.31.02.53.05,1.05.08,1.59.22,4.05.61,8.12.82,12.22.02.35.04.7.06,1.05.03.01.06.02.09.03.85.26,1.68.5,2.52.74.24.07.48.13.72.2.51.14,1.01.28,1.52.41.25.07.51.14.76.21.11.03.23.06.35.09.86.22,1.71.43,2.57.63.21.05.41.1.64.15.24.06.48.11.72.16.04.01.08.02.11.02.45.1.89.21,1.33.3.17.03.33.07.5.1.85.18,1.7.34,2.54.5.2.03.39.07.58.1.7.12,1.41.24,2.13.35.19.03.38.06.57.09.85.13,1.69.25,2.54.35.15.02.3.04.47.06.71.08,1.43.16,2.17.23.21.02.42.04.63.06.85.08,1.7.15,2.55.2.09.01.19.01.28.02.52.03,1.03.05,1.54.07.26.01.52.03.78.04.22,0,.45.01.67.02.84.02,1.68.04,2.52.04h.09c.86,0,1.72-.02,2.59-.04.18-.01.37-.01.55-.02.85-.03,1.71-.07,2.57-.12.13-.01.27-.02.41-.03.2-.01.4-.03.6-.04.43-.03.86-.06,1.3-.1.17-.02.34-.03.51-.05-.01,0-.02,0-.03.01.15-.02.3-.03.44-.04.87-.09,1.74-.18,2.62-.29.19-.03.38-.05.57-.07.1-.01.21-.03.31-.05.8-.1,1.59-.21,2.4-.34.47-.49.92-.96,1.36-1.43.11-.11.21-.22.32-.33.34-.36.68-.72,1.01-1.07.22-.23.45-.47.67-.7.2-.21.41-.43.62-.64,5.96-6.23,11.2-11.46,16.84-15.69.99-.73,1.98-1.44,3-2.12.42-.27.84-.55,1.27-.82.48-.31.97-.61,1.47-.9.45-.27.9-.53,1.36-.78.07-.04.13-.07.2-.11.49-.27.98-.53,1.48-.79,1.04-.53,2.11-1.04,3.2-1.52,1.39-.61,2.82-1.18,4.32-1.69.34-.12.67-.23,1.02-.35.59-.19,1.18-.38,1.78-.56.58-.18,1.17-.34,1.78-.51.54-.15,1.1-.29,1.67-.43.05-.01.1-.03.17-.05.14-.03.28-.06.42-.09.47-.11.95-.23,1.43-.33.68-.15,1.37-.29,2.09-.43.01,0,.02-.01.04-.01,2.24-.43,4.6-.79,7.11-1.09.23-.02.45-.05.67-.07.49-.06.97-.11,1.46-.17.49-.05.97-.11,1.46-.16.53-.06,1.06-.12,1.59-.17.37-.04.74-.08,1.11-.12s.74-.07,1.11-.11c.54-.06,1.08-.11,1.63-.16,1.14-.11,2.28-.22,3.43-.31.49-.05.99-.08,1.48-.12.77-.06,1.53-.12,2.29-.18.57-.04,1.13-.08,1.69-.12.39-.02.78-.05,1.17-.07.39-.02.78-.05,1.17-.07.48-.03.97-.06,1.46-.09,1.16-.06,2.33-.12,3.5-.16.49-.02.98-.04,1.47-.05.8-.03,1.61-.05,2.42-.07.5-.01.99-.03,1.49-.03.52-.01,1.04-.01,1.56-.02.51-.01,1.03-.01,1.55-.02,1.19,0,2.38,0,3.57.02.05,0,.11,0,.17.01h.17c1.94.03,3.89.09,5.83.18.15,0,.31,0,.46.02.96.05,1.92.1,2.87.17.05,0,.11,0,.16.01.89.06,1.77.12,2.66.2.19.01.37.03.56.04.92.08,1.85.17,2.77.27.06,0,.12.01.19.02.06,0,.12,0,.18.02.82.08,1.63.18,2.44.28.21.02.41.05.62.07.89.11,1.79.24,2.68.36.18.03.36.06.54.09.76.11,1.52.23,2.28.36.16.02.32.05.49.08.04,0,.09.01.14.02.88.15,1.76.31,2.64.48.05.01.09.02.14.03.05,0,.11.02.16.03.03,0,.06.01.09.01.07.02.13.03.2.04.75.15,1.5.3,2.26.46.11.03.23.05.35.08.01,0,.02,0,.03.01.07.01.13.02.2.04.87.19,1.74.39,2.61.6.21.05.41.1.62.15.74.19,1.49.38,2.25.58.17.05.35.09.53.14.86.23,1.72.48,2.58.73.09.03.17.05.26.08.12.04.24.07.37.11.76.23,1.52.47,2.28.72.07.02.13.04.19.06.08.02.16.05.24.07.86.28,1.71.58,2.57.89-.01-.01-.02-.01-.03-.02.15.06.3.11.44.16.08.03.15.06.22.08.78.29,1.56.58,2.33.88.06.02.11.04.16.06s.1.04.15.06h.01c.85.33,1.7.68,2.55,1.04.21.08.41.17.63.26.8.35,1.6.7,2.4,1.07.05.02.1.04.15.06.01.01.02.01.03.02.84.39,1.69.79,2.53,1.21.2.1.4.2.61.3.24.12.48.25.73.38.6.31,1.2.61,1.79.93,6.41,3.43,5.4,9.29,9.3,14.19.56.03,1.12.05,1.67.08.75.03,1.49.06,2.23.08.1.01.19.01.29.01,1.23.04,2.47.05,3.72.06h.47c.97,0,1.93-.01,2.9-.03.21-.01.42-.02.64-.02h.03c.83-.02,1.66-.05,2.49-.08h.04c.16-.01.32-.02.5-.02.95-.04,1.91-.1,2.87-.15.01,0,.01-.01.02-.01.1,0,.2-.01.29-.02.13,0,.26-.01.38-.02h.04c.86-.06,1.73-.12,2.6-.19.12-.01.25-.02.39-.03.97-.08,1.94-.17,2.91-.26.23-.02.46-.05.69-.07.88-.09,1.75-.18,2.63-.28.04,0,.09,0,.13-.02.05,0,.1,0,.15,0,.03-.01.05-.01.08-.01.94-.11,1.89-.23,2.85-.35.03-.01.06-.01.09-.01.12-.02.25-.04.37-.05.12-.02.24-.03.36-.05.8-.11,1.61-.21,2.41-.33.19-.03.37-.05.55-.08.15-.73.3-1.46.46-2.18,1.25-5.7,2.86-11.06,4.38-16.39.05-.2.11-.39.16-.59ZM245.77,142.95c.22-.45.46-.89.71-1.32.66-1.12,1.4-2.17,2.09-3.11,1.12-1.52,3.47-3.75,5.55-4.53,1.72-.65,3.27-.31,3.78,2.27.62,3.06-.42,5.55-2.3,7.49-2.75,2.84-7.31,4.5-11.17,5.03-.18-2,.43-3.99,1.34-5.83ZM221.27,135.78c5.94,4.16,5.65,8.78,10.24,13.25-5.49-.66-10.49-.01-15.95-1.08-2.22-.43-5.84-3.57-6.6-5.32-4.96-11.49,6.37-11,12.31-6.85ZM159.37,122.14c.16-.02.33-.05.49-.08t-.02.01c-.21.03-.41.06-.62.1.05,0,.1-.02.15-.03ZM152.13,123.04s-.01.01-.02.01c-.25.02-.5.04-.74.06.25-.02.5-.04.76-.07Z"/>
    <path class="st0" d="M298.15,391.68c-.01-.56-.04-1.11-.05-1.67-.01-.63-.03-1.26-.06-1.88.08,2.73.14,5.48.16,8.24,0-1.57-.02-3.13-.05-4.69Z"/>
    <path class="st0" d="M298.12,403.42v-.08c-.01.14-.02.27-.03.4.02-.1.03-.21.03-.32Z"/>
    <path class="st0" d="M297.9,383.63c-.01-.23-.03-.47-.04-.71.02.28.03.56.04.84v-.13Z"/>
    <path class="st0" d="M297.83,406.94s.01-.11.01-.16c-.04.44-.09.87-.15,1.3.05-.38.1-.76.14-1.14Z"/>
    <path class="st0" d="M296.12,417c.03-.11.05-.22.07-.34-.09.4-.18.8-.27,1.2.07-.28.13-.57.2-.86Z"/>
    <path class="st0" d="M294.49,423.47c.02-.08.04-.16.06-.23-.12.45-.24.89-.37,1.33.11-.37.21-.74.31-1.1Z"/>
    <path class="st0" d="M288.58,445.33s.09-.01.14-.02c0-.01.01-.01.02-.01-.18.03-.36.05-.55.08.13-.01.26-.03.39-.05Z"/>
    <path class="st0" d="M263.62,154.84c.01-.08.01-.16.02-.24-.01.09-.02.18-.03.26,0,0,.01-.01.01-.02Z"/>
    <path d="M255.6,143.75c1.88-1.94,2.92-4.43,2.3-7.49-.51-2.58-2.06-2.92-3.78-2.27-2.08.78-4.43,3.01-5.55,4.53-.69.94-1.43,1.99-2.09,3.11-.25.43-.49.87-.71,1.32-.91,1.84-1.52,3.83-1.34,5.83,3.86-.53,8.42-2.19,11.17-5.03Z"/>
    <path class="st0" d="M240.49,202.1s-.03-.08-.04-.11c.03.1.06.2.09.31-.02-.07-.03-.14-.05-.2Z"/>
    <path class="st0" d="M240.27,200.9c.01-.07.01-.14.02-.2,0-.07,0-.14.02-.21-.01.07-.02.14-.03.21,0,.06-.01.13-.01.2Z"/>
    <path class="st0" d="M234.89,165.76c.03-.15.06-.29.09-.43,0-.09.03-.18.05-.27.02-.14.05-.27.08-.41-.08.36-.15.73-.22,1.11Z"/>
    <path class="st0" d="M234.75,166.49c.01-.09.03-.18.04-.27-.07.37-.13.74-.2,1.11.05-.28.1-.56.16-.84Z"/>
    <path class="st0" d="M229.95,426.48c.14.04.28.09.41.14-.14-.05-.29-.1-.44-.16.01.01.02.01.03.02Z"/>
    <path d="M215.56,147.95c5.46,1.07,10.46.42,15.95,1.08-4.59-4.47-4.3-9.09-10.24-13.25-5.94-4.15-17.27-4.64-12.31,6.85.76,1.75,4.38,4.89,6.6,5.32Z"/>
    <path class="st3" d="M65.5,67.81c.51-.14,1.03-.28,1.54-.43.15-.04.3-.09.45-.13.38-.11.76-.22,1.13-.33.62-.18,1.23-.37,1.85-.56.39-.12.78-.24,1.17-.36.28-.09.57-.17.85-.26.33-.1.65-.21.97-.31.39-.13.77-.25,1.15-.37.64-.21,1.28-.42,1.92-.63.34-.11.69-.23,1.04-.34.75-.25,1.5-.5,2.26-.75.23-.08.46-.16.7-.24.95-.32,1.9-.64,2.85-.95,1.04-.35,2.07-.7,3.11-1.04.2-.07.4-.13.6-.19.56-.19,1.13-.38,1.7-.56.56-.18,1.12-.36,1.69-.54.75-.24,1.5-.48,2.25-.71,1.04-.32,2.08-.63,3.12-.94,2.09-.6,4.18-1.17,6.28-1.67.79-.19,1.58-.37,2.37-.55.26-.06.53-.11.79-.17.52-.11,1.05-.22,1.58-.32.86-.17,1.73-.32,2.6-.46.72-.12,1.45-.23,2.17-.33.87-.12,1.73-.23,2.6-.34.87-.11,1.74-.21,2.61-.31.67-.08,1.34-.15,2.01-.22.8-.08,1.6-.16,2.4-.24.81-.08,1.61-.15,2.41-.22.8-.07,1.6-.14,2.4-.2.4-.04.79-.07,1.19-.1.41-.03.81-.06,1.22-.08.8-.06,1.6-.11,2.4-.16.53-.04,1.06-.08,1.59-.11,5.56-.34,11.12-.54,16.68-.69,7.41-.19,14.81-.28,22.22-.42,1.85-.03,3.7-.07,5.55-.12,2.81-.06,5.63-.14,8.44-.24.59-.02,1.18-.04,1.77-.05.51-.02,1.03-.03,1.54-.04-.02,0-.04,0-.06,0,.38,0,.76,0,1.14,0h.26c.3-.01.6-.01.9-.01.21-.01.41-.01.62-.01h.82c1.35.01,2.7.02,4.04.03h.63c1.12.02,2.25.03,3.38.03.43,0,.86,0,1.28.01h.63c.38,0,.75,0,1.13-.01h.54c.44,0,.88-.01,1.33-.02.44,0,.88-.01,1.32-.02.2,0,.41-.01.61-.01.93-.03,1.87-.06,2.81-.1-3.86-3.68-7.21-7.18-10.35-10.46-.45-.47-.9-.94-1.34-1.4-.89-.92-1.76-1.83-2.62-2.71-.87-.88-1.72-1.75-2.58-2.59-.86-.85-1.71-1.67-2.58-2.47-7.78-7.22-16.11-12.68-29.98-15.52-5.32-1.09-11.82-1.33-18.6-1.09-3.39.13-6.85.38-10.26.7-4.55.44-9.03,1.02-13.16,1.64-3.09.46-6,.94-8.6,1.4-.02,0-.04.01-.06.01s-.03.01-.05.01c-.33.06-.67.13-1.02.2t-.02.01c-4.09.87-9.83,2.81-13.03,3.94-.58.2-1.08.38-1.47.52-.19.07-.36.14-.5.18-.27.1-.42.16-.42.16h-.01v.1c.01.06.02.14.02.25.04.82.15,3.03.24,5.44.04.9.07,1.83.1,2.73.02.59.04,1.17.05,1.72.02.82.03,1.57.03,2.17h0c-.23.01-.43-.04-.62-.09-.02-.01-.05-.01-.07-.01-.01-.01-.03-.02-.04-.03-.18-.06-.34-.15-.49-.25,0-.01-.01-.01-.02-.01-.02-.02-.03-.04-.05-.05-.06-.05-.13-.1-.19-.16-.06-.06-.12-.12-.18-.18-.01-.02-.03-.03-.04-.04-.01-.02-.02-.03-.04-.04-.13-.15-.26-.32-.38-.49-.6-.81-1.17-1.62-1.73-2.43-2.25-3.23-4.3-6.46-6.57-9.46-1.71-2.25-3.53-4.37-5.66-6.27-.14-.13-.29-.25-.44-.38-.17-.15-.35-.3-.52-.44-.26-.21-.52-.42-.78-.62-.15-.11-.3-.23-.46-.34-.11-.09-.23-.17-.34-.25-.29-.21-.59-.42-.9-.62-.33-.22-.68-.44-1.02-.65-.16-.09-.3-.19-.45-.28-.04-.03-.08-.05-.12-.07-.54-.31-1.09-.61-1.67-.9-.01,0-.02-.01-.04-.02-.22-.11-.44-.21-.67-.3-.05-.02-.09-.04-.14-.06h-.02c-.22-.09-.44-.18-.65-.25h-.01s-.02-.01-.03-.01h-.01s-.06-.02-.09-.03c-.13-.04-.25-.08-.37-.1-.05-.02-.1-.03-.15-.04h-.01s-.07-.02-.1-.03c-.02,0-.03-.01-.05-.01-.21-.05-.42-.09-.63-.12h-.02s-.04-.01-.06-.01c-.19-.02-.37-.04-.55-.04-.05-.01-.09-.01-.13-.01h-.12c-.17,0-.33,0-.49.02-.02,0-.04,0-.07.01h-.02c-.17.02-.33.05-.5.08-.04.01-.09.02-.14.03-.18.05-.36.1-.53.17-.03.01-.05.02-.08.03-.15.07-.29.14-.44.22-.04.02-.08.05-.13.07-.15.1-.31.21-.46.33-.02.02-.04.04-.06.06-.12.11-.25.23-.37.36-.03.04-.07.08-.11.12-.13.16-.25.32-.37.5-.01.02-.02.05-.04.07-.1.17-.2.34-.29.53-.03.06-.05.12-.08.18-.1.22-.19.44-.27.68,0,.02-.01.05-.02.07-.07.23-.13.47-.19.72-.02.08-.03.16-.05.24-.06.27-.1.56-.14.86h0s0,.02,0,.03c-.16,1.37-.24,2.68-.24,3.95,0,.61.02,1.2.05,1.79,0,.1.02.19.02.29.03.44.08.88.13,1.31.04.31.09.63.14.94.06.34.11.69.18,1.03.02.1.05.2.07.29.08.37.17.74.27,1.1.02.07.04.15.06.22.04.12.08.23.11.35.11.36.24.71.37,1.06.1.28.21.55.33.82.12.29.24.58.37.86.13.27.27.53.41.79.14.27.28.54.44.8.19.33.41.65.63.98.17.25.34.5.52.74.18.25.37.49.56.73.04.05.1.11.14.17.08.09.15.17.23.26.28.33.57.64.87.95.08.09.17.18.26.27.26.26.53.51.8.76.22.2.45.4.69.6.25.22.51.43.78.64.25.2.5.38.76.57.15.11.29.22.44.32l.44.31c.08.06.17.11.25.16.21.14.42.28.63.41.21.14.43.27.65.4.12.07.23.13.35.2.84.49,1.72.95,2.64,1.39.38.18.74.36,1.13.54.42.18.84.37,1.28.55.74.3,1.53.36,2.28.46.26.03.51.07.75.12.11.02.22.05.32.08.17.04.33.1.49.17.15.07.29.15.43.23.02.02.05.03.07.04.01.01.03.03.04.04.14.1.28.2.4.33l.02.02c.08.09.16.18.24.29-.24.04-.51.09-.77.14-1.74.33-3.72.86-5.57,1.26-.37.08-.73.15-1.09.22-.71.13-1.39.22-2.01.26-.16.01-.31.01-.46.02-.15,0-.31.01-.46.01h-.15c-.23-.01-.45-.02-.66-.03-.06,0-.11,0-.17,0-.12-.01-.24-.03-.35-.04-.12-.01-.24-.02-.36-.03-.02,0-.03-.01-.05-.01h-.06c-.24-.03-.47-.06-.7-.09-.23-.03-.46-.05-.68-.07-.02,0-.04,0-.06,0-.2-.01-.4-.03-.61-.04h-.2c-.13,0-.28,0-.42.01h-.23s-.08,0-.13.01c-.26.01-.53.04-.81.08h-.01c-.51,1.74-1.03,3.48-1.55,5.23-.04.13-.08.27-.12.4-.42,1.41-.85,2.83-1.27,4.24l-.18.6c-.14.48-.28.95-.43,1.43-.39,1.31-.77,2.62-1.15,3.93-.15.52-.3,1.04-.45,1.56-.09.32-.18.64-.27.95-.4,1.41-.79,2.82-1.16,4.23.99-.24,1.98-.49,2.96-.75.33-.09.66-.18.98-.27Z"/>
    <path class="st0" d="M207.78,196.71s.07,0,.1,0c.01,0,.01-.01.02-.01-.04,0-.08.01-.12.02Z"/>
    <path class="st0" d="M201.34,197.1h.05c.11,0,.22-.01.33-.01-.14,0-.27.01-.41,0,.01,0,.02.01.03.01Z"/>
    <path class="st3" d="M180.11,14.56c.42.32.83.63,1.24.93.26.2.52.39.78.57.14.11.28.21.41.31.07.05.14.1.2.14.46.33.92.65,1.38.97.46.33.92.64,1.38.94.06.05.12.09.19.13.4.27.8.53,1.2.79.26.18.52.35.78.52,1.2.79,2.42,1.58,3.7,2.43.41.26.83.54,1.25.82.01.01.02.01.03.02.06-.1.1-.2.15-.3.27-.52.51-1.03.72-1.54h0s.01-.02.01-.02h0c.75-1.82,1.14-3.6,1.14-5.27,0-.75-.08-1.47-.24-2.17h0c-.11-.45-.24-.88-.41-1.29h0s-.01-.03-.02-.04c-.16-.41-.37-.81-.6-1.19-.06-.09-.11-.19-.18-.28h0c-.33-.49-.71-.95-1.16-1.38-.22-.22-.46-.42-.71-.62-1.01-.8-2.26-1.47-3.77-1.97-.38-.13-.77-.25-1.18-.35t-.02,0h-.02c-.07-.02-.14-.03-.22-.03h-.08s-.08.01-.13.01c-.01,0-.02.01-.02.01-.4.06-.84.29-1.31.65-.31.23-.63.52-.95.84-.16.16-.32.33-.48.51-1.6,1.77-3.14,4.25-3.64,5.42.07.05.13.1.19.15.13.1.26.19.39.3Z"/>
    <path class="st0" d="M187.13,51.17c.49-.02.99-.03,1.48-.03.02,0,.04,0,.06,0-.51,0-1.03.02-1.54.04Z"/>
    <path class="st2" d="M185.5,18.42c-.46-.3-.92-.61-1.38-.94"/>
    <path class="st0" d="M183.72,17.21c.13.09.27.19.4.27-.46-.32-.92-.64-1.38-.97.33.24.66.47.98.7Z"/>
    <path class="st1" d="M179.37,111.03c.16-.41.31-.82.45-1.24"/>
    <path class="st0" d="M175.54,200.57c-.21-.07-.42-.14-.63-.21.21.07.42.14.63.22h0Z"/>
    <path class="st0" d="M170.9,190.54h.02c-.07-.02-.14-.04-.21-.07.06.02.12.05.19.07Z"/>
    <path d="M159.86,122.06c-.16.03-.33.06-.49.08-.05,0-.1.02-.15.03.21-.04.41-.07.62-.1t.02-.01Z"/>
    <path d="M152.13,123.04c-.26.03-.51.05-.76.07.24-.02.49-.04.74-.06t.02-.01Z"/>
    <path class="st2" d="M132.18,424.16c-.6.18-1.19.37-1.78.56"/>
    <path class="st0" d="M126.91,426c.48-.19.98-.38,1.48-.56.33-.12.66-.25.99-.37-1.5.51-2.93,1.08-4.32,1.69.6-.26,1.23-.51,1.85-.76Z"/>
    <path class="st1" d="M123.67,53.34c.8-.07,1.6-.14,2.4-.2"/>
    <path class="st0" d="M125.89,171.6h-.01s.01.03.01.05v-.05Z"/>
    <path class="st1" d="M121.26,53.56c.81-.08,1.61-.15,2.41-.22"/>
    <path class="st2" d="M121.86,428.28c-.5.26-.99.52-1.48.79"/>
    <path class="st2" d="M117.35,430.86c-.43.27-.85.55-1.27.82"/>
    <path class="st1" d="M104.5,55.95c-.79.18-1.58.36-2.37.55"/>
    <path class="st0" d="M93.39,23.75c.01.05.02.1.03.15,0-.11,0-.19-.02-.25,0,.03-.01.06-.01.1Z"/>
    <path class="st0" d="M85.44,454.49c.16-.02.32-.03.48-.04.01-.01.02-.01.03-.01-.17.02-.34.03-.51.05Z"/>
    <path class="st2" d="M82.95,43.63c.15.07.29.15.43.23"/>
    <path class="st0" d="M74.75,40.73c.17.09.35.18.52.27.17.09.34.18.51.27.01,0,.01.01.02.01.29.15.6.29.9.43-.92-.44-1.8-.9-2.64-1.39.23.14.46.27.69.41Z"/>
    <path class="st0" d="M75.7,14.76s-.09-.06-.14-.09c.16.11.31.23.46.34-.1-.09-.21-.17-.32-.25Z"/>
    <path class="st0" d="M74.55,13.94c-.07-.05-.15-.09-.23-.14.31.2.61.41.9.62-.22-.16-.44-.33-.67-.48Z"/>
    <path class="st0" d="M73.28,39.87c.14.09.29.17.43.25-.22-.13-.44-.26-.65-.4.07.06.14.1.22.15Z"/>
    <path class="st0" d="M71.9,38.97c.09.06.19.12.28.18l-.44-.31c.05.05.1.09.16.13Z"/>
    <path class="st0" d="M70.19,37.69c.11.09.24.17.35.26-.27-.21-.53-.42-.78-.64.14.13.28.26.43.38Z"/>
    <path class="st0" d="M69.56,46.15c-.07,0-.16.01-.24.02.14-.01.29-.01.42-.01-.06,0-.12-.01-.18-.01Z"/>
    <path class="st2" d="M69.4,11.23c-.13-.04-.25-.08-.37-.1"/>
    <path class="st0" d="M68.64,36.33c.14.13.29.25.43.38-.27-.25-.54-.5-.8-.76.13.13.24.26.37.38Z"/>
    <path class="st1" d="M66.59,51.49c.52-1.75,1.04-3.49,1.55-5.23"/>
    <path class="st0" d="M67.59,35.25c.13.15.28.29.42.43-.3-.31-.59-.62-.87-.95.15.18.29.35.45.52Z"/>
    <path class="st0" d="M66.62,34.13s.09.11.15.17c-.19-.24-.38-.48-.56-.73.13.19.27.38.41.56Z"/>
    <path class="st0" d="M66.03,33.34c.06.08.11.16.18.23-.18-.24-.35-.49-.52-.74.12.17.22.35.34.51Z"/>
    <path class="st0" d="M64.07,29.99c.04.09.1.18.14.27-.13-.28-.25-.57-.37-.86.08.19.14.4.23.59Z"/>
    <path class="st0" d="M63.34,28.16c.05.15.11.28.17.42-.13-.35-.26-.7-.37-1.06.07.21.13.43.2.64Z"/>
    <path class="st0" d="M62.9,26.72c.02.08.04.16.07.23-.1-.36-.19-.73-.27-1.1.06.29.12.59.2.87Z"/>
    <path class="st0" d="M62.56,25.23c.02.11.05.22.07.33-.07-.34-.12-.69-.18-1.03.04.23.06.47.11.7Z"/>
    <path class="st0" d="M62.25,23.15c.01.15.04.29.06.44-.05-.43-.1-.87-.13-1.31.02.29.04.59.07.87Z"/>
    <path class="st1" d="M44.53,428.43c-.03.44-.04.88-.04,1.32"/>
    <path class="st0" d="M44.48,430.03v.73c0-.34,0-.67,0-1.01,0,.09,0,.19,0,.28Z"/>
  </g>
</svg>