<?xml version="1.0" encoding="UTF-8"?>
<svg id="Layer_1" xmlns="http://www.w3.org/2000/svg" version="1.1" viewBox="0 0 466.34 268.38">
  <!-- Generator: Adobe Illustrator 30.4.0, SVG Export Plug-In . SVG Version: 2.1.3 Build 42)  -->
  <defs>
    <style>
      .st0 {
        fill: #fff;
      }

      .st1 {
        fill: none;
      }

      .st2 {
        fill: #ff4848;
      }
    </style>
  </defs>
  <path class="st1" d="M322.3,185.01c.26,0,.54.13.82.33-.28-.21-.56-.33-.82-.33h0Z"/>
  <path class="st1" d="M380.67,132.86h0c-.42,0-.84.03-1.28.08h-.03c-.42.03-.84.08-1.25.17.42-.08.84-.14,1.28-.17.45-.06.86-.08,1.28-.08Z"/>
  <path class="st1" d="M384.62,134.31c-.19-.22-.38-.41-.56-.57.18.16.36.35.56.57Z"/>
  <path class="st1" d="M340.88,259.58c.29.03.58.05.87.08-.61-8.02-1.73-16.44-3.64-25.26-4.42-20.45-8.79-29.2-11.9-36.02,7.82,17.18,12.24,35.79,14.12,54.53.22,2.19.38,4.44.54,6.67Z"/>
  <path class="st1" d="M385.05,134.83c.35.44.68.91.93,1.3-.25-.39-.58-.85-.93-1.3Z"/>
  <path class="st1" d="M169.18,68.5c-10.09,2.13-20.12,4.61-30.07,7.39-.2.28-.39.59-.56.89.17-.31.36-.61.56-.89,9.95-2.78,19.99-5.26,30.07-7.39Z"/>
  <path class="st1" d="M181.04,71.89c.54,1.78,1.06,3.54,1.63,5.28-.57-1.74-1.09-3.5-1.63-5.28Z"/>
  <path class="st1" d="M380.87,132.87c.84.02,1.65.15,2.38.42-.73-.27-1.54-.4-2.38-.42Z"/>
  <path class="st2" d="M340.88,259.58c-.16-2.23-.32-4.48-.54-6.67-1.88-18.74-6.3-37.35-14.12-54.53-.71-1.56-2.21-3.68-3.46-5.71-.94-1.52-1.74-2.99-1.97-4.15-.08-.38-.09-.73-.02-1.04.1-.46.21-.85.32-1.16.35-.96.77-1.32,1.21-1.32h0c.26,0,.54.13.82.33.56.41,1.14,1.13,1.69,1.74.28.3.55.58.8.77,3.43,2.73.96.63,3.83,4.06,20.1-8.48,40.32-16.73,60.25-25.62,1.37-1.56,2.12-3.62,2.23-5.63.42-8.92-1.28-16.2-5.63-24.01-.08-.14-.19-.32-.32-.52-.25-.39-.58-.85-.93-1.3-.14-.18-.29-.35-.43-.52-.19-.22-.38-.41-.56-.57-.18-.16-.35-.3-.5-.36-.1-.04-.21-.06-.32-.09-.73-.27-1.54-.4-2.38-.42-.07,0-.13-.02-.2-.02-.42,0-.84.03-1.28.08-.45.03-.86.08-1.28.17-2.62.45-5.21,1.39-6.86,1.62-13.33,1.87-25.18,2.9-38.03,4.29-4.94,11.21-9.67,18.32-21.08,24.31-7.47,3.96-14.58,10.79-24.26,11.04-.81.03-1.62.06-2.45.06-25.12,0-47.06-10.68-70.26-21.61-2.37-1.12-11.46-5.55-10.23-9.98.11-.36.25-.5.45-.5.33,0,.81.36,1.48.56,7.42,2.4,13.33,7.33,21.13,10.09,14.3,5.1,30.08,12.6,45.47,12.6,6.02,0,11.99-1.17,17.79-4.04,11.63-5.77,9.28-20.24,13.77-30.34.33-.25.64-.36.92-.36.84,0,1.39.95,1.65,2.09,2.26,9.2.36,17.37-3.01,25.99,22.03-9.9,29.67-29.36,19.63-51.5-10.04-22.11-30.56-32.68-50.94-43.3-2.93-1.51-5.02-2.82-7.17-2.82-1.81,0-3.62.92-5.97,3.35-6.02,6.19-5.86,19.99-9.01,28.49-1.31,3.51-.98,5.02-5.6,6.64-7.58,2.62-17.84,3.96-27.52,3.96-6.3,0-12.35-.59-17.23-1.73-10.34-2.43-9.23-7.7-13.49-14.53-.53-.85-1.02-1.7-1.46-2.56-.89-1.71-1.61-3.43-2.25-5.16-.32-.87-.62-1.73-.9-2.61-.57-1.74-1.09-3.5-1.63-5.28-.54-1.78-1.1-3.57-1.76-5.39-3.37.63-6.74,1.3-10.1,2.01-10.09,2.13-20.12,4.61-30.07,7.39-.2.28-.39.59-.56.89,1.45,21.61,5.66,43.24,2.84,64.85-1.2.36-2.37.59-3.49.72-.36.06-.75.11-1.12.14-2.43.25-4.8.17-7.53.28-8.59.31-16.26.53-24.73.53-2.54,0-5.19-.03-7.92-.08-6.89-.08-17.31-.2-24.81-.33,7.05,10.99,9.98,20.72,7.67,33.76,26.35,6.22,50.72,13.19,72.6,29.47,1.9,1.45,6.94,5.13,3.51,7.03-.47.28-1.03.39-1.62.39-3.6,0-8.81-4.27-11.88-5.21,1.09,7.7,3.15,12.88,3.99,21.13,1.02,10.21.84,20.22-.03,30.12,13.69-1.26,27.39-2.3,41.12-3.04,51.24-2.76,102.62-1.63,153.71,3.04ZM314.7,114.68c.95-1.25,2.96-3.32,4.77-4.13,1.53-.7,2.96-.56,3.51,1.62.53,2.06.03,3.93-1.06,5.49-2.29,3.23-7.08,5.35-10.71,5.94-.45-3.21,1.73-6.61,3.49-8.92ZM290.95,114.45c2.4,3.21,4.71,6.38,7.14,9.56-4.29-.42-8.39.39-12.74-.47-1.78-.33-5.07-2.65-5.74-4.15-4.38-9.98,5.41-8.09,11.35-4.94Z"/>
  <path d="M321.92,117.66c1.09-1.56,1.59-3.43,1.06-5.49-.56-2.17-1.98-2.31-3.51-1.62-1.81.81-3.82,2.87-4.77,4.13-1.76,2.31-3.93,5.72-3.49,8.92,3.62-.59,8.42-2.7,10.71-5.94Z"/>
  <path class="st0" d="M300.82,53.17c-2.4-.22-6.8-.33-9.42-.42-1.48-.06-2.4.75-2.34,2.17.14,2.84.22,7.25.47,9.79.28,2.57,2.51,3.35,4.27,1.7,2.82-2.62,6.5-6.47,9.03-9.42,1.48-1.76.36-3.62-2.01-3.82Z"/>
  <path d="M285.34,123.54c4.35.86,8.45.06,12.74.47-2.43-3.18-4.74-6.36-7.14-9.56-5.94-3.15-15.73-5.05-11.35,4.94.67,1.51,3.96,3.82,5.74,4.15Z"/>
  <path class="st2" d="M210.2,11.88c-11.99,0-24.03,3.88-35.58,6.25-5.69,1.17-10.2,3.65-15.7,4.94-.08.47.72.95.81,1.2.72,2.98,1.17,5.8,1.81,8.73h-.25c-.81,0-1.42-.45-2.01-.95-7.53-6.55-13.47-14.19-23.14-17.4-1.25-.42-2.43-.67-3.46-.67-2.17,0-3.68,1.17-3.68,4.74.06,12.1,8.87,18.21,20.35,20.74,1.62.36,3.54-.33,4.88,1-2.51.53-5.8,1.95-8.17,2.29-.59.08-1.12.11-1.62.11-.67,0-1.25-.03-1.84-.03-.67,0-1.34.06-2.15.31-.39,6.33-.98,12.71-1.65,18.99,14.67-5.24,27.1-12.74,42.91-15.22,22.89-3.57,47.31-3.15,70.6-3.71,2.57-.08,5.07-.08,7.58-.08,3.18,0,6.3.03,9.48.03,2.23,0,4.46-.03,6.72-.06-18.76-14.41-35.47-27.8-59.72-30.84-2.06-.25-4.13-.36-6.19-.36Z"/>
  <path class="st2" d="M249.63,6.11s-.08-.03-.11-.03c-1.73,0-6.05,4.41-6.94,6.11,4.52,2.7,9.31,5.07,14,7.61,3.79-5.77.14-12.69-6.94-13.69Z"/>
  <path class="st0" d="M216.09,53.84c-4.29-.14-12.35.06-17.06.22-2.68.08-4.1,1.62-3.76,4.13.7,5.02,1.95,13.05,2.9,17.45.92,4.41,4.91,5.94,7.7,2.7,4.46-5.21,10.2-12.32,14.41-17.84,2.45-3.23.14-6.52-4.18-6.66Z"/>
  <g>
    <path class="st1" d="M216.09,53.84c-4.29-.14-12.35.06-17.06.22-2.68.08-4.1,1.62-3.76,4.13.7,5.02,1.95,13.05,2.9,17.45.92,4.41,4.91,5.94,7.7,2.7,4.46-5.21,10.2-12.32,14.41-17.84,2.45-3.23.14-6.52-4.18-6.66Z"/>
    <path class="st1" d="M189.79,256.4c3.88-.2,7.76-.38,11.64-.53,3.88-.15,7.76-.29,11.65-.4,3.88-.11,7.77-.2,11.65-.27,3.88-.07,7.77-.11,11.65-.14,3.88-.02,7.77-.03,11.65,0,3.88.02,7.77.06,11.65.12s7.77.15,11.65.25c3.88.11,7.76.23,11.64.38,3.88.15,7.76.32,11.64.51,3.88.19,7.76.4,11.63.63,3.88.23,7.75.48,11.63.76,3.87.27,7.75.57,11.62.88,1.94.16,3.87.32,5.81.49,1.86.16,3.72.37,5.58.47-2.57-23.21-5.97-46.77-17.98-66.8-.7-1.17-1.44-2.35-1.8-3.66-.34-1.21-.2-5.39,2.03-3.75.56.41,1.14,1.13,1.69,1.74.28.3.55.58.8.77,3.43,2.73.96.63,3.83,4.06,20.1-8.48,40.32-16.73,60.25-25.62,1.37-1.56,2.12-3.62,2.23-5.63.42-8.92-1.28-16.2-5.63-24.01-.08-.14-.19-.32-.32-.52-.25-.39-.58-.85-.93-1.3-.14-.18-.29-.35-.43-.52-.19-.22-.38-.41-.56-.57-.18-.16-.35-.3-.5-.36-.1-.04-.21-.06-.32-.09-.73-.27-1.54-.4-2.38-.42-.07,0-.14-.02-.2-.02-.42,0-.84.03-1.28.08-.45.03-.86.08-1.28.17-2.62.45-5.21,1.39-6.86,1.62-13.33,1.87-25.18,2.9-38.03,4.29-4.94,11.21-9.67,18.32-21.08,24.31-7.47,3.96-14.58,10.79-24.26,11.04-.81.03-1.62.06-2.45.06-25.12,0-47.06-10.68-70.26-21.61-2.37-1.12-11.46-5.55-10.23-9.98.11-.36.25-.5.45-.5.33,0,.81.36,1.48.56,7.42,2.4,13.33,7.33,21.13,10.09,14.3,5.1,30.08,12.6,45.47,12.6,6.02,0,11.99-1.17,17.79-4.04,11.63-5.77,9.28-20.24,13.77-30.34.33-.25.64-.36.92-.36.84,0,1.39.95,1.65,2.09,2.26,9.2.36,17.37-3.01,25.99,22.03-9.9,29.67-29.36,19.63-51.5-10.04-22.11-30.56-32.68-50.94-43.3-2.93-1.51-5.02-2.82-7.17-2.82-1.81,0-3.62.92-5.97,3.35-6.02,6.19-5.86,19.99-9.01,28.49-1.31,3.51-.98,5.02-5.6,6.64-7.58,2.62-17.84,3.96-27.52,3.96-6.3,0-12.35-.59-17.23-1.73-10.34-2.43-9.23-7.7-13.49-14.53-.53-.85-1.02-1.7-1.46-2.56-.89-1.71-1.61-3.43-2.25-5.16-.32-.87-.62-1.73-.9-2.61-.57-1.74-1.09-3.5-1.63-5.28-.54-1.78-1.1-3.57-1.76-5.39-3.37.63-6.74,1.3-10.1,2.01-10.09,2.13-20.12,4.61-30.07,7.39-.2.28-.39.59-.56.89,1.45,21.61,5.66,43.24,2.84,64.85-1.2.36-2.37.59-3.49.72-.36.06-.75.11-1.12.14-2.43.25-4.8.17-7.53.28-8.59.31-16.26.53-24.73.53-2.54,0-5.19-.03-7.92-.08-6.89-.08-17.31-.2-24.81-.33,7.05,10.99,9.98,20.72,7.67,33.76,26.35,6.22,50.72,13.19,72.6,29.47,1.9,1.45,6.94,5.13,3.51,7.03-.47.28-1.03.39-1.62.39-3.6,0-8.81-4.27-11.88-5.21,1.09,7.7,3.15,12.88,3.99,21.13,1.02,10.21.84,20.22-.03,30.12,13.69-1.26,27.39-2.3,41.12-3.04.87-.05,1.75-.09,2.62-.14Z"/>
    <path class="st1" d="M341.99,259.61c-.22-.01-.42-.02-.62-.02.13,0,.26.02.39.02.08,0,.16,0,.24,0Z"/>
    <path class="st1" d="M249.63,6.11s-.08-.03-.11-.03c-1.73,0-6.05,4.41-6.94,6.11,4.52,2.7,9.31,5.07,14,7.61,3.79-5.77.14-12.69-6.94-13.69Z"/>
    <path class="st1" d="M300.82,53.17c-2.4-.22-6.8-.33-9.42-.42-1.48-.06-2.4.75-2.34,2.17.14,2.84.22,7.25.47,9.79.28,2.57,2.51,3.35,4.27,1.7,2.82-2.62,6.5-6.47,9.03-9.42,1.48-1.76.36-3.62-2.01-3.82Z"/>
    <path class="st1" d="M210.2,11.88c-11.99,0-24.03,3.88-35.58,6.25-5.69,1.17-10.2,3.65-15.7,4.94-.08.47.72.95.81,1.2.72,2.98,1.17,5.8,1.81,8.73h-.25c-.81,0-1.42-.45-2.01-.95-7.53-6.55-13.47-14.19-23.14-17.4-1.25-.42-2.43-.67-3.46-.67-2.17,0-3.68,1.17-3.68,4.74.06,12.1,8.87,18.21,20.35,20.74,1.62.36,3.54-.33,4.88,1-2.51.53-5.8,1.95-8.17,2.29-.59.08-1.12.11-1.62.11-.67,0-1.25-.03-1.84-.03-.67,0-1.34.06-2.15.31-.39,6.33-.98,12.71-1.65,18.99,14.67-5.24,27.1-12.74,42.91-15.22,22.89-3.57,47.32-3.15,70.6-3.71,2.57-.08,5.07-.08,7.58-.08,3.18,0,6.3.03,9.48.03,2.23,0,4.46-.03,6.72-.06-18.76-14.41-35.47-27.8-59.72-30.84-2.06-.25-4.13-.36-6.19-.36Z"/>
    <g>
      <path class="st1" d="M249.63,6.11s-.08-.03-.11-.03c-1.73,0-6.05,4.41-6.94,6.11,4.52,2.7,9.31,5.07,14,7.61,3.79-5.77.14-12.69-6.94-13.69Z"/>
      <path class="st1" d="M189.79,256.4c3.88-.2,7.76-.38,11.64-.53,3.88-.15,7.76-.29,11.65-.4,3.88-.11,7.77-.2,11.65-.27,3.88-.07,7.77-.11,11.65-.14,3.88-.02,7.77-.03,11.65,0,3.88.02,7.77.06,11.65.12s7.77.15,11.65.25c3.88.11,7.76.23,11.64.38,3.88.15,7.76.32,11.64.51,3.88.19,7.76.4,11.63.63,3.88.23,7.75.48,11.63.76,3.87.27,7.75.57,11.62.88,1.94.16,3.87.32,5.81.49,1.86.16,3.72.37,5.58.47-2.57-23.21-5.97-46.77-17.98-66.8-.7-1.17-1.44-2.35-1.8-3.66-.34-1.21-.2-5.39,2.03-3.75.56.41,1.14,1.13,1.69,1.74.28.3.55.58.8.77,3.43,2.73.96.63,3.83,4.06,20.1-8.48,40.32-16.73,60.25-25.62,1.37-1.56,2.12-3.62,2.23-5.63.42-8.92-1.28-16.2-5.63-24.01-.08-.14-.19-.32-.32-.52-.25-.39-.58-.85-.93-1.3-.14-.18-.29-.35-.43-.52-.19-.22-.38-.41-.56-.57-.18-.16-.35-.3-.5-.36-.1-.04-.21-.06-.32-.09-.73-.27-1.54-.4-2.38-.42-.07,0-.14-.02-.2-.02-.42,0-.84.03-1.28.08-.45.03-.86.08-1.28.17-2.62.45-5.21,1.39-6.86,1.62-13.33,1.87-25.18,2.9-38.03,4.29-4.94,11.21-9.67,18.32-21.08,24.31-7.47,3.96-14.58,10.79-24.26,11.04-.81.03-1.62.06-2.45.06-25.12,0-47.06-10.68-70.26-21.61-2.37-1.12-11.46-5.55-10.23-9.98.11-.36.25-.5.45-.5.33,0,.81.36,1.48.56,7.42,2.4,13.33,7.33,21.13,10.09,14.3,5.1,30.08,12.6,45.47,12.6,6.02,0,11.99-1.17,17.79-4.04,11.63-5.77,9.28-20.24,13.77-30.34.33-.25.64-.36.92-.36.84,0,1.39.95,1.65,2.09,2.26,9.2.36,17.37-3.01,25.99,22.03-9.9,29.67-29.36,19.63-51.5-10.04-22.11-30.56-32.68-50.94-43.3-2.93-1.51-5.02-2.82-7.17-2.82-1.81,0-3.62.92-5.97,3.35-6.02,6.19-5.86,19.99-9.01,28.49-1.31,3.51-.98,5.02-5.6,6.64-7.58,2.62-17.84,3.96-27.52,3.96-6.3,0-12.35-.59-17.23-1.73-10.34-2.43-9.23-7.7-13.49-14.53-.53-.85-1.02-1.7-1.46-2.56-.89-1.71-1.61-3.43-2.25-5.16-.32-.87-.62-1.73-.9-2.61-.57-1.74-1.09-3.5-1.63-5.28-.54-1.78-1.1-3.57-1.76-5.39-3.37.63-6.74,1.3-10.1,2.01-10.09,2.13-20.12,4.61-30.07,7.39-.2.28-.39.59-.56.89,1.45,21.61,5.66,43.24,2.84,64.85-1.2.36-2.37.59-3.49.72-.36.06-.75.11-1.12.14-2.43.25-4.8.17-7.53.28-8.59.31-16.26.53-24.73.53-2.54,0-5.19-.03-7.92-.08-6.89-.08-17.31-.2-24.81-.33,7.05,10.99,9.98,20.72,7.67,33.76,26.35,6.22,50.72,13.19,72.6,29.47,1.9,1.45,6.94,5.13,3.51,7.03-.47.28-1.03.39-1.62.39-3.6,0-8.81-4.27-11.88-5.21,1.09,7.7,3.15,12.88,3.99,21.13,1.02,10.21.84,20.22-.03,30.12,13.69-1.26,27.39-2.3,41.12-3.04.87-.05,1.75-.09,2.62-.14Z"/>
      <path class="st1" d="M341.99,259.61c-.22-.01-.42-.02-.62-.02.13,0,.26.02.39.02.08,0,.16,0,.24,0Z"/>
      <path class="st1" d="M210.2,11.88c-11.99,0-24.03,3.88-35.58,6.25-5.69,1.17-10.2,3.65-15.7,4.94-.08.47.72.95.81,1.2.72,2.98,1.17,5.8,1.81,8.73h-.25c-.81,0-1.42-.45-2.01-.95-7.53-6.55-13.47-14.19-23.14-17.4-1.25-.42-2.43-.67-3.46-.67-2.17,0-3.68,1.17-3.68,4.74.06,12.1,8.87,18.21,20.35,20.74,1.62.36,3.54-.33,4.88,1-2.51.53-5.8,1.95-8.17,2.29-.59.08-1.12.11-1.62.11-.67,0-1.25-.03-1.84-.03-.67,0-1.34.06-2.15.31-.39,6.33-.98,12.71-1.65,18.99,14.67-5.24,27.1-12.74,42.91-15.22,22.89-3.57,47.32-3.15,70.6-3.71,2.57-.08,5.07-.08,7.58-.08,3.18,0,6.3.03,9.48.03,2.23,0,4.46-.03,6.72-.06-18.76-14.41-35.47-27.8-59.72-30.84-2.06-.25-4.13-.36-6.19-.36Z"/>
      <path class="st1" d="M300.82,53.17c-2.4-.22-6.8-.33-9.42-.42-1.48-.06-2.4.75-2.34,2.17.14,2.84.22,7.25.47,9.79.28,2.57,2.51,3.35,4.27,1.7,2.82-2.62,6.5-6.47,9.03-9.42,1.48-1.76.36-3.62-2.01-3.82Z"/>
      <path class="st1" d="M216.09,53.84c-4.29-.14-12.35.06-17.06.22-2.68.08-4.1,1.62-3.76,4.13.7,5.02,1.95,13.05,2.9,17.45.92,4.41,4.91,5.94,7.7,2.7,4.46-5.21,10.2-12.32,14.41-17.84,2.45-3.23.14-6.52-4.18-6.66Z"/>
      <g>
        <path class="st1" d="M249.63,6.11s-.08-.03-.11-.03c-1.73,0-6.05,4.41-6.94,6.11,4.52,2.7,9.31,5.07,14,7.61,3.79-5.77.14-12.69-6.94-13.69Z"/>
        <path class="st1" d="M154.24,40.46c-2.51.53-5.8,1.95-8.17,2.29-.59.08-1.12.11-1.62.11-.67,0-1.25-.03-1.84-.03-.67,0-1.34.06-2.15.31-.39,6.33-.98,12.71-1.65,18.99,14.67-5.24,27.1-12.74,42.91-15.22,22.89-3.57,47.32-3.15,70.6-3.71,2.57-.08,5.07-.08,7.58-.08,3.18,0,6.3.03,9.48.03,2.23,0,4.46-.03,6.72-.06-18.76-14.41-35.47-27.8-59.72-30.84-2.06-.25-4.13-.36-6.19-.36-11.99,0-24.03,3.88-35.58,6.25-5.69,1.17-10.2,3.65-15.7,4.94-.08.47.72.95.81,1.2.72,2.98,1.17,5.8,1.81,8.73h-.25c-.81,0-1.42-.45-2.01-.95-7.53-6.55-13.47-14.19-23.14-17.4-1.25-.42-2.43-.67-3.46-.67-2.17,0-3.68,1.17-3.68,4.74.06,12.1,8.87,18.21,20.35,20.74,1.62.36,3.54-.33,4.88,1Z"/>
        <path class="st1" d="M293.79,66.41c2.82-2.62,6.5-6.47,9.03-9.42,1.48-1.76.36-3.62-2.01-3.82-2.4-.22-6.8-.33-9.42-.42-1.48-.06-2.4.75-2.34,2.17.14,2.84.22,7.25.47,9.79.28,2.57,2.51,3.35,4.27,1.7Z"/>
        <path class="st1" d="M385.98,136.13c-.25-.39-.58-.85-.93-1.3-.14-.18-.29-.35-.43-.52-.19-.22-.38-.41-.56-.57-.18-.16-.35-.3-.5-.36-.1-.04-.21-.06-.32-.09-.73-.27-1.54-.4-2.38-.42-.07,0-.14-.02-.2-.02-.42,0-.84.03-1.28.08-.45.03-.86.08-1.28.17-2.62.45-5.21,1.39-6.86,1.62-13.33,1.87-25.18,2.9-38.03,4.29-4.94,11.21-9.67,18.32-21.08,24.31-7.47,3.96-14.58,10.79-24.26,11.04-.81.03-1.62.06-2.45.06-25.12,0-47.06-10.68-70.26-21.61-2.37-1.12-11.46-5.55-10.23-9.98.11-.36.25-.5.45-.5.33,0,.81.36,1.48.56,7.42,2.4,13.33,7.33,21.13,10.09,14.3,5.1,30.08,12.6,45.47,12.6,6.02,0,11.99-1.17,17.79-4.04,11.63-5.77,9.28-20.24,13.77-30.34.33-.25.64-.36.92-.36.84,0,1.39.95,1.65,2.09,2.26,9.2.36,17.37-3.01,25.99,22.03-9.9,29.67-29.36,19.63-51.5-10.04-22.11-30.56-32.68-50.94-43.3-2.93-1.51-5.02-2.82-7.17-2.82-1.81,0-3.62.92-5.97,3.35-6.02,6.19-5.86,19.99-9.01,28.49-1.31,3.51-.98,5.02-5.6,6.64-7.58,2.62-17.84,3.96-27.52,3.96-6.3,0-12.35-.59-17.23-1.73-10.34-2.43-9.23-7.7-13.49-14.53-.53-.85-1.02-1.7-1.46-2.56-.89-1.71-1.61-3.43-2.25-5.16-.32-.87-.62-1.73-.9-2.61-.57-1.74-1.09-3.5-1.63-5.28-.54-1.78-1.1-3.57-1.76-5.39-3.37.63-6.74,1.3-10.1,2.01-10.09,2.13-20.12,4.61-30.07,7.39-.2.28-.39.59-.56.89,1.45,21.61,5.66,43.24,2.84,64.85-1.2.36-2.37.59-3.49.72-.36.06-.75.11-1.12.14-2.43.25-4.8.17-7.53.28-8.59.31-16.26.53-24.73.53-2.54,0-5.19-.03-7.92-.08-6.89-.08-17.31-.2-24.81-.33,7.05,10.99,9.98,20.72,7.67,33.76,26.35,6.22,50.72,13.19,72.6,29.47,1.9,1.45,6.94,5.13,3.51,7.03-.47.28-1.03.39-1.62.39-3.6,0-8.81-4.27-11.88-5.21,1.09,7.7,3.15,12.88,3.99,21.13,1.02,10.21.84,20.22-.03,30.12,13.69-1.26,27.39-2.3,41.12-3.04.87-.05,1.75-.09,2.62-.14,3.88-.2,7.76-.38,11.64-.53,3.88-.15,7.76-.29,11.65-.4,3.88-.11,7.77-.2,11.65-.27,3.88-.07,7.77-.11,11.65-.14,3.88-.02,7.77-.03,11.65,0,3.88.02,7.77.06,11.65.12s7.77.15,11.65.25c3.88.11,7.76.23,11.64.38,3.88.15,7.76.32,11.64.51,3.88.19,7.76.4,11.63.63,3.88.23,7.75.48,11.63.76,3.87.27,7.75.57,11.62.88,1.94.16,3.87.32,5.81.49,1.86.16,3.72.37,5.58.47-2.57-23.21-5.97-46.77-17.98-66.8-.7-1.17-1.44-2.35-1.8-3.66-.34-1.21-.2-5.39,2.03-3.75.56.41,1.14,1.13,1.69,1.74.28.3.55.58.8.77,3.43,2.73.96.63,3.83,4.06,20.1-8.48,40.32-16.73,60.25-25.62,1.37-1.56,2.12-3.62,2.23-5.63.42-8.92-1.28-16.2-5.63-24.01-.08-.14-.19-.32-.32-.52Z"/>
        <path class="st1" d="M341.99,259.61c-.22-.01-.42-.02-.62-.02.13,0,.26.02.39.02.08,0,.16,0,.24,0Z"/>
        <path class="st1" d="M199.02,54.06c-2.68.08-4.1,1.62-3.76,4.13.7,5.02,1.95,13.05,2.9,17.45.92,4.41,4.91,5.94,7.7,2.7,4.46-5.21,10.2-12.32,14.41-17.84,2.45-3.23.14-6.52-4.18-6.66-4.29-.14-12.35.06-17.06.22Z"/>
        <path d="M458.04,121.76c-5.46-1.06-11.01-1.51-16.65-1.51-15.36,0-31.26,3.23-47.04,5.52-5.07.75-10.32,1.48-15.64,2.2-.42.06-.86.11-1.28.17-14.3,1.9-29.19,3.65-43.16,5.1.22-12.99-1.84-24.42-7.14-36.25,1.98-2.12,3.35-2.09,4.57-5.27,4.8-12.6,6.13-28.55,4.49-41.38-.86-6.8-3.76-5.58-8.39-6.02-15.2-1.45-30.2-.14-45.34-1.84-6.5-5.99-13.13-11.85-19.63-17.96,3.51-7.25,2.84-15.78-3.57-20.88-3.18-2.54-6.05-3.65-8.56-3.65-5.05,0-8.7,4.54-10.65,11.43-9.87-2.15-19.29-3.12-28.52-3.12-19.04,0-37.25,4.15-56.79,10.65-3.82-1.64-7.47-5.3-11.21-6.83-3.74-1.56-7.64-3.26-11.18-3.26-3.09,0-5.91,1.28-8.14,5.07-5.74,9.76.5,19.02,9.26,24.76.14.67.59,1.2.56,1.78-.03,8.03-.25,16.14-.67,24.12-1.95,2.45-3.9,1.76-5.3,5.33-.78,1.92-1.2,7.36-.95,9.98.22,2.62,1.28,4.38,3.74,4.91h.2c.67,0,1.53-.56,2.09-.56.28,0,.47.17.5.61,1.59,17.68,3.88,34.88,2.79,52.67-9.84.28-19.13.45-28.3.45-15.47,0-30.7-.42-48.04-1.23-7.14-.36-16.48-1.2-25.87-1.2-10.71,0-21.5,1.12-29.33,5.38-7.75,4.24-5.02,8.73-.45,13.41,2.29,2.31,7.89,2.84,11.18,3.12,1.34.11,2.68.17,3.99.17,3.57,0,7.14-.31,10.68-.31.64,0,1.28.03,1.92.03.28.45.53.86.81,1.34-5.83,5.13-6.72,11.4-2.15,17.54,1.25,1.7,3.74,1.39,4.88,2.43,1.12,1,.2,2.01.81,2.7,4.04,4.74,8.17,6.38,12.71,6.38,3.62,0,7.53-1.03,11.91-2.43,2.31-.72,4.21-2.76,7.08-3.09.45-.06.92-.08,1.42-.08,5.33,0,14.05,2.59,17.65,3.51,17.57,4.49,31.48,9.12,46.98,16.9,3.88,20.59,6.26,39.11,5.55,58.11-.04.79-.48,7.72,2.04,7.64,52.82-1.72,105.53-6.23,158.31-3.37,15.11.82,30.2,1.97,45.27,3.41.4.04,1.72.21,2.49-.57.19-.19.55-.64.45-3.72-.08-2.4-.34-3.39-.67-3.8,0-21.36-6.22-42.31-14.73-61.91-1.03-2.38,2.15-2.57,3.92-3.26,2.38-.93,4.75-1.88,7.12-2.84,4.75-1.91,9.47-3.87,14.19-5.85,9.45-3.97,18.84-8.07,28.23-12.19,2.06-.91,4.13-1.82,6.19-2.73,1.5-.66,4.3-2.62,5.9-2.61,3.09.03,4.77,2.7,7.5,3.65,3.6,1.28,6.94,2.04,10.04,2.04,5.13,0,9.65-2.04,13.8-7.11,1.67-2.06-.08-4.27,1.62-6.69,1.7-2.43,4.74-2.34,5.66-6.3.92-3.96-.2-9.45-2.62-13.22,9.45-1.03,18.4-1.95,27.71-4.74,4.85-6.36,7.33-12.49-4.24-14.72ZM291.39,52.75c2.62.08,7.03.2,9.42.42,2.37.2,3.49,2.06,2.01,3.82-2.54,2.96-6.22,6.8-9.03,9.42-1.76,1.64-3.99.86-4.27-1.7-.25-2.54-.33-6.94-.47-9.79-.06-1.42.86-2.23,2.34-2.17ZM249.52,6.08s.08,0,.11.03c7.08,1,10.73,7.92,6.94,13.69-4.68-2.54-9.48-4.91-14-7.61.89-1.7,5.21-6.11,6.94-6.11ZM129.01,18.71c0-3.57,1.51-4.74,3.68-4.74,1.03,0,2.2.25,3.46.67,9.67,3.21,15.61,10.85,23.14,17.4.59.5,1.2.95,2.01.95h.25c-.64-2.93-1.09-5.74-1.81-8.73-.08-.25-.89-.72-.81-1.2,5.49-1.28,10.01-3.76,15.7-4.94,11.54-2.37,23.59-6.25,35.58-6.25,2.06,0,4.13.11,6.19.36,24.26,3.04,40.96,16.42,59.72,30.84-2.26.03-4.49.06-6.72.06-3.18,0-6.3-.03-9.48-.03-2.51,0-5.02,0-7.58.08-23.28.56-47.71.14-70.6,3.71-15.81,2.48-28.24,9.98-42.91,15.22.67-6.27,1.25-12.66,1.65-18.99.81-.25,1.48-.31,2.15-.31.59,0,1.17.03,1.84.03.5,0,1.03-.03,1.62-.11,2.37-.33,5.66-1.76,8.17-2.29-1.34-1.34-3.26-.64-4.88-1-11.49-2.54-20.3-8.64-20.35-20.74ZM220.27,60.5c-4.21,5.52-9.95,12.63-14.41,17.84-2.79,3.23-6.78,1.7-7.7-2.7-.95-4.41-2.2-12.44-2.9-17.45-.33-2.51,1.09-4.04,3.76-4.13,4.71-.17,12.77-.36,17.06-.22,4.32.14,6.64,3.43,4.18,6.66ZM341.99,259.61c-.08,0-.16,0-.24,0-.13,0-.26-.02-.39-.02.2,0,.41.01.62.02ZM391.93,160.65c-.11,2.01-.86,4.07-2.23,5.63-19.94,8.89-40.15,17.15-60.25,25.62-2.87-3.43-.4-1.32-3.83-4.06-.26-.2-.53-.47-.8-.77-.55-.61-1.13-1.32-1.69-1.74-2.22-1.63-2.36,2.55-2.03,3.75.37,1.31,1.1,2.49,1.8,3.66,12.01,20.03,15.41,43.59,17.98,66.8-1.86-.11-3.72-.31-5.58-.47-1.94-.17-3.87-.33-5.81-.49-3.87-.31-7.75-.61-11.62-.88-3.87-.27-7.75-.52-11.63-.76-3.88-.23-7.76-.44-11.63-.63-3.88-.19-7.76-.36-11.64-.51-3.88-.15-7.76-.27-11.64-.38-3.88-.11-7.76-.19-11.65-.25s-7.77-.1-11.65-.12c-3.88-.02-7.77-.02-11.65,0-3.88.02-7.77.07-11.65.14-3.88.07-7.77.16-11.65.27-3.88.11-7.77.24-11.65.4-3.88.15-7.76.33-11.64.53-.87.04-1.75.09-2.62.14-13.73.74-27.43,1.79-41.12,3.04.87-9.9,1.04-19.91.03-30.12-.84-8.25-2.9-13.44-3.99-21.13,3.07.95,8.28,5.21,11.88,5.21.59,0,1.14-.11,1.62-.39,3.43-1.9-1.62-5.58-3.51-7.03-21.89-16.28-46.26-23.25-72.6-29.47,2.31-13.05-.61-22.78-7.67-33.76,7.5.14,17.93.25,24.81.33,2.73.06,5.38.08,7.92.08,8.48,0,16.14-.22,24.73-.53,2.73-.11,5.1-.03,7.53-.28.36-.03.75-.08,1.12-.14,1.12-.14,2.29-.36,3.49-.72,2.82-21.61-1.39-43.24-2.84-64.85.17-.31.36-.61.56-.89,9.95-2.78,19.99-5.26,30.07-7.39,3.36-.71,6.73-1.38,10.1-2.01.66,1.82,1.22,3.62,1.76,5.39.54,1.78,1.06,3.54,1.63,5.28.28.87.58,1.74.9,2.61.64,1.73,1.37,3.45,2.25,5.16.44.85.93,1.71,1.46,2.56,4.27,6.83,3.15,12.1,13.49,14.53,4.88,1.14,10.93,1.73,17.23,1.73,9.67,0,19.94-1.34,27.52-3.96,4.63-1.62,4.29-3.12,5.6-6.64,3.15-8.5,2.98-22.31,9.01-28.49,2.34-2.43,4.15-3.35,5.97-3.35,2.15,0,4.24,1.31,7.17,2.82,20.38,10.62,40.9,21.19,50.94,43.3,10.04,22.14,2.4,41.6-19.63,51.5,3.37-8.62,5.27-16.78,3.01-25.99-.25-1.14-.81-2.09-1.65-2.09-.28,0-.59.11-.92.36-4.49,10.09-2.15,24.56-13.77,30.34-5.8,2.87-11.77,4.04-17.79,4.04-15.39,0-31.17-7.5-45.47-12.6-7.81-2.76-13.72-7.7-21.13-10.09-.67-.2-1.14-.56-1.48-.56-.2,0-.33.14-.45.5-1.23,4.43,7.86,8.87,10.23,9.98,23.2,10.93,45.14,21.61,70.26,21.61.84,0,1.65-.03,2.45-.06,9.68-.25,16.78-7.08,24.26-11.04,11.4-5.99,16.14-13.1,21.08-24.31,12.85-1.39,24.7-2.43,38.03-4.29,1.64-.22,4.24-1.17,6.86-1.62.42-.08.84-.14,1.28-.17.45-.06.86-.08,1.28-.08.07,0,.14.01.2.02.84.02,1.65.15,2.38.42.1.04.22.05.32.09.14.06.32.2.5.36.18.16.36.35.56.57.14.16.29.34.43.52.35.44.68.91.93,1.3.13.2.24.38.32.52,4.35,7.81,6.05,15.08,5.63,24.01Z"/>
      </g>
    </g>
  </g>
</svg>